<svg width="397" height="253" viewBox="0 0 397 253" fill="none" xmlns="http://www.w3.org/2000/svg">
<rect width="397" height="253" fill="#1E1E1E"/>
<path fill-rule="evenodd" clip-rule="evenodd" d="M177 204L195.109 182.248L177.234 160.883L158.54 183.338L179.835 208.792L176 212L155.288 187.244L139.07 206.725L140.801 208.752L137 212L114.551 185.727L96.0827 207.911L96.8015 208.752L93 212L71.9018 187.306L54.0851 208.707L55.8299 210.786L52 214L29.7494 187.489L10.8427 210.199L7.00001 207L26.4832 183.597L8.03299 161.614L5.81509 164.232L2 161L25.6128 133.126L6.79532 111.101L5.77845 112.275L2 109L25.6639 81.6955L8.71062 61.8539L5.79629 65.254L2 62L5.42314 58.0063L2 54L5.80137 50.752L8.71664 54.1639L26.5461 33.3628L7 10L10.8349 6.79161L29.8452 29.514L50 6L52.8555 8.4476L54.8349 6.79161L72.3926 27.7778L93 4L94.8572 5.60957L95.8349 4.79161L114.962 27.6537L135 4L137.873 6.43339L139.835 4.79161L157.632 26.0636L176 4L178.299 5.91358L180.835 3.79161L199.55 26.1615L218 4L221.301 6.74815L224.835 3.79161L242.214 24.5649L261 2L263.306 3.91991L265.853 1.81368L284.441 24.2923L303 2L306.302 4.74865L309.841 1.79908L327.597 23.1058L346 1L349.843 4.19906L349.545 4.5568L368.162 24.8289L388 1L391.843 4.19906L371.575 28.5447L387.261 45.6254L391 41L394.888 44.1433L390.68 49.3488L393.683 52.618L390 56L387.502 53.2802L370.386 74.4533L388.477 96.1616L391 93L394.908 96.1191L391.744 100.083L394.841 103.799L391 107L388.56 104.072L369.824 127.546L387.358 148.75L391 144L394.968 147.042L390.628 152.704L394.853 157.814L391 161L387.506 156.775L370.923 178.406L393.835 205.792L390 209L367.805 182.472L348.968 207.042L348.64 206.791L346 209L324.921 183.804L307.908 205.119L306.486 203.984L308.835 206.792L305 210L282.527 183.139L264.108 205.923L264.835 206.792L261 210L260.905 209.886L259.888 211.143L256 208L257.635 205.978L240.705 185.743L222.843 207.199L221.722 206.266L223.835 208.792L220 212L198.37 186.146L180.843 207.199L177 204ZM137.075 9.28545L118.218 31.5456L135.686 52.4244L154.38 29.9693L137.075 9.28545ZM111.682 31.5255L94.0383 10.4363L75.6425 31.6623L93.4924 52.9977L111.682 31.5255ZM96.7485 56.8895L114.938 35.4173L132.435 56.3301L114.402 77.9903L96.7485 56.8895ZM90.2125 56.8694L72.3255 35.4896L53.2546 57.4945L71.3552 79.1295L90.2125 56.8694ZM74.6113 83.0214L93.4686 60.7612L111.151 81.896L92.4565 104.351L74.6113 83.0214ZM68.0753 83.0013L49.9376 61.3218L32.2603 81.7187L50.7902 103.406L68.0753 83.0013ZM54.0807 107.257L71.3314 86.8931L89.2049 108.257L72.2927 128.571L54.0807 107.257ZM47.516 107.271L28.9486 85.5398L10.107 107.28L28.887 129.261L47.516 107.271ZM32.1774 133.113L50.8065 111.122L69.0471 132.47L50.5802 154.652L32.1774 133.113ZM28.9032 136.978L11.312 157.743L29.7338 179.692L47.3346 158.551L28.9032 136.978ZM50.0047 53.61L69.0756 31.6051L52.0653 11.2734L33.098 33.402L50.0047 53.61ZM28.9756 77.8744L46.6877 57.4373L29.799 37.2508L12.0041 58.0115L28.9756 77.8744ZM72.3424 136.327L53.8753 158.509L71.8523 179.55L90.32 157.367L72.3424 136.327ZM93.5656 153.469L75.5879 132.428L92.4659 112.155L110.257 133.419L93.5656 153.469ZM93.6152 161.224L75.1474 183.407L92.7876 204.054L111.256 181.87L93.6152 161.224ZM114.502 177.971L96.8608 157.325L113.518 137.317L130.975 158.184L114.502 177.971ZM117.797 181.828L134.236 162.081L152.027 183.346L135.774 202.869L117.797 181.828ZM33 183.584L50.6297 162.408L68.6067 183.449L50.8189 204.815L33 183.584ZM366.637 131.538L384.237 152.821L367.635 174.476L349.586 152.902L366.637 131.538ZM346.403 156.89L364.518 178.542L346.595 201.919L328.103 179.817L346.403 156.89ZM384.083 49.5568L368.347 32.422L351.862 52.2237L367.123 70.5371L384.083 49.5568ZM364.934 28.7062L346.317 8.43404L330.851 27.0112L348.607 48.3182L364.934 28.7062ZM304.403 201.495L321.647 179.891L303.086 157.706L285.73 179.176L304.403 201.495ZM324.829 175.903L343.129 152.977L324.708 130.959L306.29 153.743L324.829 175.903ZM346.312 148.989L363.382 127.602L345.198 105.612L327.912 126.996L346.312 148.989ZM366.569 123.609L385.292 100.151L367.181 78.4178L348.406 101.644L366.569 123.609ZM348.609 56.1307L363.918 74.5015L345.154 97.7127L329.625 78.9334L348.609 56.1307ZM326.37 82.8433L341.947 101.68L324.642 123.088L308.715 104.051L326.37 82.8433ZM305.463 107.956L321.438 127.05L303.02 149.835L286.769 130.411L305.463 107.956ZM283.518 134.317L299.816 153.798L282.461 175.267L265.903 155.476L283.518 134.317ZM262.651 159.382L279.257 179.23L260.838 202.015L243.957 181.837L262.651 159.382ZM345.354 52.2252L327.599 30.9183L308.696 53.6236L326.383 75.0129L345.354 52.2252ZM324.344 27.0128L306.504 5.60532L287.683 28.2129L305.454 49.7031L324.344 27.0128ZM245.475 28.4626L263.499 6.81289L281.186 28.2021L263.266 49.7274L245.475 28.4626ZM266.527 53.6252L284.428 32.1227L302.199 53.6129L284.402 74.9903L266.527 53.6252ZM287.663 78.8881L305.441 57.5334L323.128 78.9227L305.454 100.153L287.663 78.8881ZM219.412 203.505L237.444 181.845L219.654 160.58L201.621 182.24L219.412 203.505ZM240.696 177.939L259.39 155.484L241.599 134.219L222.905 156.674L240.696 177.939ZM262.642 151.578L280.257 130.419L262.466 109.155L244.851 130.314L262.642 151.578ZM283.508 126.514L302.202 104.059L284.412 82.7938L265.717 105.249L283.508 126.514ZM216.393 156.682L198.36 178.343L180.485 156.977L198.518 135.317L216.393 156.682ZM238.338 130.321L219.644 152.777L201.769 131.411L220.463 108.956L238.338 130.321ZM259.205 105.257L241.59 126.416L223.715 105.051L241.33 83.8916L259.205 105.257ZM281.151 78.896L262.456 101.351L244.582 79.986L263.276 57.5308L281.151 78.896ZM260.015 53.6331L242.224 32.3683L223.53 54.8234L241.321 76.0882L260.015 53.6331ZM238.963 28.4705L221.505 7.60412L202.811 30.0593L220.269 50.9257L238.963 28.4705ZM160.893 29.9614L178.508 8.80234L196.299 30.0672L178.684 51.2262L160.893 29.9614ZM181.945 55.1239L199.56 33.9649L217.017 54.8313L199.402 75.9903L181.945 55.1239ZM202.663 79.8881L220.278 58.7291L238.069 79.9939L220.454 101.153L202.663 79.8881ZM155.279 179.44L173.973 156.985L156.182 135.72L137.488 158.176L155.279 179.44ZM177.224 153.08L195.257 131.419L177.466 110.155L159.433 131.815L177.224 153.08ZM198.508 127.514L217.202 105.059L199.412 83.7937L180.717 106.249L198.508 127.514ZM152.921 131.823L134.227 154.278L116.769 133.411L135.463 110.956L152.921 131.823ZM174.205 106.257L156.173 127.917L138.715 107.051L156.747 85.3904L174.205 106.257ZM196.151 79.896L177.456 102.351L159.999 81.4847L178.693 59.0296L196.151 79.896ZM175.432 55.1319L157.641 33.867L138.947 56.3222L156.738 77.587L175.432 55.1319ZM117.663 81.8881L135.696 60.2278L153.486 81.4926L135.454 103.153L117.663 81.8881ZM113.508 129.514L132.202 107.059L114.412 85.7937L95.7174 108.249L113.508 129.514Z" fill="#A88E5B" fill-opacity="0.72"/>
<line x1="81.9999" y1="250.5" x2="387" y2="250.492" stroke="#AE770D" stroke-width="5"/>
<rect x="5" y="5" width="387" height="204" stroke="#916104" stroke-width="10"/>
<rect x="12.5" y="5.5" width="78" height="204" fill="black" stroke="#EAEAEA" stroke-width="3" stroke-linejoin="bevel"/>
<path d="M18.5921 35C18.4188 35 18.2654 34.96 18.1321 34.88C17.9988 34.7867 17.9321 34.6533 17.9321 34.48V21.02C17.9321 20.78 17.9988 20.6133 18.1321 20.52C18.2654 20.4267 18.4188 20.38 18.5921 20.38C18.7521 20.38 18.8921 20.4267 19.0121 20.52C19.1454 20.6 19.2654 20.7133 19.3721 20.86C19.4788 20.9933 19.5721 21.1467 19.6521 21.32L23.0921 27.94L26.5121 21.32C26.6188 21.1467 26.7188 20.9933 26.8121 20.86C26.9188 20.7133 27.0388 20.6 27.1721 20.52C27.3054 20.4267 27.4454 20.38 27.5921 20.38C27.7788 20.38 27.9321 20.4267 28.0521 20.52C28.1854 20.6133 28.2521 20.78 28.2521 21.02V34.48C28.2521 34.6533 28.1854 34.7867 28.0521 34.88C27.9188 34.96 27.7654 35 27.5921 35C27.4321 35 27.2788 34.96 27.1321 34.88C26.9988 34.7867 26.9321 34.6533 26.9321 34.48V23.24L23.6121 29.52C23.5321 29.68 23.4454 29.7933 23.3521 29.86C23.2588 29.9267 23.1654 29.96 23.0721 29.96C22.9921 29.96 22.9054 29.9267 22.8121 29.86C22.7188 29.7933 22.6254 29.68 22.5321 29.52L19.2521 23.2V34.48C19.2521 34.6533 19.1788 34.7867 19.0321 34.88C18.8988 34.96 18.7521 35 18.5921 35ZM34.3734 35.14C33.6934 35.14 33.0667 34.9667 32.4934 34.62C31.92 34.26 31.4534 33.7933 31.0934 33.22C30.7467 32.6333 30.5734 32.0067 30.5734 31.34V29.18C30.5734 28.5 30.74 27.88 31.0734 27.32C31.42 26.7467 31.88 26.2867 32.4534 25.94C33.04 25.5933 33.68 25.42 34.3734 25.42C35.0534 25.42 35.68 25.5933 36.2534 25.94C36.84 26.2733 37.3067 26.72 37.6534 27.28C38 27.84 38.1734 28.4733 38.1734 29.18V31.34C38.1734 31.9933 38 32.6133 37.6534 33.2C37.3067 33.7867 36.84 34.26 36.2534 34.62C35.68 34.9667 35.0534 35.14 34.3734 35.14ZM34.3734 33.94C34.84 33.94 35.26 33.82 35.6334 33.58C36.0067 33.3267 36.3067 33 36.5334 32.6C36.76 32.2 36.8734 31.78 36.8734 31.34V29.18C36.8734 28.74 36.76 28.3267 36.5334 27.94C36.32 27.5533 36.02 27.24 35.6334 27C35.26 26.7467 34.84 26.62 34.3734 26.62C33.9067 26.62 33.4867 26.7467 33.1134 27C32.74 27.24 32.44 27.5533 32.2134 27.94C31.9867 28.3267 31.8734 28.74 31.8734 29.18V31.34C31.8734 31.78 31.9867 32.2 32.2134 32.6C32.44 33 32.74 33.3267 33.1134 33.58C33.5 33.82 33.92 33.94 34.3734 33.94ZM43.4884 35.14C42.875 35.14 42.295 34.9667 41.7484 34.62C41.2017 34.26 40.7617 33.7867 40.4284 33.2C40.1084 32.6133 39.9484 31.9933 39.9484 31.34V29.18C39.9484 28.4867 40.1084 27.86 40.4284 27.3C40.7617 26.7267 41.2017 26.2733 41.7484 25.94C42.295 25.5933 42.895 25.42 43.5484 25.42C44.2017 25.42 44.7484 25.58 45.1884 25.9C45.6417 26.2067 45.975 26.5533 46.1884 26.94V20.24C46.1884 20.08 46.255 19.96 46.3884 19.88C46.5217 19.7867 46.675 19.74 46.8484 19.74C47.0484 19.74 47.2017 19.7867 47.3084 19.88C47.4284 19.96 47.4884 20.08 47.4884 20.24V34.48C47.4884 34.6133 47.4284 34.7333 47.3084 34.84C47.2017 34.9467 47.0484 35 46.8484 35C46.6884 35 46.5417 34.9467 46.4084 34.84C46.2884 34.7333 46.2284 34.6133 46.2284 34.48V33.6C46.0284 34.0133 45.675 34.3733 45.1684 34.68C44.675 34.9867 44.115 35.14 43.4884 35.14ZM43.7284 33.94C44.2084 33.94 44.6284 33.82 44.9884 33.58C45.3617 33.3267 45.655 33.0467 45.8684 32.74C46.0817 32.42 46.1884 32.16 46.1884 31.96V29.18C46.1884 28.6333 46.0684 28.1733 45.8284 27.8C45.5884 27.4267 45.2817 27.14 44.9084 26.94C44.535 26.7267 44.1484 26.62 43.7484 26.62C43.295 26.62 42.8817 26.7467 42.5084 27C42.135 27.24 41.835 27.5533 41.6084 27.94C41.3817 28.3267 41.2684 28.74 41.2684 29.18V31.34C41.2684 31.78 41.3817 32.2 41.6084 32.6C41.835 33 42.135 33.3267 42.5084 33.58C42.8817 33.82 43.2884 33.94 43.7284 33.94ZM53.7359 35.14C53.0292 35.14 52.3825 34.9667 51.7959 34.62C51.2225 34.2733 50.7625 33.8133 50.4159 33.24C50.0825 32.6533 49.9159 32.0333 49.9159 31.38V26.06C49.9159 25.9267 49.9825 25.8067 50.1159 25.7C50.2492 25.5933 50.4025 25.54 50.5759 25.54C50.7492 25.54 50.8959 25.5933 51.0159 25.7C51.1492 25.8067 51.2159 25.9267 51.2159 26.06V31.38C51.2159 31.82 51.3292 32.2333 51.5559 32.62C51.7825 33.0067 52.0825 33.3267 52.4559 33.58C52.8292 33.82 53.2492 33.94 53.7159 33.94C54.1959 33.94 54.6225 33.82 54.9959 33.58C55.3692 33.34 55.6625 33.0267 55.8759 32.64C56.1025 32.24 56.2159 31.82 56.2159 31.38V26.04C56.2159 25.8933 56.2825 25.7733 56.4159 25.68C56.5492 25.5867 56.7025 25.54 56.8759 25.54C57.0759 25.54 57.2292 25.5867 57.3359 25.68C57.4559 25.7733 57.5159 25.8933 57.5159 26.04V31.38C57.5159 32.06 57.3425 32.6867 56.9959 33.26C56.6625 33.82 56.2025 34.2733 55.6159 34.62C55.0425 34.9667 54.4159 35.14 53.7359 35.14ZM60.7377 35C60.5644 35 60.4111 34.9467 60.2777 34.84C60.1577 34.7333 60.0977 34.6133 60.0977 34.48V20.24C60.0977 20.08 60.1577 19.96 60.2777 19.88C60.4111 19.7867 60.5644 19.74 60.7377 19.74C60.9244 19.74 61.0777 19.7867 61.1977 19.88C61.3311 19.96 61.3977 20.08 61.3977 20.24V34.48C61.3977 34.6133 61.3311 34.7333 61.1977 34.84C61.0777 34.9467 60.9244 35 60.7377 35ZM67.5179 35.14C66.8379 35.14 66.2112 34.9667 65.6379 34.62C65.0646 34.26 64.5979 33.7933 64.2379 33.22C63.8912 32.6333 63.7179 32.0067 63.7179 31.34V29.18C63.7179 28.5 63.8846 27.88 64.2179 27.32C64.5646 26.7467 65.0246 26.2867 65.5979 25.94C66.1846 25.5933 66.8246 25.42 67.5179 25.42C68.1979 25.42 68.8246 25.5933 69.3979 25.94C69.9846 26.2733 70.4512 26.72 70.7979 27.28C71.1446 27.84 71.3179 28.4733 71.3179 29.18V31.34C71.3179 31.9933 71.1446 32.6133 70.7979 33.2C70.4512 33.7867 69.9846 34.26 69.3979 34.62C68.8246 34.9667 68.1979 35.14 67.5179 35.14ZM67.5179 33.94C67.9846 33.94 68.4046 33.82 68.7779 33.58C69.1512 33.3267 69.4512 33 69.6779 32.6C69.9046 32.2 70.0179 31.78 70.0179 31.34V29.18C70.0179 28.74 69.9046 28.3267 69.6779 27.94C69.4646 27.5533 69.1646 27.24 68.7779 27C68.4046 26.7467 67.9846 26.62 67.5179 26.62C67.0512 26.62 66.6312 26.7467 66.2579 27C65.8846 27.24 65.5846 27.5533 65.3579 27.94C65.1312 28.3267 65.0179 28.74 65.0179 29.18V31.34C65.0179 31.78 65.1312 32.2 65.3579 32.6C65.5846 33 65.8846 33.3267 66.2579 33.58C66.6446 33.82 67.0646 33.94 67.5179 33.94ZM81.5568 35.12C80.7835 35.12 80.0768 34.98 79.4368 34.7C78.8101 34.42 78.3101 33.9667 77.9368 33.34C77.5635 32.7133 77.3768 31.88 77.3768 30.84V24.66C77.3768 23.62 77.5635 22.7867 77.9368 22.16C78.3101 21.5333 78.8101 21.08 79.4368 20.8C80.0768 20.52 80.7968 20.38 81.5968 20.38C82.2635 20.38 82.8501 20.4733 83.3568 20.66C83.8768 20.8467 84.3101 21.1067 84.6568 21.44C85.0035 21.7733 85.2635 22.14 85.4368 22.54C85.6235 22.94 85.7168 23.36 85.7168 23.8C85.7168 24.0133 85.6568 24.1733 85.5368 24.28C85.4301 24.3733 85.2835 24.42 85.0968 24.42C84.9101 24.42 84.7435 24.38 84.5968 24.3C84.4635 24.2067 84.3968 24.06 84.3968 23.86C84.3968 23.3933 84.2701 22.9933 84.0168 22.66C83.7635 22.3267 83.4168 22.0667 82.9768 21.88C82.5501 21.6933 82.0768 21.6 81.5568 21.6C80.6635 21.6 79.9635 21.8467 79.4568 22.34C78.9635 22.8333 78.7168 23.6067 78.7168 24.66V27.7C79.0501 27.2333 79.4768 26.9 79.9968 26.7C80.5301 26.4867 81.1101 26.38 81.7368 26.38C82.4701 26.38 83.1368 26.5 83.7368 26.74C84.3368 26.98 84.8168 27.3933 85.1768 27.98C85.5368 28.5533 85.7168 29.3467 85.7168 30.36V30.84C85.7168 31.88 85.5301 32.7133 85.1568 33.34C84.7835 33.9667 84.2835 34.42 83.6568 34.7C83.0435 34.98 82.3435 35.12 81.5568 35.12ZM81.5568 33.94C82.4501 33.94 83.1435 33.6933 83.6368 33.2C84.1301 32.7067 84.3768 31.94 84.3768 30.9V30.42C84.3768 29.3667 84.1301 28.62 83.6368 28.18C83.1435 27.74 82.4501 27.52 81.5568 27.52C80.6901 27.52 79.9968 27.7267 79.4768 28.14C78.9701 28.5533 78.7168 29.2533 78.7168 30.24V30.9C78.7168 31.94 78.9635 32.7067 79.4568 33.2C79.9635 33.6933 80.6635 33.94 81.5568 33.94ZM19.0316 66C18.8582 66 18.7049 65.96 18.5716 65.88C18.4382 65.7867 18.3716 65.6533 18.3716 65.48V52.02C18.3716 51.78 18.4382 51.6133 18.5716 51.52C18.7049 51.4267 18.8582 51.38 19.0316 51.38C19.1916 51.38 19.3316 51.4267 19.4516 51.52C19.5849 51.6 19.7049 51.7133 19.8116 51.86C19.9182 51.9933 20.0116 52.1467 20.0916 52.32L23.5316 58.94L26.9516 52.32C27.0582 52.1467 27.1582 51.9933 27.2516 51.86C27.3582 51.7133 27.4782 51.6 27.6116 51.52C27.7449 51.4267 27.8849 51.38 28.0316 51.38C28.2182 51.38 28.3716 51.4267 28.4916 51.52C28.6249 51.6133 28.6916 51.78 28.6916 52.02V65.48C28.6916 65.6533 28.6249 65.7867 28.4916 65.88C28.3582 65.96 28.2049 66 28.0316 66C27.8716 66 27.7182 65.96 27.5716 65.88C27.4382 65.7867 27.3716 65.6533 27.3716 65.48V54.24L24.0516 60.52C23.9716 60.68 23.8849 60.7933 23.7916 60.86C23.6982 60.9267 23.6049 60.96 23.5116 60.96C23.4316 60.96 23.3449 60.9267 23.2516 60.86C23.1582 60.7933 23.0649 60.68 22.9716 60.52L19.6916 54.2V65.48C19.6916 65.6533 19.6182 65.7867 19.4716 65.88C19.3382 65.96 19.1916 66 19.0316 66ZM34.8128 66.14C34.1328 66.14 33.5061 65.9667 32.9328 65.62C32.3595 65.26 31.8928 64.7933 31.5328 64.22C31.1861 63.6333 31.0128 63.0067 31.0128 62.34V60.18C31.0128 59.5 31.1795 58.88 31.5128 58.32C31.8595 57.7467 32.3195 57.2867 32.8928 56.94C33.4795 56.5933 34.1195 56.42 34.8128 56.42C35.4928 56.42 36.1195 56.5933 36.6928 56.94C37.2795 57.2733 37.7461 57.72 38.0928 58.28C38.4395 58.84 38.6128 59.4733 38.6128 60.18V62.34C38.6128 62.9933 38.4395 63.6133 38.0928 64.2C37.7461 64.7867 37.2795 65.26 36.6928 65.62C36.1195 65.9667 35.4928 66.14 34.8128 66.14ZM34.8128 64.94C35.2795 64.94 35.6995 64.82 36.0728 64.58C36.4461 64.3267 36.7461 64 36.9728 63.6C37.1995 63.2 37.3128 62.78 37.3128 62.34V60.18C37.3128 59.74 37.1995 59.3267 36.9728 58.94C36.7595 58.5533 36.4595 58.24 36.0728 58C35.6995 57.7467 35.2795 57.62 34.8128 57.62C34.3461 57.62 33.9261 57.7467 33.5528 58C33.1795 58.24 32.8795 58.5533 32.6528 58.94C32.4261 59.3267 32.3128 59.74 32.3128 60.18V62.34C32.3128 62.78 32.4261 63.2 32.6528 63.6C32.8795 64 33.1795 64.3267 33.5528 64.58C33.9395 64.82 34.3595 64.94 34.8128 64.94ZM43.9278 66.14C43.3145 66.14 42.7345 65.9667 42.1878 65.62C41.6411 65.26 41.2011 64.7867 40.8678 64.2C40.5478 63.6133 40.3878 62.9933 40.3878 62.34V60.18C40.3878 59.4867 40.5478 58.86 40.8678 58.3C41.2011 57.7267 41.6411 57.2733 42.1878 56.94C42.7345 56.5933 43.3345 56.42 43.9878 56.42C44.6411 56.42 45.1878 56.58 45.6278 56.9C46.0811 57.2067 46.4145 57.5533 46.6278 57.94V51.24C46.6278 51.08 46.6945 50.96 46.8278 50.88C46.9611 50.7867 47.1145 50.74 47.2878 50.74C47.4878 50.74 47.6411 50.7867 47.7478 50.88C47.8678 50.96 47.9278 51.08 47.9278 51.24V65.48C47.9278 65.6133 47.8678 65.7333 47.7478 65.84C47.6411 65.9467 47.4878 66 47.2878 66C47.1278 66 46.9811 65.9467 46.8478 65.84C46.7278 65.7333 46.6678 65.6133 46.6678 65.48V64.6C46.4678 65.0133 46.1145 65.3733 45.6078 65.68C45.1145 65.9867 44.5545 66.14 43.9278 66.14ZM44.1678 64.94C44.6478 64.94 45.0678 64.82 45.4278 64.58C45.8011 64.3267 46.0945 64.0467 46.3078 63.74C46.5211 63.42 46.6278 63.16 46.6278 62.96V60.18C46.6278 59.6333 46.5078 59.1733 46.2678 58.8C46.0278 58.4267 45.7211 58.14 45.3478 57.94C44.9745 57.7267 44.5878 57.62 44.1878 57.62C43.7345 57.62 43.3211 57.7467 42.9478 58C42.5745 58.24 42.2745 58.5533 42.0478 58.94C41.8211 59.3267 41.7078 59.74 41.7078 60.18V62.34C41.7078 62.78 41.8211 63.2 42.0478 63.6C42.2745 64 42.5745 64.3267 42.9478 64.58C43.3211 64.82 43.7278 64.94 44.1678 64.94ZM54.1753 66.14C53.4686 66.14 52.822 65.9667 52.2353 65.62C51.662 65.2733 51.202 64.8133 50.8553 64.24C50.522 63.6533 50.3553 63.0333 50.3553 62.38V57.06C50.3553 56.9267 50.422 56.8067 50.5553 56.7C50.6886 56.5933 50.842 56.54 51.0153 56.54C51.1886 56.54 51.3353 56.5933 51.4553 56.7C51.5886 56.8067 51.6553 56.9267 51.6553 57.06V62.38C51.6553 62.82 51.7686 63.2333 51.9953 63.62C52.222 64.0067 52.522 64.3267 52.8953 64.58C53.2686 64.82 53.6886 64.94 54.1553 64.94C54.6353 64.94 55.062 64.82 55.4353 64.58C55.8086 64.34 56.102 64.0267 56.3153 63.64C56.542 63.24 56.6553 62.82 56.6553 62.38V57.04C56.6553 56.8933 56.722 56.7733 56.8553 56.68C56.9886 56.5867 57.142 56.54 57.3153 56.54C57.5153 56.54 57.6686 56.5867 57.7753 56.68C57.8953 56.7733 57.9553 56.8933 57.9553 57.04V62.38C57.9553 63.06 57.782 63.6867 57.4353 64.26C57.102 64.82 56.642 65.2733 56.0553 65.62C55.482 65.9667 54.8553 66.14 54.1753 66.14ZM61.1772 66C61.0039 66 60.8505 65.9467 60.7172 65.84C60.5972 65.7333 60.5372 65.6133 60.5372 65.48V51.24C60.5372 51.08 60.5972 50.96 60.7172 50.88C60.8505 50.7867 61.0039 50.74 61.1772 50.74C61.3639 50.74 61.5172 50.7867 61.6372 50.88C61.7705 50.96 61.8372 51.08 61.8372 51.24V65.48C61.8372 65.6133 61.7705 65.7333 61.6372 65.84C61.5172 65.9467 61.3639 66 61.1772 66ZM67.9573 66.14C67.2773 66.14 66.6507 65.9667 66.0773 65.62C65.504 65.26 65.0373 64.7933 64.6773 64.22C64.3307 63.6333 64.1573 63.0067 64.1573 62.34V60.18C64.1573 59.5 64.324 58.88 64.6573 58.32C65.004 57.7467 65.464 57.2867 66.0373 56.94C66.624 56.5933 67.264 56.42 67.9573 56.42C68.6373 56.42 69.264 56.5933 69.8373 56.94C70.424 57.2733 70.8907 57.72 71.2373 58.28C71.584 58.84 71.7573 59.4733 71.7573 60.18V62.34C71.7573 62.9933 71.584 63.6133 71.2373 64.2C70.8907 64.7867 70.424 65.26 69.8373 65.62C69.264 65.9667 68.6373 66.14 67.9573 66.14ZM67.9573 64.94C68.424 64.94 68.844 64.82 69.2173 64.58C69.5907 64.3267 69.8907 64 70.1173 63.6C70.344 63.2 70.4573 62.78 70.4573 62.34V60.18C70.4573 59.74 70.344 59.3267 70.1173 58.94C69.904 58.5533 69.604 58.24 69.2173 58C68.844 57.7467 68.424 57.62 67.9573 57.62C67.4907 57.62 67.0707 57.7467 66.6973 58C66.324 58.24 66.024 58.5533 65.7973 58.94C65.5707 59.3267 65.4573 59.74 65.4573 60.18V62.34C65.4573 62.78 65.5707 63.2 65.7973 63.6C66.024 64 66.324 64.3267 66.6973 64.58C67.084 64.82 67.504 64.94 67.9573 64.94ZM81.3563 66.12C80.4896 66.12 79.7429 65.9667 79.1163 65.66C78.4896 65.34 78.0096 64.9267 77.6763 64.42C77.3563 63.9 77.1963 63.3333 77.1963 62.72C77.1963 62.4667 77.2563 62.2933 77.3763 62.2C77.4963 62.1067 77.6563 62.06 77.8563 62.06C78.0963 62.06 78.2629 62.1133 78.3563 62.22C78.4629 62.3267 78.5163 62.46 78.5163 62.62C78.5163 63.1 78.6429 63.5133 78.8963 63.86C79.1496 64.1933 79.4896 64.4533 79.9163 64.64C80.3429 64.8133 80.8163 64.9 81.3363 64.9C82.2296 64.9 82.9296 64.6533 83.4363 64.16C83.9429 63.6667 84.1963 62.9067 84.1963 61.88V61.5C84.1963 60.5 83.9429 59.76 83.4363 59.28C82.9296 58.8 82.2429 58.56 81.3763 58.56H78.5763C78.3096 58.56 78.1296 58.5133 78.0363 58.42C77.9429 58.3133 77.8963 58.1867 77.8963 58.04C77.8963 57.96 77.8963 57.8933 77.8963 57.84C77.9096 57.7733 77.9229 57.7067 77.9363 57.64L78.3363 51.9C78.3496 51.74 78.3896 51.6133 78.4563 51.52C78.5229 51.4267 78.6163 51.38 78.7363 51.38H84.3563C84.5029 51.38 84.6096 51.4467 84.6763 51.58C84.7563 51.7 84.7963 51.84 84.7963 52C84.7963 52.1467 84.7563 52.2867 84.6763 52.42C84.6096 52.54 84.5029 52.6 84.3563 52.6H79.5163L79.1763 57.4H81.3763C82.1496 57.4 82.8496 57.5333 83.4763 57.8C84.1029 58.0667 84.5963 58.5 84.9563 59.1C85.3296 59.7 85.5163 60.5 85.5163 61.5V61.88C85.5163 62.9067 85.3296 63.7333 84.9563 64.36C84.5963 64.9733 84.0963 65.42 83.4563 65.7C82.8296 65.98 82.1296 66.12 81.3563 66.12ZM19.3343 97C19.161 97 19.0076 96.96 18.8743 96.88C18.741 96.7867 18.6743 96.6533 18.6743 96.48V83.02C18.6743 82.78 18.741 82.6133 18.8743 82.52C19.0076 82.4267 19.161 82.38 19.3343 82.38C19.4943 82.38 19.6343 82.4267 19.7543 82.52C19.8876 82.6 20.0076 82.7133 20.1143 82.86C20.221 82.9933 20.3143 83.1467 20.3943 83.32L23.8343 89.94L27.2543 83.32C27.361 83.1467 27.461 82.9933 27.5543 82.86C27.661 82.7133 27.781 82.6 27.9143 82.52C28.0476 82.4267 28.1876 82.38 28.3343 82.38C28.521 82.38 28.6743 82.4267 28.7943 82.52C28.9276 82.6133 28.9943 82.78 28.9943 83.02V96.48C28.9943 96.6533 28.9276 96.7867 28.7943 96.88C28.661 96.96 28.5076 97 28.3343 97C28.1743 97 28.021 96.96 27.8743 96.88C27.741 96.7867 27.6743 96.6533 27.6743 96.48V85.24L24.3543 91.52C24.2743 91.68 24.1876 91.7933 24.0943 91.86C24.001 91.9267 23.9076 91.96 23.8143 91.96C23.7343 91.96 23.6476 91.9267 23.5543 91.86C23.461 91.7933 23.3676 91.68 23.2743 91.52L19.9943 85.2V96.48C19.9943 96.6533 19.921 96.7867 19.7743 96.88C19.641 96.96 19.4943 97 19.3343 97ZM35.1155 97.14C34.4355 97.14 33.8089 96.9667 33.2355 96.62C32.6622 96.26 32.1955 95.7933 31.8355 95.22C31.4889 94.6333 31.3155 94.0067 31.3155 93.34V91.18C31.3155 90.5 31.4822 89.88 31.8155 89.32C32.1622 88.7467 32.6222 88.2867 33.1955 87.94C33.7822 87.5933 34.4222 87.42 35.1155 87.42C35.7955 87.42 36.4222 87.5933 36.9955 87.94C37.5822 88.2733 38.0489 88.72 38.3955 89.28C38.7422 89.84 38.9155 90.4733 38.9155 91.18V93.34C38.9155 93.9933 38.7422 94.6133 38.3955 95.2C38.0489 95.7867 37.5822 96.26 36.9955 96.62C36.4222 96.9667 35.7955 97.14 35.1155 97.14ZM35.1155 95.94C35.5822 95.94 36.0022 95.82 36.3755 95.58C36.7489 95.3267 37.0489 95 37.2755 94.6C37.5022 94.2 37.6155 93.78 37.6155 93.34V91.18C37.6155 90.74 37.5022 90.3267 37.2755 89.94C37.0622 89.5533 36.7622 89.24 36.3755 89C36.0022 88.7467 35.5822 88.62 35.1155 88.62C34.6489 88.62 34.2289 88.7467 33.8555 89C33.4822 89.24 33.1822 89.5533 32.9555 89.94C32.7289 90.3267 32.6155 90.74 32.6155 91.18V93.34C32.6155 93.78 32.7289 94.2 32.9555 94.6C33.1822 95 33.4822 95.3267 33.8555 95.58C34.2422 95.82 34.6622 95.94 35.1155 95.94ZM44.2305 97.14C43.6172 97.14 43.0372 96.9667 42.4905 96.62C41.9439 96.26 41.5039 95.7867 41.1705 95.2C40.8505 94.6133 40.6905 93.9933 40.6905 93.34V91.18C40.6905 90.4867 40.8505 89.86 41.1705 89.3C41.5039 88.7267 41.9439 88.2733 42.4905 87.94C43.0372 87.5933 43.6372 87.42 44.2905 87.42C44.9439 87.42 45.4905 87.58 45.9305 87.9C46.3839 88.2067 46.7172 88.5533 46.9305 88.94V82.24C46.9305 82.08 46.9972 81.96 47.1305 81.88C47.2639 81.7867 47.4172 81.74 47.5905 81.74C47.7905 81.74 47.9439 81.7867 48.0505 81.88C48.1705 81.96 48.2305 82.08 48.2305 82.24V96.48C48.2305 96.6133 48.1705 96.7333 48.0505 96.84C47.9439 96.9467 47.7905 97 47.5905 97C47.4305 97 47.2839 96.9467 47.1505 96.84C47.0305 96.7333 46.9705 96.6133 46.9705 96.48V95.6C46.7705 96.0133 46.4172 96.3733 45.9105 96.68C45.4172 96.9867 44.8572 97.14 44.2305 97.14ZM44.4705 95.94C44.9505 95.94 45.3705 95.82 45.7305 95.58C46.1039 95.3267 46.3972 95.0467 46.6105 94.74C46.8239 94.42 46.9305 94.16 46.9305 93.96V91.18C46.9305 90.6333 46.8105 90.1733 46.5705 89.8C46.3305 89.4267 46.0239 89.14 45.6505 88.94C45.2772 88.7267 44.8905 88.62 44.4905 88.62C44.0372 88.62 43.6239 88.7467 43.2505 89C42.8772 89.24 42.5772 89.5533 42.3505 89.94C42.1239 90.3267 42.0105 90.74 42.0105 91.18V93.34C42.0105 93.78 42.1239 94.2 42.3505 94.6C42.5772 95 42.8772 95.3267 43.2505 95.58C43.6239 95.82 44.0305 95.94 44.4705 95.94ZM54.478 97.14C53.7714 97.14 53.1247 96.9667 52.538 96.62C51.9647 96.2733 51.5047 95.8133 51.158 95.24C50.8247 94.6533 50.658 94.0333 50.658 93.38V88.06C50.658 87.9267 50.7247 87.8067 50.858 87.7C50.9914 87.5933 51.1447 87.54 51.318 87.54C51.4914 87.54 51.638 87.5933 51.758 87.7C51.8914 87.8067 51.958 87.9267 51.958 88.06V93.38C51.958 93.82 52.0714 94.2333 52.298 94.62C52.5247 95.0067 52.8247 95.3267 53.198 95.58C53.5714 95.82 53.9914 95.94 54.458 95.94C54.938 95.94 55.3647 95.82 55.738 95.58C56.1114 95.34 56.4047 95.0267 56.618 94.64C56.8447 94.24 56.958 93.82 56.958 93.38V88.04C56.958 87.8933 57.0247 87.7733 57.158 87.68C57.2914 87.5867 57.4447 87.54 57.618 87.54C57.818 87.54 57.9714 87.5867 58.078 87.68C58.198 87.7733 58.258 87.8933 58.258 88.04V93.38C58.258 94.06 58.0847 94.6867 57.738 95.26C57.4047 95.82 56.9447 96.2733 56.358 96.62C55.7847 96.9667 55.158 97.14 54.478 97.14ZM61.4799 97C61.3066 97 61.1533 96.9467 61.0199 96.84C60.8999 96.7333 60.8399 96.6133 60.8399 96.48V82.24C60.8399 82.08 60.8999 81.96 61.0199 81.88C61.1533 81.7867 61.3066 81.74 61.4799 81.74C61.6666 81.74 61.8199 81.7867 61.9399 81.88C62.0733 81.96 62.1399 82.08 62.1399 82.24V96.48C62.1399 96.6133 62.0733 96.7333 61.9399 96.84C61.8199 96.9467 61.6666 97 61.4799 97ZM68.2601 97.14C67.5801 97.14 66.9534 96.9667 66.3801 96.62C65.8067 96.26 65.3401 95.7933 64.9801 95.22C64.6334 94.6333 64.4601 94.0067 64.4601 93.34V91.18C64.4601 90.5 64.6267 89.88 64.9601 89.32C65.3067 88.7467 65.7667 88.2867 66.3401 87.94C66.9267 87.5933 67.5667 87.42 68.2601 87.42C68.9401 87.42 69.5667 87.5933 70.1401 87.94C70.7267 88.2733 71.1934 88.72 71.5401 89.28C71.8867 89.84 72.0601 90.4733 72.0601 91.18V93.34C72.0601 93.9933 71.8867 94.6133 71.5401 95.2C71.1934 95.7867 70.7267 96.26 70.1401 96.62C69.5667 96.9667 68.9401 97.14 68.2601 97.14ZM68.2601 95.94C68.7267 95.94 69.1467 95.82 69.5201 95.58C69.8934 95.3267 70.1934 95 70.4201 94.6C70.6467 94.2 70.7601 93.78 70.7601 93.34V91.18C70.7601 90.74 70.6467 90.3267 70.4201 89.94C70.2067 89.5533 69.9067 89.24 69.5201 89C69.1467 88.7467 68.7267 88.62 68.2601 88.62C67.7934 88.62 67.3734 88.7467 67.0001 89C66.6267 89.24 66.3267 89.5533 66.1001 89.94C65.8734 90.3267 65.7601 90.74 65.7601 91.18V93.34C65.7601 93.78 65.8734 94.2 66.1001 94.6C66.3267 95 66.6267 95.3267 67.0001 95.58C67.3867 95.82 67.8067 95.94 68.2601 95.94ZM83.359 97C83.199 97 83.0457 96.96 82.899 96.88C82.7657 96.7867 82.699 96.6533 82.699 96.48V93.56H77.619C77.459 93.56 77.3323 93.5133 77.239 93.42C77.1457 93.3133 77.099 93.18 77.099 93.02C77.099 92.9533 77.1057 92.8933 77.119 92.84C77.1323 92.7867 77.1523 92.7333 77.179 92.68L82.199 82.8C82.2657 82.64 82.3523 82.5333 82.459 82.48C82.579 82.4133 82.699 82.38 82.819 82.38C82.9123 82.38 83.0057 82.4067 83.099 82.46C83.2057 82.5 83.2923 82.56 83.359 82.64C83.4257 82.72 83.459 82.8133 83.459 82.92C83.459 82.9867 83.439 83.0733 83.399 83.18L78.799 92.3H82.699V88.44C82.699 88.2667 82.7657 88.1467 82.899 88.08C83.0457 88 83.199 87.96 83.359 87.96C83.5323 87.96 83.6857 88 83.819 88.08C83.9523 88.1467 84.019 88.2667 84.019 88.44V92.3H85.119C85.2923 92.3 85.419 92.3667 85.499 92.5C85.5923 92.62 85.639 92.76 85.639 92.92C85.639 93.08 85.5857 93.2267 85.479 93.36C85.3857 93.4933 85.2657 93.56 85.119 93.56H84.019V96.48C84.019 96.6533 83.9523 96.7867 83.819 96.88C83.6857 96.96 83.5323 97 83.359 97ZM18.8948 128C18.7215 128 18.5682 127.96 18.4348 127.88C18.3015 127.787 18.2348 127.653 18.2348 127.48V114.02C18.2348 113.78 18.3015 113.613 18.4348 113.52C18.5682 113.427 18.7215 113.38 18.8948 113.38C19.0548 113.38 19.1948 113.427 19.3148 113.52C19.4482 113.6 19.5682 113.713 19.6748 113.86C19.7815 113.993 19.8748 114.147 19.9548 114.32L23.3948 120.94L26.8148 114.32C26.9215 114.147 27.0215 113.993 27.1148 113.86C27.2215 113.713 27.3415 113.6 27.4748 113.52C27.6082 113.427 27.7482 113.38 27.8948 113.38C28.0815 113.38 28.2348 113.427 28.3548 113.52C28.4882 113.613 28.5548 113.78 28.5548 114.02V127.48C28.5548 127.653 28.4882 127.787 28.3548 127.88C28.2215 127.96 28.0682 128 27.8948 128C27.7348 128 27.5815 127.96 27.4348 127.88C27.3015 127.787 27.2348 127.653 27.2348 127.48V116.24L23.9148 122.52C23.8348 122.68 23.7482 122.793 23.6548 122.86C23.5615 122.927 23.4682 122.96 23.3748 122.96C23.2948 122.96 23.2082 122.927 23.1148 122.86C23.0215 122.793 22.9282 122.68 22.8348 122.52L19.5548 116.2V127.48C19.5548 127.653 19.4815 127.787 19.3348 127.88C19.2015 127.96 19.0548 128 18.8948 128ZM34.6761 128.14C33.9961 128.14 33.3694 127.967 32.7961 127.62C32.2228 127.26 31.7561 126.793 31.3961 126.22C31.0494 125.633 30.8761 125.007 30.8761 124.34V122.18C30.8761 121.5 31.0428 120.88 31.3761 120.32C31.7228 119.747 32.1828 119.287 32.7561 118.94C33.3428 118.593 33.9828 118.42 34.6761 118.42C35.3561 118.42 35.9828 118.593 36.5561 118.94C37.1428 119.273 37.6094 119.72 37.9561 120.28C38.3028 120.84 38.4761 121.473 38.4761 122.18V124.34C38.4761 124.993 38.3028 125.613 37.9561 126.2C37.6094 126.787 37.1428 127.26 36.5561 127.62C35.9828 127.967 35.3561 128.14 34.6761 128.14ZM34.6761 126.94C35.1428 126.94 35.5628 126.82 35.9361 126.58C36.3094 126.327 36.6094 126 36.8361 125.6C37.0628 125.2 37.1761 124.78 37.1761 124.34V122.18C37.1761 121.74 37.0628 121.327 36.8361 120.94C36.6228 120.553 36.3228 120.24 35.9361 120C35.5628 119.747 35.1428 119.62 34.6761 119.62C34.2094 119.62 33.7894 119.747 33.4161 120C33.0428 120.24 32.7428 120.553 32.5161 120.94C32.2894 121.327 32.1761 121.74 32.1761 122.18V124.34C32.1761 124.78 32.2894 125.2 32.5161 125.6C32.7428 126 33.0428 126.327 33.4161 126.58C33.8028 126.82 34.2228 126.94 34.6761 126.94ZM43.7911 128.14C43.1778 128.14 42.5978 127.967 42.0511 127.62C41.5044 127.26 41.0644 126.787 40.7311 126.2C40.4111 125.613 40.2511 124.993 40.2511 124.34V122.18C40.2511 121.487 40.4111 120.86 40.7311 120.3C41.0644 119.727 41.5044 119.273 42.0511 118.94C42.5978 118.593 43.1978 118.42 43.8511 118.42C44.5044 118.42 45.0511 118.58 45.4911 118.9C45.9444 119.207 46.2778 119.553 46.4911 119.94V113.24C46.4911 113.08 46.5578 112.96 46.6911 112.88C46.8244 112.787 46.9778 112.74 47.1511 112.74C47.3511 112.74 47.5044 112.787 47.6111 112.88C47.7311 112.96 47.7911 113.08 47.7911 113.24V127.48C47.7911 127.613 47.7311 127.733 47.6111 127.84C47.5044 127.947 47.3511 128 47.1511 128C46.9911 128 46.8444 127.947 46.7111 127.84C46.5911 127.733 46.5311 127.613 46.5311 127.48V126.6C46.3311 127.013 45.9778 127.373 45.4711 127.68C44.9778 127.987 44.4178 128.14 43.7911 128.14ZM44.0311 126.94C44.5111 126.94 44.9311 126.82 45.2911 126.58C45.6644 126.327 45.9578 126.047 46.1711 125.74C46.3844 125.42 46.4911 125.16 46.4911 124.96V122.18C46.4911 121.633 46.3711 121.173 46.1311 120.8C45.8911 120.427 45.5844 120.14 45.2111 119.94C44.8378 119.727 44.4511 119.62 44.0511 119.62C43.5978 119.62 43.1844 119.747 42.8111 120C42.4378 120.24 42.1378 120.553 41.9111 120.94C41.6844 121.327 41.5711 121.74 41.5711 122.18V124.34C41.5711 124.78 41.6844 125.2 41.9111 125.6C42.1378 126 42.4378 126.327 42.8111 126.58C43.1844 126.82 43.5911 126.94 44.0311 126.94ZM54.0386 128.14C53.3319 128.14 52.6853 127.967 52.0986 127.62C51.5253 127.273 51.0653 126.813 50.7186 126.24C50.3853 125.653 50.2186 125.033 50.2186 124.38V119.06C50.2186 118.927 50.2853 118.807 50.4186 118.7C50.5519 118.593 50.7053 118.54 50.8786 118.54C51.0519 118.54 51.1986 118.593 51.3186 118.7C51.4519 118.807 51.5186 118.927 51.5186 119.06V124.38C51.5186 124.82 51.6319 125.233 51.8586 125.62C52.0853 126.007 52.3853 126.327 52.7586 126.58C53.1319 126.82 53.5519 126.94 54.0186 126.94C54.4986 126.94 54.9253 126.82 55.2986 126.58C55.6719 126.34 55.9653 126.027 56.1786 125.64C56.4053 125.24 56.5186 124.82 56.5186 124.38V119.04C56.5186 118.893 56.5853 118.773 56.7186 118.68C56.8519 118.587 57.0053 118.54 57.1786 118.54C57.3786 118.54 57.5319 118.587 57.6386 118.68C57.7586 118.773 57.8186 118.893 57.8186 119.04V124.38C57.8186 125.06 57.6453 125.687 57.2986 126.26C56.9653 126.82 56.5053 127.273 55.9186 127.62C55.3453 127.967 54.7186 128.14 54.0386 128.14ZM61.0405 128C60.8671 128 60.7138 127.947 60.5805 127.84C60.4605 127.733 60.4005 127.613 60.4005 127.48V113.24C60.4005 113.08 60.4605 112.96 60.5805 112.88C60.7138 112.787 60.8671 112.74 61.0405 112.74C61.2271 112.74 61.3805 112.787 61.5005 112.88C61.6338 112.96 61.7005 113.08 61.7005 113.24V127.48C61.7005 127.613 61.6338 127.733 61.5005 127.84C61.3805 127.947 61.2271 128 61.0405 128ZM67.8206 128.14C67.1406 128.14 66.514 127.967 65.9406 127.62C65.3673 127.26 64.9006 126.793 64.5406 126.22C64.194 125.633 64.0206 125.007 64.0206 124.34V122.18C64.0206 121.5 64.1873 120.88 64.5206 120.32C64.8673 119.747 65.3273 119.287 65.9006 118.94C66.4873 118.593 67.1273 118.42 67.8206 118.42C68.5006 118.42 69.1273 118.593 69.7006 118.94C70.2873 119.273 70.754 119.72 71.1006 120.28C71.4473 120.84 71.6206 121.473 71.6206 122.18V124.34C71.6206 124.993 71.4473 125.613 71.1006 126.2C70.754 126.787 70.2873 127.26 69.7006 127.62C69.1273 127.967 68.5006 128.14 67.8206 128.14ZM67.8206 126.94C68.2873 126.94 68.7073 126.82 69.0806 126.58C69.454 126.327 69.754 126 69.9806 125.6C70.2073 125.2 70.3206 124.78 70.3206 124.34V122.18C70.3206 121.74 70.2073 121.327 69.9806 120.94C69.7673 120.553 69.4673 120.24 69.0806 120C68.7073 119.747 68.2873 119.62 67.8206 119.62C67.354 119.62 66.934 119.747 66.5606 120C66.1873 120.24 65.8873 120.553 65.6606 120.94C65.434 121.327 65.3206 121.74 65.3206 122.18V124.34C65.3206 124.78 65.434 125.2 65.6606 125.6C65.8873 126 66.1873 126.327 66.5606 126.58C66.9473 126.82 67.3673 126.94 67.8206 126.94ZM81.2395 128.12C80.5329 128.12 79.9195 128.02 79.3995 127.82C78.8795 127.607 78.4462 127.34 78.0995 127.02C77.7529 126.7 77.4995 126.347 77.3395 125.96C77.1795 125.573 77.0995 125.193 77.0995 124.82C77.0995 124.54 77.1462 124.353 77.2395 124.26C77.3462 124.167 77.4995 124.12 77.6995 124.12C77.9795 124.12 78.1662 124.173 78.2595 124.28C78.3529 124.373 78.3995 124.507 78.3995 124.68C78.3995 124.893 78.4395 125.133 78.5195 125.4C78.6129 125.653 78.7662 125.893 78.9795 126.12C79.1929 126.347 79.4795 126.533 79.8395 126.68C80.1995 126.827 80.6529 126.9 81.1995 126.9C82.1462 126.9 82.8662 126.66 83.3595 126.18C83.8529 125.687 84.0995 124.927 84.0995 123.9V123.52C84.0995 122.6 83.8395 121.933 83.3195 121.52C82.7995 121.093 82.1062 120.88 81.2395 120.88C81.0662 120.88 80.9395 120.82 80.8595 120.7C80.7795 120.58 80.7395 120.447 80.7395 120.3C80.7395 120.153 80.7795 120.02 80.8595 119.9C80.9395 119.78 81.0662 119.72 81.2395 119.72C81.7595 119.72 82.2062 119.647 82.5795 119.5C82.9662 119.34 83.2529 119.073 83.4395 118.7C83.6395 118.327 83.7395 117.813 83.7395 117.16C83.7395 116.293 83.5462 115.653 83.1595 115.24C82.7729 114.813 82.1595 114.6 81.3195 114.6C80.7995 114.6 80.3662 114.667 80.0195 114.8C79.6862 114.933 79.4262 115.113 79.2395 115.34C79.0529 115.553 78.9262 115.787 78.8595 116.04C78.7929 116.28 78.7595 116.507 78.7595 116.72C78.7595 116.92 78.7062 117.08 78.5995 117.2C78.5062 117.307 78.3462 117.36 78.1195 117.36C77.9329 117.36 77.7929 117.34 77.6995 117.3C77.6062 117.26 77.5395 117.18 77.4995 117.06C77.4595 116.94 77.4395 116.787 77.4395 116.6C77.4395 116.32 77.4929 116 77.5995 115.64C77.7195 115.28 77.9195 114.927 78.1995 114.58C78.4929 114.233 78.8929 113.947 79.3995 113.72C79.9062 113.493 80.5595 113.38 81.3595 113.38C82.0795 113.38 82.7129 113.493 83.2595 113.72C83.8062 113.947 84.2329 114.32 84.5395 114.84C84.8595 115.347 85.0195 116.033 85.0195 116.9C85.0195 117.807 84.8595 118.54 84.5395 119.1C84.2329 119.66 83.8462 120.053 83.3795 120.28C83.9662 120.52 84.4529 120.9 84.8395 121.42C85.2262 121.94 85.4195 122.64 85.4195 123.52V123.9C85.4195 124.927 85.2329 125.747 84.8595 126.36C84.4862 126.973 83.9795 127.42 83.3395 127.7C82.7129 127.98 82.0129 128.12 81.2395 128.12ZM19.0316 159C18.8582 159 18.7049 158.96 18.5716 158.88C18.4382 158.787 18.3716 158.653 18.3716 158.48V145.02C18.3716 144.78 18.4382 144.613 18.5716 144.52C18.7049 144.427 18.8582 144.38 19.0316 144.38C19.1916 144.38 19.3316 144.427 19.4516 144.52C19.5849 144.6 19.7049 144.713 19.8116 144.86C19.9182 144.993 20.0116 145.147 20.0916 145.32L23.5316 151.94L26.9516 145.32C27.0582 145.147 27.1582 144.993 27.2516 144.86C27.3582 144.713 27.4782 144.6 27.6116 144.52C27.7449 144.427 27.8849 144.38 28.0316 144.38C28.2182 144.38 28.3716 144.427 28.4916 144.52C28.6249 144.613 28.6916 144.78 28.6916 145.02V158.48C28.6916 158.653 28.6249 158.787 28.4916 158.88C28.3582 158.96 28.2049 159 28.0316 159C27.8716 159 27.7182 158.96 27.5716 158.88C27.4382 158.787 27.3716 158.653 27.3716 158.48V147.24L24.0516 153.52C23.9716 153.68 23.8849 153.793 23.7916 153.86C23.6982 153.927 23.6049 153.96 23.5116 153.96C23.4316 153.96 23.3449 153.927 23.2516 153.86C23.1582 153.793 23.0649 153.68 22.9716 153.52L19.6916 147.2V158.48C19.6916 158.653 19.6182 158.787 19.4716 158.88C19.3382 158.96 19.1916 159 19.0316 159ZM34.8128 159.14C34.1328 159.14 33.5061 158.967 32.9328 158.62C32.3595 158.26 31.8928 157.793 31.5328 157.22C31.1861 156.633 31.0128 156.007 31.0128 155.34V153.18C31.0128 152.5 31.1795 151.88 31.5128 151.32C31.8595 150.747 32.3195 150.287 32.8928 149.94C33.4795 149.593 34.1195 149.42 34.8128 149.42C35.4928 149.42 36.1195 149.593 36.6928 149.94C37.2795 150.273 37.7461 150.72 38.0928 151.28C38.4395 151.84 38.6128 152.473 38.6128 153.18V155.34C38.6128 155.993 38.4395 156.613 38.0928 157.2C37.7461 157.787 37.2795 158.26 36.6928 158.62C36.1195 158.967 35.4928 159.14 34.8128 159.14ZM34.8128 157.94C35.2795 157.94 35.6995 157.82 36.0728 157.58C36.4461 157.327 36.7461 157 36.9728 156.6C37.1995 156.2 37.3128 155.78 37.3128 155.34V153.18C37.3128 152.74 37.1995 152.327 36.9728 151.94C36.7595 151.553 36.4595 151.24 36.0728 151C35.6995 150.747 35.2795 150.62 34.8128 150.62C34.3461 150.62 33.9261 150.747 33.5528 151C33.1795 151.24 32.8795 151.553 32.6528 151.94C32.4261 152.327 32.3128 152.74 32.3128 153.18V155.34C32.3128 155.78 32.4261 156.2 32.6528 156.6C32.8795 157 33.1795 157.327 33.5528 157.58C33.9395 157.82 34.3595 157.94 34.8128 157.94ZM43.9278 159.14C43.3145 159.14 42.7345 158.967 42.1878 158.62C41.6411 158.26 41.2011 157.787 40.8678 157.2C40.5478 156.613 40.3878 155.993 40.3878 155.34V153.18C40.3878 152.487 40.5478 151.86 40.8678 151.3C41.2011 150.727 41.6411 150.273 42.1878 149.94C42.7345 149.593 43.3345 149.42 43.9878 149.42C44.6411 149.42 45.1878 149.58 45.6278 149.9C46.0811 150.207 46.4145 150.553 46.6278 150.94V144.24C46.6278 144.08 46.6945 143.96 46.8278 143.88C46.9611 143.787 47.1145 143.74 47.2878 143.74C47.4878 143.74 47.6411 143.787 47.7478 143.88C47.8678 143.96 47.9278 144.08 47.9278 144.24V158.48C47.9278 158.613 47.8678 158.733 47.7478 158.84C47.6411 158.947 47.4878 159 47.2878 159C47.1278 159 46.9811 158.947 46.8478 158.84C46.7278 158.733 46.6678 158.613 46.6678 158.48V157.6C46.4678 158.013 46.1145 158.373 45.6078 158.68C45.1145 158.987 44.5545 159.14 43.9278 159.14ZM44.1678 157.94C44.6478 157.94 45.0678 157.82 45.4278 157.58C45.8011 157.327 46.0945 157.047 46.3078 156.74C46.5211 156.42 46.6278 156.16 46.6278 155.96V153.18C46.6278 152.633 46.5078 152.173 46.2678 151.8C46.0278 151.427 45.7211 151.14 45.3478 150.94C44.9745 150.727 44.5878 150.62 44.1878 150.62C43.7345 150.62 43.3211 150.747 42.9478 151C42.5745 151.24 42.2745 151.553 42.0478 151.94C41.8211 152.327 41.7078 152.74 41.7078 153.18V155.34C41.7078 155.78 41.8211 156.2 42.0478 156.6C42.2745 157 42.5745 157.327 42.9478 157.58C43.3211 157.82 43.7278 157.94 44.1678 157.94ZM54.1753 159.14C53.4686 159.14 52.822 158.967 52.2353 158.62C51.662 158.273 51.202 157.813 50.8553 157.24C50.522 156.653 50.3553 156.033 50.3553 155.38V150.06C50.3553 149.927 50.422 149.807 50.5553 149.7C50.6886 149.593 50.842 149.54 51.0153 149.54C51.1886 149.54 51.3353 149.593 51.4553 149.7C51.5886 149.807 51.6553 149.927 51.6553 150.06V155.38C51.6553 155.82 51.7686 156.233 51.9953 156.62C52.222 157.007 52.522 157.327 52.8953 157.58C53.2686 157.82 53.6886 157.94 54.1553 157.94C54.6353 157.94 55.062 157.82 55.4353 157.58C55.8086 157.34 56.102 157.027 56.3153 156.64C56.542 156.24 56.6553 155.82 56.6553 155.38V150.04C56.6553 149.893 56.722 149.773 56.8553 149.68C56.9886 149.587 57.142 149.54 57.3153 149.54C57.5153 149.54 57.6686 149.587 57.7753 149.68C57.8953 149.773 57.9553 149.893 57.9553 150.04V155.38C57.9553 156.06 57.782 156.687 57.4353 157.26C57.102 157.82 56.642 158.273 56.0553 158.62C55.482 158.967 54.8553 159.14 54.1753 159.14ZM61.1772 159C61.0039 159 60.8505 158.947 60.7172 158.84C60.5972 158.733 60.5372 158.613 60.5372 158.48V144.24C60.5372 144.08 60.5972 143.96 60.7172 143.88C60.8505 143.787 61.0039 143.74 61.1772 143.74C61.3639 143.74 61.5172 143.787 61.6372 143.88C61.7705 143.96 61.8372 144.08 61.8372 144.24V158.48C61.8372 158.613 61.7705 158.733 61.6372 158.84C61.5172 158.947 61.3639 159 61.1772 159ZM67.9573 159.14C67.2773 159.14 66.6507 158.967 66.0773 158.62C65.504 158.26 65.0373 157.793 64.6773 157.22C64.3307 156.633 64.1573 156.007 64.1573 155.34V153.18C64.1573 152.5 64.324 151.88 64.6573 151.32C65.004 150.747 65.464 150.287 66.0373 149.94C66.624 149.593 67.264 149.42 67.9573 149.42C68.6373 149.42 69.264 149.593 69.8373 149.94C70.424 150.273 70.8907 150.72 71.2373 151.28C71.584 151.84 71.7573 152.473 71.7573 153.18V155.34C71.7573 155.993 71.584 156.613 71.2373 157.2C70.8907 157.787 70.424 158.26 69.8373 158.62C69.264 158.967 68.6373 159.14 67.9573 159.14ZM67.9573 157.94C68.424 157.94 68.844 157.82 69.2173 157.58C69.5907 157.327 69.8907 157 70.1173 156.6C70.344 156.2 70.4573 155.78 70.4573 155.34V153.18C70.4573 152.74 70.344 152.327 70.1173 151.94C69.904 151.553 69.604 151.24 69.2173 151C68.844 150.747 68.424 150.62 67.9573 150.62C67.4907 150.62 67.0707 150.747 66.6973 151C66.324 151.24 66.024 151.553 65.7973 151.94C65.5707 152.327 65.4573 152.74 65.4573 153.18V155.34C65.4573 155.78 65.5707 156.2 65.7973 156.6C66.024 157 66.324 157.327 66.6973 157.58C67.084 157.82 67.504 157.94 67.9573 157.94ZM77.9563 159C77.8229 159 77.6829 158.953 77.5363 158.86C77.4029 158.767 77.3363 158.64 77.3363 158.48V156.54C77.3363 155.993 77.4963 155.487 77.8163 155.02C78.1496 154.553 78.5696 154.113 79.0763 153.7C79.5829 153.287 80.1229 152.88 80.6963 152.48C81.2829 152.08 81.8296 151.667 82.3363 151.24C82.8563 150.8 83.2763 150.34 83.5963 149.86C83.9296 149.38 84.0963 148.847 84.0963 148.26C84.0963 147.833 83.9963 147.42 83.7963 147.02C83.5963 146.62 83.2963 146.287 82.8963 146.02C82.5096 145.753 82.0096 145.62 81.3963 145.62C80.7163 145.62 80.1429 145.82 79.6763 146.22C79.2096 146.607 78.9763 147.193 78.9763 147.98C78.9763 148.113 78.9163 148.24 78.7963 148.36C78.6763 148.467 78.5029 148.52 78.2763 148.52C78.0762 148.52 77.9229 148.46 77.8163 148.34C77.7229 148.22 77.6763 148.007 77.6763 147.7C77.6763 147.06 77.8429 146.493 78.1763 146C78.5096 145.493 78.9563 145.1 79.5163 144.82C80.0896 144.527 80.7296 144.38 81.4363 144.38C82.2096 144.38 82.8896 144.553 83.4763 144.9C84.0763 145.233 84.5496 145.693 84.8963 146.28C85.2429 146.853 85.4163 147.5 85.4163 148.22C85.4163 148.927 85.2496 149.567 84.9163 150.14C84.5963 150.713 84.1829 151.233 83.6763 151.7C83.1696 152.167 82.6296 152.6 82.0563 153C81.4829 153.4 80.9429 153.787 80.4363 154.16C79.9296 154.533 79.5096 154.913 79.1763 155.3C78.8563 155.687 78.6963 156.1 78.6963 156.54V157.78H85.0763C85.2096 157.78 85.3229 157.84 85.4163 157.96C85.5096 158.067 85.5563 158.207 85.5563 158.38C85.5563 158.54 85.5096 158.687 85.4163 158.82C85.3229 158.94 85.2096 159 85.0763 159H77.9563ZM21.4339 190C21.2606 190 21.1072 189.96 20.9739 189.88C20.8406 189.787 20.7739 189.653 20.7739 189.48V176.02C20.7739 175.78 20.8406 175.613 20.9739 175.52C21.1072 175.427 21.2606 175.38 21.4339 175.38C21.5939 175.38 21.7339 175.427 21.8539 175.52C21.9872 175.6 22.1072 175.713 22.2139 175.86C22.3206 175.993 22.4139 176.147 22.4939 176.32L25.9339 182.94L29.3539 176.32C29.4606 176.147 29.5606 175.993 29.6539 175.86C29.7606 175.713 29.8806 175.6 30.0139 175.52C30.1472 175.427 30.2872 175.38 30.4339 175.38C30.6206 175.38 30.7739 175.427 30.8939 175.52C31.0272 175.613 31.0939 175.78 31.0939 176.02V189.48C31.0939 189.653 31.0272 189.787 30.8939 189.88C30.7606 189.96 30.6072 190 30.4339 190C30.2739 190 30.1206 189.96 29.9739 189.88C29.8406 189.787 29.7739 189.653 29.7739 189.48V178.24L26.4539 184.52C26.3739 184.68 26.2872 184.793 26.1939 184.86C26.1006 184.927 26.0072 184.96 25.9139 184.96C25.8339 184.96 25.7472 184.927 25.6539 184.86C25.5606 184.793 25.4672 184.68 25.3739 184.52L22.0939 178.2V189.48C22.0939 189.653 22.0206 189.787 21.8739 189.88C21.7406 189.96 21.5939 190 21.4339 190ZM37.2152 190.14C36.5352 190.14 35.9085 189.967 35.3352 189.62C34.7618 189.26 34.2952 188.793 33.9352 188.22C33.5885 187.633 33.4152 187.007 33.4152 186.34V184.18C33.4152 183.5 33.5818 182.88 33.9152 182.32C34.2618 181.747 34.7218 181.287 35.2952 180.94C35.8818 180.593 36.5218 180.42 37.2152 180.42C37.8952 180.42 38.5218 180.593 39.0952 180.94C39.6818 181.273 40.1485 181.72 40.4952 182.28C40.8418 182.84 41.0152 183.473 41.0152 184.18V186.34C41.0152 186.993 40.8418 187.613 40.4952 188.2C40.1485 188.787 39.6818 189.26 39.0952 189.62C38.5218 189.967 37.8952 190.14 37.2152 190.14ZM37.2152 188.94C37.6818 188.94 38.1018 188.82 38.4752 188.58C38.8485 188.327 39.1485 188 39.3752 187.6C39.6018 187.2 39.7152 186.78 39.7152 186.34V184.18C39.7152 183.74 39.6018 183.327 39.3752 182.94C39.1618 182.553 38.8618 182.24 38.4752 182C38.1018 181.747 37.6818 181.62 37.2152 181.62C36.7485 181.62 36.3285 181.747 35.9552 182C35.5818 182.24 35.2818 182.553 35.0552 182.94C34.8285 183.327 34.7152 183.74 34.7152 184.18V186.34C34.7152 186.78 34.8285 187.2 35.0552 187.6C35.2818 188 35.5818 188.327 35.9552 188.58C36.3418 188.82 36.7618 188.94 37.2152 188.94ZM46.3302 190.14C45.7168 190.14 45.1368 189.967 44.5902 189.62C44.0435 189.26 43.6035 188.787 43.2702 188.2C42.9502 187.613 42.7902 186.993 42.7902 186.34V184.18C42.7902 183.487 42.9502 182.86 43.2702 182.3C43.6035 181.727 44.0435 181.273 44.5902 180.94C45.1368 180.593 45.7368 180.42 46.3902 180.42C47.0435 180.42 47.5902 180.58 48.0302 180.9C48.4835 181.207 48.8168 181.553 49.0302 181.94V175.24C49.0302 175.08 49.0968 174.96 49.2302 174.88C49.3635 174.787 49.5168 174.74 49.6902 174.74C49.8902 174.74 50.0435 174.787 50.1502 174.88C50.2702 174.96 50.3302 175.08 50.3302 175.24V189.48C50.3302 189.613 50.2702 189.733 50.1502 189.84C50.0435 189.947 49.8902 190 49.6902 190C49.5302 190 49.3835 189.947 49.2502 189.84C49.1302 189.733 49.0702 189.613 49.0702 189.48V188.6C48.8702 189.013 48.5168 189.373 48.0102 189.68C47.5168 189.987 46.9568 190.14 46.3302 190.14ZM46.5702 188.94C47.0502 188.94 47.4702 188.82 47.8302 188.58C48.2035 188.327 48.4968 188.047 48.7102 187.74C48.9235 187.42 49.0302 187.16 49.0302 186.96V184.18C49.0302 183.633 48.9102 183.173 48.6702 182.8C48.4302 182.427 48.1235 182.14 47.7502 181.94C47.3768 181.727 46.9902 181.62 46.5902 181.62C46.1368 181.62 45.7235 181.747 45.3502 182C44.9768 182.24 44.6768 182.553 44.4502 182.94C44.2235 183.327 44.1102 183.74 44.1102 184.18V186.34C44.1102 186.78 44.2235 187.2 44.4502 187.6C44.6768 188 44.9768 188.327 45.3502 188.58C45.7235 188.82 46.1302 188.94 46.5702 188.94ZM56.5777 190.14C55.871 190.14 55.2243 189.967 54.6377 189.62C54.0643 189.273 53.6043 188.813 53.2577 188.24C52.9243 187.653 52.7577 187.033 52.7577 186.38V181.06C52.7577 180.927 52.8243 180.807 52.9577 180.7C53.091 180.593 53.2443 180.54 53.4177 180.54C53.591 180.54 53.7377 180.593 53.8577 180.7C53.991 180.807 54.0577 180.927 54.0577 181.06V186.38C54.0577 186.82 54.171 187.233 54.3977 187.62C54.6243 188.007 54.9243 188.327 55.2977 188.58C55.671 188.82 56.091 188.94 56.5577 188.94C57.0377 188.94 57.4643 188.82 57.8377 188.58C58.211 188.34 58.5043 188.027 58.7177 187.64C58.9443 187.24 59.0577 186.82 59.0577 186.38V181.04C59.0577 180.893 59.1243 180.773 59.2577 180.68C59.391 180.587 59.5443 180.54 59.7177 180.54C59.9177 180.54 60.071 180.587 60.1777 180.68C60.2977 180.773 60.3577 180.893 60.3577 181.04V186.38C60.3577 187.06 60.1843 187.687 59.8377 188.26C59.5043 188.82 59.0443 189.273 58.4577 189.62C57.8843 189.967 57.2577 190.14 56.5777 190.14ZM63.5795 190C63.4062 190 63.2529 189.947 63.1195 189.84C62.9995 189.733 62.9395 189.613 62.9395 189.48V175.24C62.9395 175.08 62.9995 174.96 63.1195 174.88C63.2529 174.787 63.4062 174.74 63.5795 174.74C63.7662 174.74 63.9195 174.787 64.0395 174.88C64.1729 174.96 64.2395 175.08 64.2395 175.24V189.48C64.2395 189.613 64.1729 189.733 64.0395 189.84C63.9195 189.947 63.7662 190 63.5795 190ZM70.3597 190.14C69.6797 190.14 69.053 189.967 68.4797 189.62C67.9064 189.26 67.4397 188.793 67.0797 188.22C66.733 187.633 66.5597 187.007 66.5597 186.34V184.18C66.5597 183.5 66.7264 182.88 67.0597 182.32C67.4064 181.747 67.8664 181.287 68.4397 180.94C69.0264 180.593 69.6664 180.42 70.3597 180.42C71.0397 180.42 71.6664 180.593 72.2397 180.94C72.8264 181.273 73.293 181.72 73.6397 182.28C73.9864 182.84 74.1597 183.473 74.1597 184.18V186.34C74.1597 186.993 73.9864 187.613 73.6397 188.2C73.293 188.787 72.8264 189.26 72.2397 189.62C71.6664 189.967 71.0397 190.14 70.3597 190.14ZM70.3597 188.94C70.8264 188.94 71.2464 188.82 71.6197 188.58C71.993 188.327 72.293 188 72.5197 187.6C72.7464 187.2 72.8597 186.78 72.8597 186.34V184.18C72.8597 183.74 72.7464 183.327 72.5197 182.94C72.3064 182.553 72.0064 182.24 71.6197 182C71.2464 181.747 70.8264 181.62 70.3597 181.62C69.893 181.62 69.473 181.747 69.0997 182C68.7264 182.24 68.4264 182.553 68.1997 182.94C67.973 183.327 67.8597 183.74 67.8597 184.18V186.34C67.8597 186.78 67.973 187.2 68.1997 187.6C68.4264 188 68.7264 188.327 69.0997 188.58C69.4864 188.82 69.9064 188.94 70.3597 188.94ZM81.6986 190C81.5253 190 81.3719 189.96 81.2386 189.88C81.1053 189.787 81.0386 189.653 81.0386 189.48V177.64L80.2386 178.92C80.1853 179 80.1253 179.06 80.0586 179.1C79.9919 179.14 79.9253 179.16 79.8586 179.16C79.7119 179.16 79.5853 179.1 79.4786 178.98C79.3853 178.86 79.3386 178.727 79.3386 178.58C79.3386 178.487 79.3719 178.38 79.4386 178.26C79.5053 178.127 79.5653 178.033 79.6186 177.98L81.2786 175.66C81.3453 175.58 81.4119 175.513 81.4786 175.46C81.5453 175.393 81.6453 175.36 81.7786 175.36C81.9253 175.36 82.0586 175.407 82.1786 175.5C82.2986 175.58 82.3586 175.707 82.3586 175.88V189.48C82.3586 189.653 82.2853 189.787 82.1386 189.88C82.0053 189.96 81.8586 190 81.6986 190Z" fill="#F5F5F5"/>
<ellipse cx="122.5" cy="215" rx="16.5" ry="7" fill="#533A0A"/>
<path d="M104.5 210.5H140.5V234C140.5 243.113 133.113 250.5 124 250.5H121C111.887 250.5 104.5 243.113 104.5 234V210.5Z" fill="#69BF97" stroke="#009458"/>
<rect x="102.5" y="210.5" width="40" height="5" fill="#69BF97" stroke="#009458"/>
<ellipse cx="172.5" cy="215" rx="16.5" ry="7" fill="#533A0A"/>
<path d="M154.5 210.5H190.5V234C190.5 243.113 183.113 250.5 174 250.5H171C161.887 250.5 154.5 243.113 154.5 234V210.5Z" fill="#69BF97" stroke="#009458"/>
<rect x="152.5" y="210.5" width="40" height="5" fill="#69BF97" stroke="#009458"/>
<ellipse cx="221.5" cy="215" rx="16.5" ry="7" fill="#533A0A"/>
<path d="M203.5 210.5H239.5V234C239.5 243.113 232.113 250.5 223 250.5H220C210.887 250.5 203.5 243.113 203.5 234V210.5Z" fill="#69BF97" stroke="#009458"/>
<rect x="201.5" y="210.5" width="40" height="5" fill="#69BF97" stroke="#009458"/>
<ellipse cx="269.5" cy="215" rx="16.5" ry="7" fill="#533A0A"/>
<path d="M251.5 210.5H287.5V234C287.5 243.113 280.113 250.5 271 250.5H268C258.887 250.5 251.5 243.113 251.5 234V210.5Z" fill="#69BF97" stroke="#009458"/>
<rect x="249.5" y="210.5" width="40" height="5" fill="#69BF97" stroke="#009458"/>
<ellipse cx="313.5" cy="215" rx="16.5" ry="7" fill="#533A0A"/>
<path d="M295.5 210.5H331.5V234C331.5 243.113 324.113 250.5 315 250.5H312C302.887 250.5 295.5 243.113 295.5 234V210.5Z" fill="#69BF97" stroke="#009458"/>
<rect x="293.5" y="210.5" width="40" height="5" fill="#69BF97" stroke="#009458"/>
<ellipse cx="356.5" cy="215" rx="16.5" ry="7" fill="#533A0A"/>
<path d="M338.5 210.5H374.5V234C374.5 243.113 367.113 250.5 358 250.5H355C345.887 250.5 338.5 243.113 338.5 234V210.5Z" fill="#69BF97" stroke="#009458"/>
<rect x="336.5" y="210.5" width="40" height="5" fill="#69BF97" stroke="#009458"/>
<path d="M122.662 247C130.581 247 137 240.575 137 232.649C137 224.723 130.581 218.298 122.662 218.298C114.743 218.298 108.324 224.723 108.324 232.649C108.324 240.575 114.743 247 122.662 247Z" fill="#FCEA2B"/>
<path d="M131.76 236.168C131.768 237.129 131.584 238.081 131.218 238.97C123.432 240.86 115.365 239.182 114.081 238.889C113.733 238.024 113.557 237.1 113.564 236.168H113.632C113.632 236.168 122.858 238.408 131.642 236.212L131.76 236.168Z" fill="white"/>
<path d="M131.218 238.97C130.102 241.634 127.26 243.481 122.684 243.481C118.065 243.481 115.185 241.59 114.081 238.889C115.365 239.182 123.432 240.86 131.218 238.97Z" fill="white"/>
<path d="M122.338 246.702C130.257 246.702 136.676 240.277 136.676 232.351C136.676 224.425 130.257 218 122.338 218C114.419 218 108 224.425 108 232.351C108 240.277 114.419 246.702 122.338 246.702Z" stroke="black" stroke-width="2" stroke-linecap="round" stroke-linejoin="round"/>
<path d="M131.436 235.87C131.444 236.831 131.259 237.783 130.894 238.671C123.108 240.562 115.041 238.884 113.757 238.59C113.409 237.726 113.233 236.802 113.24 235.87H113.308C113.308 235.87 122.534 238.11 131.318 235.914L131.436 235.87Z" stroke="black" stroke-width="2" stroke-linecap="round" stroke-linejoin="round"/>
<path d="M130.894 238.671C129.778 241.336 126.935 243.183 122.36 243.183C117.74 243.183 114.86 241.292 113.757 238.59C115.041 238.884 123.108 240.562 130.894 238.671Z" stroke="black" stroke-width="2" stroke-linecap="round" stroke-linejoin="round"/>
<path d="M119.654 230.107C119.422 229.585 119.045 229.143 118.567 228.832C118.089 228.521 117.531 228.355 116.961 228.355C116.391 228.355 115.833 228.521 115.356 228.832C114.878 229.143 114.5 229.585 114.269 230.107" stroke="black" stroke-width="2" stroke-miterlimit="10" stroke-linecap="round"/>
<path d="M130.407 230.107C130.176 229.585 129.798 229.143 129.32 228.832C128.842 228.521 128.285 228.355 127.715 228.355C127.145 228.355 126.587 228.521 126.109 228.832C125.631 229.143 125.254 229.585 125.022 230.107" stroke="black" stroke-width="2" stroke-miterlimit="10" stroke-linecap="round"/>
<path d="M356.5 218C348.505 218 342 224.505 342 232.5C342 240.495 348.505 247 356.5 247C364.495 247 371 240.495 371 232.5C371 224.505 364.495 218 356.5 218Z" fill="#E27022"/>
<path d="M356.5 247C364.508 247 371 240.508 371 232.5C371 224.492 364.508 218 356.5 218C348.492 218 342 224.492 342 232.5C342 240.508 348.492 247 356.5 247Z" stroke="black" stroke-width="2" stroke-miterlimit="10"/>
<path d="M351.457 238.804C352.453 237.192 354.548 236.198 356.765 236.28C358.801 236.356 360.637 237.329 361.543 238.804" stroke="black" stroke-width="2" stroke-miterlimit="10" stroke-linecap="round" stroke-linejoin="round"/>
<path d="M352.717 230.562C352.717 231.606 351.87 232.453 350.826 232.453C349.783 232.453 348.935 231.606 348.935 230.562C348.935 229.518 349.783 228.67 350.826 228.67C351.87 228.67 352.717 229.518 352.717 230.562Z" fill="black"/>
<path d="M364.065 230.562C364.065 231.606 363.217 232.453 362.174 232.453C361.13 232.453 360.283 231.606 360.283 230.562C360.283 229.518 361.13 228.67 362.174 228.67C363.217 228.67 364.065 229.518 364.065 230.562Z" fill="black"/>
<path d="M348.304 224.935L352.717 227.457" stroke="black" stroke-width="2" stroke-miterlimit="10" stroke-linecap="round" stroke-linejoin="round"/>
<path d="M364.696 224.935L360.283 227.457" stroke="black" stroke-width="2" stroke-miterlimit="10" stroke-linecap="round" stroke-linejoin="round"/>
<path d="M172.5 247C180.508 247 187 240.508 187 232.5C187 224.492 180.508 218 172.5 218C164.492 218 158 224.492 158 232.5C158 240.508 164.492 247 172.5 247Z" fill="#FCEA2B"/>
<path d="M166.51 227.102C165.713 224.988 162.45 224.853 162.654 227.933C162.681 228.342 162.831 228.735 163.058 229.077L166.411 233.125L169.703 229.175C170.068 228.736 170.284 228.18 170.273 227.608C170.219 224.864 167.089 225.064 166.41 227.102" fill="#D22F27"/>
<path d="M178.679 227.102C177.888 224.988 174.652 224.853 174.855 227.933C174.882 228.342 175.031 228.735 175.256 229.077L178.581 233.125L181.845 229.175C182.207 228.736 182.422 228.18 182.411 227.608C182.357 224.864 179.253 225.064 178.58 227.102" fill="#D22F27"/>
<path d="M180.435 236.707C180.435 240.256 177.8 243.077 172.52 243.077C167.241 243.077 164.572 240.248 164.572 236.707C164.572 236.707 172.784 238.618 180.435 236.707Z" fill="white"/>
<path d="M172.5 247C180.508 247 187 240.508 187 232.5C187 224.492 180.508 218 172.5 218C164.492 218 158 224.492 158 232.5C158 240.508 164.492 247 172.5 247Z" stroke="black" stroke-width="2" stroke-miterlimit="10" stroke-linecap="round" stroke-linejoin="round"/>
<path d="M180.435 236.707C180.435 240.256 177.8 243.077 172.52 243.077C167.241 243.077 164.572 240.248 164.572 236.707C164.572 236.707 172.784 238.618 180.435 236.707Z" stroke="black" stroke-width="2" stroke-miterlimit="10" stroke-linecap="round" stroke-linejoin="round"/>
<path d="M166.51 227.102C165.713 224.988 162.45 224.853 162.654 227.933C162.681 228.342 162.831 228.735 163.058 229.077L166.411 233.125L169.703 229.175C170.068 228.736 170.284 228.18 170.273 227.608C170.219 224.864 167.089 225.064 166.41 227.102" stroke="black" stroke-width="2" stroke-miterlimit="10" stroke-linecap="round" stroke-linejoin="round"/>
<path d="M178.679 227.102C177.888 224.988 174.652 224.853 174.855 227.933C174.882 228.342 175.031 228.735 175.256 229.077L178.581 233.125L181.845 229.175C182.207 228.736 182.422 228.18 182.411 227.608C182.357 224.864 179.253 225.064 178.58 227.102" stroke="black" stroke-width="2" stroke-miterlimit="10" stroke-linecap="round" stroke-linejoin="round"/>
<path d="M313.5 218C305.505 218 299 224.505 299 232.5C299 240.495 305.505 247 313.5 247C321.495 247 328 240.495 328 232.5C328 224.505 321.495 218 313.5 218Z" fill="#FCEA2B"/>
<path d="M313.5 247C321.508 247 328 240.508 328 232.5C328 224.492 321.508 218 313.5 218C305.492 218 299 224.492 299 232.5C299 240.508 305.492 247 313.5 247Z" stroke="black" stroke-width="2" stroke-miterlimit="10"/>
<path d="M307.826 238.804H319.174" stroke="black" stroke-width="2" stroke-miterlimit="10" stroke-linecap="round" stroke-linejoin="round"/>
<path d="M305.304 230.657C305.565 230.874 306.72 231.787 308.399 231.689C309.761 231.61 310.675 230.912 310.978 230.657" stroke="black" stroke-width="2" stroke-miterlimit="10" stroke-linecap="round" stroke-linejoin="round"/>
<path d="M316.652 230.657C316.913 230.874 318.068 231.787 319.747 231.689C321.109 231.61 322.023 230.912 322.326 230.657" stroke="black" stroke-width="2" stroke-miterlimit="10" stroke-linecap="round" stroke-linejoin="round"/>
<path d="M303.374 226.984C303.681 227.127 305.031 227.716 306.63 227.194C307.927 226.77 308.633 225.862 308.861 225.539" stroke="black" stroke-width="2" stroke-miterlimit="10" stroke-linecap="round" stroke-linejoin="round"/>
<path d="M323.992 226.984C323.685 227.127 322.335 227.716 320.736 227.194C319.439 226.77 318.733 225.862 318.505 225.539" stroke="black" stroke-width="2" stroke-miterlimit="10" stroke-linecap="round" stroke-linejoin="round"/>
<path d="M221.5 247C229.508 247 236 240.508 236 232.5C236 224.492 229.508 218 221.5 218C213.492 218 207 224.492 207 232.5C207 240.508 213.492 247 221.5 247Z" fill="#FCEA2B"/>
<path d="M221.5 244.436C223.326 244.436 224.807 242.591 224.807 240.314C224.807 238.038 223.326 236.192 221.5 236.192C219.674 236.192 218.193 238.038 218.193 240.314C218.193 242.591 219.674 244.436 221.5 244.436Z" fill="white"/>
<path d="M221.5 247C229.508 247 236 240.508 236 232.5C236 224.492 229.508 218 221.5 218C213.492 218 207 224.492 207 232.5C207 240.508 213.492 247 221.5 247Z" stroke="black" stroke-width="2" stroke-miterlimit="10" stroke-linecap="round" stroke-linejoin="round"/>
<path d="M211.851 226.952C212.305 226.079 213.066 225.405 213.989 225.061C214.875 224.62 215.893 224.526 216.845 224.796" stroke="black" stroke-width="2" stroke-miterlimit="10" stroke-linecap="round" stroke-linejoin="round"/>
<path d="M231.149 226.952C230.152 225.204 228.121 224.323 226.163 224.79" stroke="black" stroke-width="2" stroke-miterlimit="10" stroke-linecap="round" stroke-linejoin="round"/>
<path d="M221.5 244.436C223.326 244.436 224.807 242.591 224.807 240.314C224.807 238.038 223.326 236.192 221.5 236.192C219.674 236.192 218.193 238.038 218.193 240.314C218.193 242.591 219.674 244.436 221.5 244.436Z" stroke="black" stroke-width="2" stroke-miterlimit="10" stroke-linecap="round" stroke-linejoin="round"/>
<path d="M217.717 231.87C217.717 232.914 216.87 233.761 215.826 233.761C214.783 233.761 213.935 232.914 213.935 231.87C213.935 230.826 214.783 229.978 215.826 229.978C216.87 229.978 217.717 230.826 217.717 231.87Z" fill="black"/>
<path d="M229.065 231.87C229.065 232.914 228.217 233.761 227.174 233.761C226.13 233.761 225.283 232.914 225.283 231.87C225.283 230.826 226.13 229.978 227.174 229.978C228.217 229.978 229.065 230.826 229.065 231.87Z" fill="black"/>
<path d="M269.5 247C277.508 247 284 240.508 284 232.5C284 224.492 277.508 218 269.5 218C261.492 218 255 224.492 255 232.5C255 240.508 261.492 247 269.5 247Z" fill="#FCEA2B"/>
<path d="M274.885 238.941C274.667 238.73 274.493 238.478 274.374 238.199C274.254 237.92 274.191 237.62 274.188 237.317C274.163 235.287 276.057 233.32 276.138 233.237C276.178 233.196 276.225 233.164 276.278 233.141C276.33 233.119 276.387 233.107 276.444 233.106C276.501 233.105 276.557 233.116 276.61 233.137C276.663 233.158 276.712 233.19 276.753 233.229C276.835 233.31 278.779 235.229 278.805 237.259C278.81 237.716 278.681 238.164 278.432 238.546C278.183 238.929 277.826 239.229 277.406 239.409C276.987 239.589 276.523 239.641 276.075 239.557C275.626 239.474 275.212 239.26 274.885 238.941L274.885 238.941Z" fill="#92D3F5"/>
<path d="M269.5 247C277.508 247 284 240.508 284 232.5C284 224.492 277.508 218 269.5 218C261.492 218 255 224.492 255 232.5C255 240.508 261.492 247 269.5 247Z" stroke="black" stroke-width="2" stroke-linecap="round" stroke-linejoin="round"/>
<path d="M274.639 238.658C272.841 239.458 270.88 239.828 268.913 239.736C266.947 239.644 265.029 239.094 263.312 238.129" stroke="black" stroke-width="2" stroke-linecap="round" stroke-linejoin="round"/>
<path d="M265.717 229.348C265.717 229.722 265.606 230.088 265.399 230.399C265.191 230.71 264.895 230.952 264.55 231.095C264.204 231.238 263.824 231.276 263.457 231.203C263.09 231.13 262.753 230.95 262.489 230.685C262.224 230.421 262.044 230.084 261.971 229.717C261.898 229.35 261.936 228.97 262.079 228.624C262.222 228.278 262.464 227.983 262.775 227.775C263.086 227.567 263.452 227.457 263.826 227.457C264.328 227.457 264.809 227.656 265.163 228.011C265.518 228.365 265.717 228.846 265.717 229.348" fill="black"/>
<path d="M277.065 229.348C277.065 229.722 276.954 230.088 276.746 230.399C276.539 230.71 276.243 230.952 275.898 231.095C275.552 231.238 275.172 231.276 274.805 231.203C274.438 231.13 274.101 230.95 273.837 230.685C273.572 230.421 273.392 230.084 273.319 229.717C273.246 229.35 273.283 228.97 273.427 228.624C273.57 228.278 273.812 227.983 274.123 227.775C274.434 227.567 274.8 227.457 275.174 227.457C275.675 227.457 276.156 227.656 276.511 228.011C276.866 228.365 277.065 228.846 277.065 229.348" fill="black"/>
<path d="M274.885 238.941C274.667 238.73 274.493 238.478 274.374 238.199C274.254 237.92 274.191 237.62 274.188 237.317C274.163 235.287 276.057 233.32 276.138 233.237C276.178 233.196 276.225 233.164 276.278 233.141C276.33 233.119 276.387 233.107 276.444 233.106C276.501 233.105 276.557 233.116 276.61 233.137C276.663 233.158 276.712 233.19 276.753 233.229C276.835 233.31 278.779 235.229 278.805 237.259C278.81 237.716 278.681 238.164 278.432 238.546C278.183 238.929 277.826 239.229 277.406 239.409C276.987 239.589 276.523 239.641 276.075 239.557C275.626 239.474 275.212 239.26 274.885 238.941L274.885 238.941Z" stroke="black" stroke-width="2" stroke-miterlimit="10"/>
</svg>
