<svg xmlns="http://www.w3.org/2000/svg" viewBox="0 0 126.38 117.42"><defs><style>.cls-1{fill:#fff;}.cls-2{fill:none;stroke:#fff;stroke-miterlimit:10;stroke-width:2px;}</style></defs><g id="Capa_2" data-name="Capa 2"><g id="logos"><path class="cls-1" d="M79.78,107.29a44.45,44.45,0,0,0-.58-20.4,32.38,32.38,0,0,0-10.12-16.1A28.42,28.42,0,0,0,61.2,66a20.8,20.8,0,0,0-2.15-.71c-.69-.23-1.55-.43-2.31-.62A41.49,41.49,0,0,0,52,63.88a27.4,27.4,0,0,0-9.06.24c-3.15.61-6.54,1.61-10.15,2.4a42.15,42.15,0,0,1-11.71,1.09,22.2,22.2,0,0,1-12-4.5A24.89,24.89,0,0,1,4.6,58.6a29.36,29.36,0,0,1-1.73-2.5,19.41,19.41,0,0,1-1.49-3A19,19,0,0,1,0,46.71a22.18,22.18,0,0,1,.74-6.25A32.14,32.14,0,0,1,5.89,30a50.39,50.39,0,0,1,7.48-8.19,55.6,55.6,0,0,1,18.45-11A74.39,74.39,0,0,0,16.55,24.89a54.2,54.2,0,0,0-5.66,8.28A28.55,28.55,0,0,0,7.67,42a13.17,13.17,0,0,0,1,8,11.67,11.67,0,0,0,1,1.69c.45.59.88,1.22,1.37,1.76a16.76,16.76,0,0,0,3.08,2.85,13.89,13.89,0,0,0,7.55,2.49,35,35,0,0,0,9.21-1c3.27-.69,6.65-1.65,10.41-2.36a35.18,35.18,0,0,1,11.94,0,48.68,48.68,0,0,1,5.61,1.29c.93.28,1.78.52,2.75.88s1.87.74,2.79,1.16a34.33,34.33,0,0,1,5.14,3A36.54,36.54,0,0,1,74,65.62a35.15,35.15,0,0,1,6.57,9.52,38.11,38.11,0,0,1,2,5.37,39.62,39.62,0,0,1,1.06,5.55A38.21,38.21,0,0,1,79.78,107.29Z"/><path class="cls-2" d="M45.62,1c0,.19-.11.41-.19.67a42.12,42.12,0,0,1-3.09,7,47,47,0,0,1-15.6,18.07,28.45,28.45,0,0,1-11.69,5.07A6.55,6.55,0,0,1,8.77,29.5h0a6.56,6.56,0,0,1-1.09-7.28,28.36,28.36,0,0,1,8-9.91A47.08,47.08,0,0,1,37.25,2.1,41.08,41.08,0,0,1,44.87,1,6.18,6.18,0,0,1,45.62,1Z"/><path class="cls-1" d="M17.79,78.1c.06-.08.14-.19.24-.3a24.22,24.22,0,0,1,3-3,26.06,26.06,0,0,1,11.45-6,14.06,14.06,0,0,1,6.66-.18,3.25,3.25,0,0,1,2.43,2.52h0a4,4,0,0,1-1.13,4,15.89,15.89,0,0,1-6,3.43A23.51,23.51,0,0,1,22,79.28a19.52,19.52,0,0,1-3.84-1Z"/><path class="cls-1" d="M33.36,98.56c0-.11,0-.23,0-.38a24.65,24.65,0,0,1,.06-4.26,26,26,0,0,1,3.81-12.37,14.11,14.11,0,0,1,4.59-4.83,3.24,3.24,0,0,1,3.5.06h0a3.91,3.91,0,0,1,2,3.6,15.6,15.6,0,0,1-1.83,6.68,23.51,23.51,0,0,1-8.28,9.38,19.28,19.28,0,0,1-3.44,2A2.17,2.17,0,0,1,33.36,98.56Z"/><path class="cls-1" d="M52.33,45.67a7.91,7.91,0,0,1-3-.07,3.13,3.13,0,0,1-1.74-1.48,8.23,8.23,0,0,1-.48-5.76c.15-.71.37-1.89,1.13-2.22.48-.2.64.18.69.64a1.37,1.37,0,0,1-.16.76,3.56,3.56,0,0,1-.72,1c-.75.76-1.6,1.41-2.41,2.1a1.27,1.27,0,0,0,0,1.77,1.29,1.29,0,0,0,1.77,0c1.53-1.3,3.62-2.68,4-4.82s-1.21-4.37-3.53-3.88c-2.5.53-3.15,3.47-3.4,5.62a9.5,9.5,0,0,0,1.24,6.48A5.79,5.79,0,0,0,48.48,48a9.08,9.08,0,0,0,3.85.22,1.28,1.28,0,0,0,1.25-1.25,1.27,1.27,0,0,0-1.25-1.25Z"/><path class="cls-1" d="M59,36.94a15.65,15.65,0,0,1-.32,5.24,1.25,1.25,0,0,0,2.41.67,17.2,17.2,0,0,1,1.24-3.09c.19-.37,1-2.11,1.35-2.08.58,0,.94,1.66,1,2.06a29.63,29.63,0,0,1,.68,3.5c.2,1.32,2.06,1,2.41,0,.82-2.44,1.81-5.52,4.41-6.6.3-.13,1-.42,1.33-.19-.07-.05,0,.06,0,.23,0,.37,0,.76,0,1.13a43.32,43.32,0,0,1-.3,5.09,1.26,1.26,0,0,0,1.25,1.25,1.28,1.28,0,0,0,1.25-1.25A33,33,0,0,0,76,36.47c-.16-2-1.92-2.87-3.79-2.45-4,.89-5.67,5.12-6.82,8.56h2.41c-.35-2.31-.83-7.34-4.07-7.4-1.6,0-2.5,1.4-3.21,2.63a20.52,20.52,0,0,0-1.86,4.37l2.41.67a17.56,17.56,0,0,0,.41-5.91,1.29,1.29,0,0,0-1.25-1.25A1.26,1.26,0,0,0,59,36.94Z"/><path class="cls-1" d="M81.28,36l-1.14,5.42a5,5,0,0,0-.09,2.79A2.48,2.48,0,0,0,82.36,46a1.26,1.26,0,0,0,1.25-1.25,1.28,1.28,0,0,0-1.25-1.25c-.24,0,0,0,.15.09l-.09-.08c.07.1.07.09,0,0,.07.23,0-.13,0-.18s0,.05,0-.11,0-.2,0-.3c.07-.5.26-1.26.39-1.85l.9-4.31a1.27,1.27,0,0,0-.88-1.53,1.26,1.26,0,0,0-1.53.87Z"/><path class="cls-1" d="M85.14,29.13,85,29a1,1,0,0,0-.41-.26,1.2,1.2,0,0,0-1,0,.9.9,0,0,0-.4.26l-.2.25a1.3,1.3,0,0,0-.17.64l0,.33a1.23,1.23,0,0,0,.32.55l.17.17a.9.9,0,0,0,.4.26,1.3,1.3,0,0,0,1.37-.26l.19-.25A1.29,1.29,0,0,0,85.5,30l0-.34a1.33,1.33,0,0,0-.32-.55Z"/><path class="cls-1" d="M96.75,17.05c-2.42,6.54-4.84,13.08-6.87,19.75-.91,3-2.32,6.41-2.15,9.58a5.33,5.33,0,0,0,4.55,5.32c1.59.19,1.58-2.31,0-2.5-2.91-.36-2-4.66-1.51-6.41.76-2.87,1.61-5.71,2.53-8.53,1.8-5.57,3.83-11.06,5.86-16.55.56-1.51-1.85-2.16-2.41-.66Z"/><path class="cls-1" d="M108.51,24c-2.87,6.3-5.75,12.6-8.26,19.05-1.16,3-2.74,6.19-3,9.4-.2,2.57,1.17,5.41,3.88,5.94,1.57.31,2.25-2.1.67-2.41-2.91-.57-2-4.26-1.38-6.21.93-2.8,2-5.56,3.11-8.29,2.21-5.48,4.67-10.85,7.12-16.22.67-1.45-1.49-2.72-2.16-1.26Z"/><path class="cls-1" d="M113.68,58.47a7,7,0,0,0-8.45,2,2.93,2.93,0,0,0,.82,4.48,6.23,6.23,0,0,0,5.09,0,12.41,12.41,0,0,0,4.65-3.63l-2.09-1.21a5.85,5.85,0,0,1-1.44,2.1c-.65.8-1.27,1.62-1.85,2.46a36.09,36.09,0,0,0-3,5.3,1.28,1.28,0,0,0,.45,1.71,1.25,1.25,0,0,0,1.71-.45,35.61,35.61,0,0,1,3.14-5.46q.87-1.25,1.86-2.4a6.56,6.56,0,0,0,1.57-2.6c.28-1.14-1.23-2.21-2.09-1.22a10.49,10.49,0,0,1-3.58,3,5,5,0,0,1-2.08.41c-.4,0-1.27-.13-1.38-.48-.07-.2.37-.75.59-1a4.48,4.48,0,0,1,4.85-.94,1.28,1.28,0,0,0,1.71-.45,1.25,1.25,0,0,0-.45-1.71Z"/><path class="cls-1" d="M126.15,66.4a4.39,4.39,0,0,0-6.52-.49c-2.2,1.9-3,5.15-3.64,7.85s-1.32,5.71-3.15,7.95c-1.6,2-4.46,3.21-6.78,1.71-1.36-.87-2.62,1.3-1.27,2.16a7.19,7.19,0,0,0,7.28,0,11.34,11.34,0,0,0,4.8-6c1.1-2.71,1.49-5.63,2.46-8.39a7.32,7.32,0,0,1,2.07-3.5c.67-.52,2-.85,2.59,0,.92,1.3,3.09,0,2.16-1.26Z"/><path class="cls-1" d="M54.52,62.44c-2,5.28-3,11-4.06,16.53C49,86.31,48,94,50.37,101.27c2.23,6.82,7.06,12.43,14,14.67a38.74,38.74,0,0,0,11.13,1.47,71.93,71.93,0,0,0,11.27-.62c6.78-1,13.75-3.66,17.71-9.53,3.07-4.55,4-10.19,4.41-15.55a39.56,39.56,0,0,0-2.69-16.38,56.36,56.36,0,0,0-9.81-17.12,30.7,30.7,0,0,0-15-9.79,45,45,0,0,0-27.11.81,2.55,2.55,0,0,0-1.75,3.07,2.52,2.52,0,0,0,3.07,1.75,40.49,40.49,0,0,1,19.79-1.88C80.53,53,86,54.89,89.81,58.52a46.63,46.63,0,0,1,9.9,14.15,42.77,42.77,0,0,1,4.22,15.1A32.48,32.48,0,0,1,102.08,101a15.17,15.17,0,0,1-3.91,6,19.23,19.23,0,0,1-7.61,3.87c-6.35,1.87-13.52,2-20.06,1.26a18.83,18.83,0,0,1-9-3.11,17.34,17.34,0,0,1-5.27-6.52c-3.3-6.68-2.47-14.44-1.09-21.49,1.13-5.75,2.12-11.74,4.2-17.24A2.51,2.51,0,0,0,57.6,60.7a2.56,2.56,0,0,0-3.08,1.74Z"/></g></g></svg>