<svg width="342" height="69" viewBox="0 0 342 69" fill="none" xmlns="http://www.w3.org/2000/svg">
<rect width="342" height="69" fill="#1E1E1E"/>
<path d="M342 0H0V69H342V0Z" fill="#1E1E1E"/>
<path d="M8.89159 55.4209L324.647 55.4127" stroke="#AE770D" stroke-width="5"/>
<path d="M50.8199 26.0198C60.254 26.0198 67.9018 22.7867 67.9018 18.7984C67.9018 14.8102 60.254 11.5771 50.8199 11.5771C41.3858 11.5771 33.738 14.8102 33.738 18.7984C33.738 22.7867 41.3858 26.0198 50.8199 26.0198Z" fill="#533A0A"/>
<path d="M32.1851 14.1561H69.4547V38.3992C69.4547 47.8004 61.8072 55.4209 52.3728 55.4209H49.267C39.8326 55.4209 32.1851 47.8004 32.1851 38.3992V14.1561Z" fill="#69BF97" stroke="#009458"/>
<path d="M71.5252 14.1561H30.1146V19.3142H71.5252V14.1561Z" fill="#69BF97" stroke="#009458"/>
<path d="M102.583 26.0198C112.017 26.0198 119.665 22.7867 119.665 18.7984C119.665 14.8102 112.017 11.5771 102.583 11.5771C93.1491 11.5771 85.5013 14.8102 85.5013 18.7984C85.5013 22.7867 93.1491 26.0198 102.583 26.0198Z" fill="#533A0A"/>
<path d="M83.9484 14.1561H121.218V38.3992C121.218 47.8004 113.57 55.4209 104.136 55.4209H101.03C91.5959 55.4209 83.9484 47.8004 83.9484 38.3992V14.1561Z" fill="#69BF97" stroke="#009458"/>
<path d="M123.288 14.1561H81.8778V19.3142H123.288V14.1561Z" fill="#69BF97" stroke="#009458"/>
<path d="M153.311 26.0198C162.745 26.0198 170.393 22.7867 170.393 18.7984C170.393 14.8102 162.745 11.5771 153.311 11.5771C143.877 11.5771 136.229 14.8102 136.229 18.7984C136.229 22.7867 143.877 26.0198 153.311 26.0198Z" fill="#533A0A"/>
<path d="M134.676 14.1561H171.946V38.3992C171.946 47.8004 164.298 55.4209 154.864 55.4209H151.758C142.324 55.4209 134.676 47.8004 134.676 38.3992V14.1561Z" fill="#69BF97" stroke="#009458"/>
<path d="M174.016 14.1561H132.606V19.3142H174.016V14.1561Z" fill="#69BF97" stroke="#009458"/>
<path d="M203.004 26.0198C212.438 26.0198 220.086 22.7867 220.086 18.7984C220.086 14.8102 212.438 11.5771 203.004 11.5771C193.57 11.5771 185.922 14.8102 185.922 18.7984C185.922 22.7867 193.57 26.0198 203.004 26.0198Z" fill="#533A0A"/>
<path d="M184.369 14.1561H221.639V38.3992C221.639 47.8004 213.991 55.4209 204.557 55.4209H201.451C192.017 55.4209 184.369 47.8004 184.369 38.3992V14.1561Z" fill="#69BF97" stroke="#009458"/>
<path d="M223.709 14.1561H182.298V19.3142H223.709V14.1561Z" fill="#69BF97" stroke="#009458"/>
<path d="M248.555 26.0198C257.989 26.0198 265.637 22.7867 265.637 18.7984C265.637 14.8102 257.989 11.5771 248.555 11.5771C239.121 11.5771 231.474 14.8102 231.474 18.7984C231.474 22.7867 239.121 26.0198 248.555 26.0198Z" fill="#533A0A"/>
<path d="M229.921 14.1561H267.19V38.3992C267.19 47.8004 259.543 55.4209 250.108 55.4209H247.003C237.568 55.4209 229.921 47.8004 229.921 38.3992V14.1561Z" fill="#69BF97" stroke="#009458"/>
<path d="M269.261 14.1561H227.85V19.3142H269.261V14.1561Z" fill="#69BF97" stroke="#009458"/>
<path d="M293.072 26.0198C302.506 26.0198 310.154 22.7867 310.154 18.7984C310.154 14.8102 302.506 11.5771 293.072 11.5771C283.638 11.5771 275.99 14.8102 275.99 18.7984C275.99 22.7867 283.638 26.0198 293.072 26.0198Z" fill="#533A0A"/>
<path d="M274.437 14.1561H311.707V38.3992C311.707 47.8004 304.059 55.4209 294.625 55.4209H291.519C282.085 55.4209 274.437 47.8004 274.437 38.3992V14.1561Z" fill="#69BF97" stroke="#009458"/>
<path d="M313.777 14.1561H272.366V19.3142H313.777V14.1561Z" fill="#69BF97" stroke="#009458"/>
<path d="M50.9876 51.8103C59.1859 51.8103 65.8312 45.1821 65.8312 37.0055C65.8312 28.8289 59.1859 22.2007 50.9876 22.2007C42.7894 22.2007 36.144 28.8289 36.144 37.0055C36.144 45.1821 42.7894 51.8103 50.9876 51.8103Z" fill="#FCEA2B"/>
<path d="M60.4064 40.6358C60.4147 41.6272 60.2242 42.6093 59.8453 43.5264C51.7848 45.4761 43.4333 43.7451 42.104 43.4428C41.7437 42.5505 41.5615 41.5972 41.5688 40.6358H41.6392C41.6392 40.6358 51.1905 42.9466 60.2843 40.6812L60.4064 40.6358Z" fill="white"/>
<path d="M59.8453 43.5264C58.69 46.2746 55.7478 48.18 51.0104 48.18C46.2285 48.18 43.2469 46.2292 42.104 43.4428C43.4333 43.7451 51.7848 45.4761 59.8453 43.5264Z" fill="white"/>
<path d="M50.6522 51.5028C58.8504 51.5028 65.4958 44.8747 65.4958 36.6981C65.4958 28.5214 58.8504 21.8933 50.6522 21.8933C42.4539 21.8933 35.8086 28.5214 35.8086 36.6981C35.8086 44.8747 42.4539 51.5028 50.6522 51.5028Z" stroke="black" stroke-width="2" stroke-linecap="round" stroke-linejoin="round"/>
<path d="M60.071 40.3283C60.0793 41.3197 59.8878 42.3018 59.5099 43.2179C51.4493 45.1687 43.0979 43.4376 41.7686 43.1343C41.4083 42.243 41.2261 41.2898 41.2333 40.3283H41.3037C41.3037 40.3283 50.8551 42.6392 59.9489 40.3737L60.071 40.3283Z" stroke="black" stroke-width="2" stroke-linecap="round" stroke-linejoin="round"/>
<path d="M59.5099 43.2179C58.3546 45.9672 55.4113 47.8726 50.675 47.8726C45.892 47.8726 42.9105 45.9218 41.7686 43.1343C43.0979 43.4376 51.4493 45.1687 59.5099 43.2179Z" stroke="black" stroke-width="2" stroke-linecap="round" stroke-linejoin="round"/>
<path d="M47.8735 34.3831C47.6334 33.8446 47.2431 33.3886 46.7482 33.0678C46.2534 32.747 45.6757 32.5757 45.0856 32.5757C44.4955 32.5757 43.9178 32.747 43.424 33.0678C42.9291 33.3886 42.5378 33.8446 42.2986 34.3831" stroke="black" stroke-width="2" stroke-miterlimit="10" stroke-linecap="round"/>
<path d="M59.0057 34.3831C58.7666 33.8446 58.3753 33.3886 57.8804 33.0678C57.3856 32.747 56.8089 32.5757 56.2188 32.5757C55.6287 32.5757 55.051 32.747 54.5562 33.0678C54.0613 33.3886 53.671 33.8446 53.4308 34.3831" stroke="black" stroke-width="2" stroke-miterlimit="10" stroke-linecap="round"/>
<path d="M293.072 21.8933C284.795 21.8933 278.06 28.604 278.06 36.8518C278.06 45.0996 284.795 51.8103 293.072 51.8103C301.349 51.8103 308.083 45.0996 308.083 36.8518C308.083 28.604 301.349 21.8933 293.072 21.8933Z" fill="#E27022"/>
<path d="M293.072 51.8103C301.362 51.8103 308.083 45.113 308.083 36.8518C308.083 28.5905 301.362 21.8933 293.072 21.8933C284.781 21.8933 278.06 28.5905 278.06 36.8518C278.06 45.113 284.781 51.8103 293.072 51.8103Z" stroke="black" stroke-width="2" stroke-miterlimit="10"/>
<path d="M287.851 43.3551C288.882 41.6921 291.051 40.6667 293.346 40.7513C295.454 40.8297 297.355 41.8335 298.293 43.3551" stroke="black" stroke-width="2" stroke-miterlimit="10" stroke-linecap="round" stroke-linejoin="round"/>
<path d="M289.155 34.8525C289.155 35.9295 288.279 36.8033 287.198 36.8033C286.118 36.8033 285.24 35.9295 285.24 34.8525C285.24 33.7755 286.118 32.9007 287.198 32.9007C288.279 32.9007 289.155 33.7755 289.155 34.8525Z" fill="black"/>
<path d="M300.904 34.8525C300.904 35.9295 300.026 36.8033 298.946 36.8033C297.865 36.8033 296.988 35.9295 296.988 34.8525C296.988 33.7755 297.865 32.9007 298.946 32.9007C300.026 32.9007 300.904 33.7755 300.904 34.8525Z" fill="black"/>
<path d="M284.587 29.0476L289.155 31.6493" stroke="black" stroke-width="2" stroke-miterlimit="10" stroke-linecap="round" stroke-linejoin="round"/>
<path d="M301.557 29.0476L296.988 31.6493" stroke="black" stroke-width="2" stroke-miterlimit="10" stroke-linecap="round" stroke-linejoin="round"/>
<path d="M102.583 51.8103C110.874 51.8103 117.594 45.113 117.594 36.8518C117.594 28.5905 110.874 21.8933 102.583 21.8933C94.2927 21.8933 87.5718 28.5905 87.5718 36.8518C87.5718 45.113 94.2927 51.8103 102.583 51.8103Z" fill="#FCEA2B"/>
<path d="M96.3819 31.2831C95.5568 29.1022 92.1787 28.963 92.3899 32.1404C92.4179 32.5623 92.5731 32.9677 92.8082 33.3205L96.2794 37.4965L99.6875 33.4216C100.065 32.9688 100.289 32.3952 100.278 31.8051C100.222 28.9743 96.9813 29.1806 96.2784 31.2831" fill="#D22F27"/>
<path d="M108.98 31.2831C108.161 29.1022 104.811 28.963 105.021 32.1404C105.049 32.5623 105.203 32.9677 105.436 33.3205L108.879 37.4965L112.258 33.4216C112.632 32.9688 112.855 32.3952 112.844 31.8051C112.788 28.9743 109.574 29.1806 108.878 31.2831" fill="#D22F27"/>
<path d="M110.798 41.1918C110.798 44.853 108.07 47.7632 102.604 47.7632C97.1387 47.7632 94.3756 44.8448 94.3756 41.1918C94.3756 41.1918 102.877 43.1632 110.798 41.1918Z" fill="white"/>
<path d="M102.583 51.8103C110.874 51.8103 117.594 45.113 117.594 36.8518C117.594 28.5905 110.874 21.8933 102.583 21.8933C94.2927 21.8933 87.5718 28.5905 87.5718 36.8518C87.5718 45.113 94.2927 51.8103 102.583 51.8103Z" stroke="black" stroke-width="2" stroke-miterlimit="10" stroke-linecap="round" stroke-linejoin="round"/>
<path d="M110.798 41.1918C110.798 44.853 108.07 47.7632 102.604 47.7632C97.1387 47.7632 94.3756 44.8448 94.3756 41.1918C94.3756 41.1918 102.877 43.1632 110.798 41.1918Z" stroke="black" stroke-width="2" stroke-miterlimit="10" stroke-linecap="round" stroke-linejoin="round"/>
<path d="M96.3819 31.2831C95.5568 29.1022 92.1787 28.963 92.3899 32.1404C92.4179 32.5623 92.5731 32.9677 92.8082 33.3205L96.2794 37.4965L99.6875 33.4216C100.065 32.9688 100.289 32.3952 100.278 31.8051C100.222 28.9743 96.9813 29.1806 96.2784 31.2831" stroke="black" stroke-width="2" stroke-miterlimit="10" stroke-linecap="round" stroke-linejoin="round"/>
<path d="M108.98 31.2831C108.161 29.1022 104.811 28.963 105.021 32.1404C105.049 32.5623 105.203 32.9677 105.436 33.3205L108.879 37.4965L112.258 33.4216C112.632 32.9688 112.855 32.3952 112.844 31.8051C112.788 28.9743 109.574 29.1806 108.878 31.2831" stroke="black" stroke-width="2" stroke-miterlimit="10" stroke-linecap="round" stroke-linejoin="round"/>
<path d="M248.555 21.8933C240.278 21.8933 233.544 28.604 233.544 36.8518C233.544 45.0996 240.278 51.8103 248.555 51.8103C256.832 51.8103 263.567 45.0996 263.567 36.8518C263.567 28.604 256.832 21.8933 248.555 21.8933Z" fill="#FCEA2B"/>
<path d="M248.555 51.8103C256.846 51.8103 263.567 45.113 263.567 36.8518C263.567 28.5905 256.846 21.8933 248.555 21.8933C240.265 21.8933 233.544 28.5905 233.544 36.8518C233.544 45.113 240.265 51.8103 248.555 51.8103Z" stroke="black" stroke-width="2" stroke-miterlimit="10"/>
<path d="M242.681 43.3551H254.43" stroke="black" stroke-width="2" stroke-miterlimit="10" stroke-linecap="round" stroke-linejoin="round"/>
<path d="M240.07 34.9505C240.341 35.1743 241.536 36.1162 243.275 36.0151C244.685 35.9336 245.631 35.2135 245.944 34.9505" stroke="black" stroke-width="2" stroke-miterlimit="10" stroke-linecap="round" stroke-linejoin="round"/>
<path d="M251.819 34.9505C252.089 35.1743 253.285 36.1162 255.023 36.0151C256.433 35.9336 257.379 35.2135 257.693 34.9505" stroke="black" stroke-width="2" stroke-miterlimit="10" stroke-linecap="round" stroke-linejoin="round"/>
<path d="M238.072 31.1614C238.39 31.3089 239.788 31.9165 241.443 31.378C242.786 30.9406 243.517 30.0039 243.753 29.6707" stroke="black" stroke-width="2" stroke-miterlimit="10" stroke-linecap="round" stroke-linejoin="round"/>
<path d="M259.417 31.1614C259.1 31.3089 257.702 31.9165 256.047 31.378C254.704 30.9406 253.973 30.0039 253.737 29.6707" stroke="black" stroke-width="2" stroke-miterlimit="10" stroke-linecap="round" stroke-linejoin="round"/>
<path d="M153.311 51.8103C161.601 51.8103 168.322 45.113 168.322 36.8518C168.322 28.5905 161.601 21.8933 153.311 21.8933C145.021 21.8933 138.3 28.5905 138.3 36.8518C138.3 45.113 145.021 51.8103 153.311 51.8103Z" fill="#FCEA2B"/>
<path d="M153.311 49.1652C155.201 49.1652 156.735 47.2619 156.735 44.9129C156.735 42.5649 155.201 40.6605 153.311 40.6605C151.421 40.6605 149.887 42.5649 149.887 44.9129C149.887 47.2619 151.421 49.1652 153.311 49.1652Z" fill="white"/>
<path d="M153.311 51.8103C161.601 51.8103 168.322 45.113 168.322 36.8518C168.322 28.5905 161.601 21.8933 153.311 21.8933C145.021 21.8933 138.3 28.5905 138.3 36.8518C138.3 45.113 145.021 51.8103 153.311 51.8103Z" stroke="black" stroke-width="2" stroke-miterlimit="10" stroke-linecap="round" stroke-linejoin="round"/>
<path d="M143.322 31.1283C143.792 30.2277 144.58 29.5324 145.535 29.1775C146.452 28.7226 147.506 28.6256 148.492 28.9042" stroke="black" stroke-width="2" stroke-miterlimit="10" stroke-linecap="round" stroke-linejoin="round"/>
<path d="M163.3 31.1283C162.268 29.3251 160.166 28.4162 158.139 28.898" stroke="black" stroke-width="2" stroke-miterlimit="10" stroke-linecap="round" stroke-linejoin="round"/>
<path d="M153.311 49.1652C155.201 49.1652 156.735 47.2619 156.735 44.9129C156.735 42.5649 155.201 40.6605 153.311 40.6605C151.421 40.6605 149.887 42.5649 149.887 44.9129C149.887 47.2619 151.421 49.1652 153.311 49.1652Z" stroke="black" stroke-width="2" stroke-miterlimit="10" stroke-linecap="round" stroke-linejoin="round"/>
<path d="M149.395 36.2019C149.395 37.2789 148.518 38.1527 147.437 38.1527C146.357 38.1527 145.479 37.2789 145.479 36.2019C145.479 35.1248 146.357 34.25 147.437 34.25C148.518 34.25 149.395 35.1248 149.395 36.2019Z" fill="black"/>
<path d="M161.143 36.2019C161.143 37.2789 160.265 38.1527 159.185 38.1527C158.104 38.1527 157.227 37.2789 157.227 36.2019C157.227 35.1248 158.104 34.25 159.185 34.25C160.265 34.25 161.143 35.1248 161.143 36.2019Z" fill="black"/>
<path d="M203.004 51.8103C211.294 51.8103 218.015 45.113 218.015 36.8518C218.015 28.5905 211.294 21.8933 203.004 21.8933C194.713 21.8933 187.992 28.5905 187.992 36.8518C187.992 45.113 194.713 51.8103 203.004 51.8103Z" fill="#FCEA2B"/>
<path d="M208.579 43.4964C208.353 43.2788 208.173 43.0188 208.05 42.731C207.925 42.4432 207.86 42.1337 207.857 41.8211C207.831 39.7269 209.792 37.6977 209.876 37.6121C209.917 37.5698 209.966 37.5368 210.021 37.5131C210.075 37.4904 210.134 37.478 210.193 37.4769C210.252 37.4759 210.31 37.4873 210.365 37.5089C210.419 37.5306 210.47 37.5636 210.513 37.6038C210.597 37.6874 212.61 39.6671 212.637 41.7613C212.642 42.2327 212.509 42.6949 212.251 43.089C211.993 43.4841 211.623 43.7936 211.189 43.9792C210.755 44.1649 210.274 44.2186 209.811 44.1319C209.346 44.0463 208.917 43.8255 208.579 43.4964Z" fill="#92D3F5"/>
<path d="M203.004 51.8103C211.294 51.8103 218.015 45.113 218.015 36.8518C218.015 28.5905 211.294 21.8933 203.004 21.8933C194.713 21.8933 187.992 28.5905 187.992 36.8518C187.992 45.113 194.713 51.8103 203.004 51.8103Z" stroke="black" stroke-width="2" stroke-linecap="round" stroke-linejoin="round"/>
<path d="M208.324 43.2045C206.463 44.0298 204.432 44.4115 202.396 44.3166C200.361 44.2217 198.375 43.6543 196.598 42.6588" stroke="black" stroke-width="2" stroke-linecap="round" stroke-linejoin="round"/>
<path d="M199.087 33.6001C199.087 33.9859 198.972 34.3635 198.758 34.6844C198.543 35.0052 198.236 35.2548 197.879 35.4024C197.521 35.5499 197.128 35.5891 196.748 35.5138C196.368 35.4385 196.019 35.2528 195.746 34.9794C195.471 34.707 195.285 34.3594 195.209 33.9808C195.134 33.6022 195.173 33.2102 195.321 32.8532C195.469 32.4963 195.72 32.1919 196.042 31.9774C196.364 31.7628 196.742 31.6493 197.13 31.6493C197.649 31.6493 198.147 31.8546 198.514 32.2208C198.881 32.586 199.087 33.0823 199.087 33.6001Z" fill="black"/>
<path d="M210.836 33.6001C210.836 33.9859 210.721 34.3635 210.505 34.6844C210.291 35.0052 209.985 35.2548 209.627 35.4024C209.269 35.5499 208.876 35.5891 208.496 35.5138C208.116 35.4385 207.767 35.2528 207.494 34.9794C207.219 34.707 207.033 34.3594 206.957 33.9808C206.882 33.6022 206.92 33.2102 207.069 32.8532C207.217 32.4963 207.468 32.1919 207.79 31.9774C208.112 31.7628 208.491 31.6493 208.878 31.6493C209.397 31.6493 209.894 31.8546 210.262 32.2208C210.63 32.586 210.836 33.0823 210.836 33.6001Z" fill="black"/>
<path d="M208.579 43.4964C208.353 43.2788 208.173 43.0188 208.05 42.731C207.925 42.4432 207.86 42.1337 207.857 41.8211C207.831 39.7269 209.792 37.6977 209.876 37.6121C209.917 37.5698 209.966 37.5368 210.021 37.5131C210.075 37.4904 210.134 37.478 210.193 37.4769C210.252 37.4759 210.31 37.4873 210.365 37.5089C210.419 37.5306 210.47 37.5636 210.513 37.6038C210.597 37.6874 212.61 39.6671 212.637 41.7613C212.642 42.2327 212.509 42.6949 212.251 43.089C211.993 43.4841 211.623 43.7936 211.189 43.9792C210.755 44.1649 210.274 44.2186 209.811 44.1319C209.346 44.0463 208.917 43.8255 208.579 43.4964Z" stroke="black" stroke-width="2" stroke-miterlimit="10"/>
</svg>
