<svg width="709" height="93" viewBox="0 0 709 93" fill="none" xmlns="http://www.w3.org/2000/svg">
<rect width="709" height="93" fill="#1E1E1E"/>
<rect width="709" height="93" fill="white"/>
<path d="M164 82.4094L698.711 82.3953" stroke="#AE770D" stroke-width="5"/>
<path d="M235.003 33.1818C250.979 33.1818 263.93 27.7685 263.93 21.0909C263.93 14.4133 250.979 9 235.003 9C219.027 9 206.076 14.4133 206.076 21.0909C206.076 27.7685 219.027 33.1818 235.003 33.1818Z" fill="#533A0A"/>
<path d="M203.446 13.3182H266.559V53.9091C266.559 69.6497 253.609 82.4091 237.632 82.4091H232.373C216.397 82.4091 203.446 69.6497 203.446 53.9091V13.3182Z" fill="#69BF97" stroke="#009458"/>
<path d="M270.066 13.3182H199.94V21.9545H270.066V13.3182Z" fill="#69BF97" stroke="#009458"/>
<path d="M322.66 33.1818C338.636 33.1818 351.587 27.7685 351.587 21.0909C351.587 14.4133 338.636 9 322.66 9C306.684 9 293.733 14.4133 293.733 21.0909C293.733 27.7685 306.684 33.1818 322.66 33.1818Z" fill="#533A0A"/>
<path d="M291.103 13.3182H354.217V53.9091C354.217 69.6497 341.266 82.4091 325.29 82.4091H320.03C304.054 82.4091 291.103 69.6497 291.103 53.9091V13.3182Z" fill="#69BF97" stroke="#009458"/>
<path d="M357.723 13.3182H287.597V21.9545H357.723V13.3182Z" fill="#69BF97" stroke="#009458"/>
<path d="M408.564 33.1818C424.54 33.1818 437.491 27.7685 437.491 21.0909C437.491 14.4133 424.54 9 408.564 9C392.588 9 379.637 14.4133 379.637 21.0909C379.637 27.7685 392.588 33.1818 408.564 33.1818Z" fill="#533A0A"/>
<path d="M377.008 13.3182H440.121V53.9091C440.121 69.6497 427.171 82.4091 411.194 82.4091H405.935C389.958 82.4091 377.008 69.6497 377.008 53.9091V13.3182Z" fill="#69BF97" stroke="#009458"/>
<path d="M443.627 13.3182H373.501V21.9545H443.627V13.3182Z" fill="#69BF97" stroke="#009458"/>
<path d="M492.716 33.1818C508.691 33.1818 521.642 27.7685 521.642 21.0909C521.642 14.4133 508.691 9 492.716 9C476.74 9 463.789 14.4133 463.789 21.0909C463.789 27.7685 476.74 33.1818 492.716 33.1818Z" fill="#533A0A"/>
<path d="M461.159 13.3182H524.272V53.9091C524.272 69.6497 511.322 82.4091 495.345 82.4091H490.086C474.109 82.4091 461.159 69.6497 461.159 53.9091V13.3182Z" fill="#69BF97" stroke="#009458"/>
<path d="M527.779 13.3182H457.653V21.9545H527.779V13.3182Z" fill="#69BF97" stroke="#009458"/>
<path d="M569.854 33.1818C585.83 33.1818 598.781 27.7685 598.781 21.0909C598.781 14.4133 585.83 9 569.854 9C553.878 9 540.927 14.4133 540.927 21.0909C540.927 27.7685 553.878 33.1818 569.854 33.1818Z" fill="#533A0A"/>
<path d="M538.297 13.3182H601.411V53.9091C601.411 69.6497 588.46 82.4091 572.484 82.4091H567.224C551.248 82.4091 538.297 69.6497 538.297 53.9091V13.3182Z" fill="#69BF97" stroke="#009458"/>
<path d="M604.917 13.3182H534.791V21.9545H604.917V13.3182Z" fill="#69BF97" stroke="#009458"/>
<path d="M645.24 33.1818C661.215 33.1818 674.166 27.7685 674.166 21.0909C674.166 14.4133 661.215 9 645.24 9C629.264 9 616.313 14.4133 616.313 21.0909C616.313 27.7685 629.264 33.1818 645.24 33.1818Z" fill="#533A0A"/>
<path d="M613.683 13.3182H676.796V53.9091C676.796 69.6497 663.846 82.4091 647.869 82.4091H642.61C626.633 82.4091 613.683 69.6497 613.683 53.9091V13.3182Z" fill="#69BF97" stroke="#009458"/>
<path d="M680.302 13.3182H610.177V21.9545H680.302V13.3182Z" fill="#69BF97" stroke="#009458"/>
<path d="M235.287 76.3636C249.17 76.3636 260.423 65.2659 260.423 51.5755C260.423 37.8852 249.17 26.7874 235.287 26.7874C221.404 26.7874 210.15 37.8852 210.15 51.5755C210.15 65.2659 221.404 76.3636 235.287 76.3636Z" fill="#FCEA2B"/>
<path d="M251.237 57.6538C251.251 59.3137 250.928 60.9581 250.287 62.4936C236.637 65.7582 222.494 62.8598 220.243 62.3537C219.633 60.8596 219.324 59.2636 219.337 57.6538H219.456C219.456 57.6538 235.63 61.5229 251.03 57.7298L251.237 57.6538Z" fill="white"/>
<path d="M250.287 62.4936C248.33 67.0951 243.348 70.2854 235.325 70.2854C227.227 70.2854 222.178 67.0191 220.243 62.3537C222.494 62.8598 236.637 65.7582 250.287 62.4936Z" fill="white"/>
<path d="M234.719 75.8489C248.602 75.8489 259.855 64.7512 259.855 51.0608C259.855 37.3704 248.602 26.2727 234.719 26.2727C220.836 26.2727 209.582 37.3704 209.582 51.0608C209.582 64.7512 220.836 75.8489 234.719 75.8489Z" stroke="black" stroke-width="2" stroke-linecap="round" stroke-linejoin="round"/>
<path d="M250.669 57.1391C250.683 58.799 250.359 60.4434 249.719 61.9772C236.069 65.2435 221.926 62.3451 219.675 61.8373C219.065 60.3449 218.756 58.7489 218.769 57.1391H218.888C218.888 57.1391 235.062 61.0082 250.462 57.2151L250.669 57.1391Z" stroke="black" stroke-width="2" stroke-linecap="round" stroke-linejoin="round"/>
<path d="M249.719 61.9772C247.762 66.5804 242.778 69.7706 234.757 69.7706C226.658 69.7706 221.609 66.5043 219.675 61.8372C221.926 62.3451 236.069 65.2434 249.719 61.9772Z" stroke="black" stroke-width="2" stroke-linecap="round" stroke-linejoin="round"/>
<path d="M230.013 47.1848C229.607 46.2832 228.946 45.5197 228.108 44.9825C227.27 44.4454 226.291 44.1586 225.292 44.1586C224.293 44.1586 223.314 44.4454 222.478 44.9825C221.64 45.5197 220.978 46.2832 220.573 47.1848" stroke="black" stroke-width="2" stroke-miterlimit="10" stroke-linecap="round"/>
<path d="M248.865 47.1848C248.46 46.2832 247.797 45.5197 246.959 44.9825C246.121 44.4454 245.145 44.1586 244.145 44.1586C243.146 44.1586 242.168 44.4454 241.33 44.9825C240.492 45.5197 239.831 46.2832 239.424 47.1848" stroke="black" stroke-width="2" stroke-miterlimit="10" stroke-linecap="round"/>
<path d="M645.24 26.2727C631.223 26.2727 619.819 37.5086 619.819 51.3182C619.819 65.1277 631.223 76.3636 645.24 76.3636C659.256 76.3636 670.66 65.1277 670.66 51.3182C670.66 37.5086 659.256 26.2727 645.24 26.2727Z" fill="#E27022"/>
<path d="M645.24 76.3636C659.279 76.3636 670.66 65.1502 670.66 51.3182C670.66 37.4862 659.279 26.2727 645.24 26.2727C631.2 26.2727 619.819 37.4862 619.819 51.3182C619.819 65.1502 631.2 76.3636 645.24 76.3636Z" stroke="black" stroke-width="2" stroke-miterlimit="10"/>
<path d="M636.398 62.2069C638.145 59.4226 641.817 57.7056 645.704 57.8473C649.274 57.9786 652.492 59.6592 654.081 62.2069" stroke="black" stroke-width="2" stroke-miterlimit="10" stroke-linecap="round" stroke-linejoin="round"/>
<path d="M638.607 47.9707C638.607 49.774 637.122 51.237 635.292 51.237C633.464 51.237 631.977 49.774 631.977 47.9707C631.977 46.1675 633.464 44.7027 635.292 44.7027C637.122 44.7027 638.607 46.1675 638.607 47.9707Z" fill="black"/>
<path d="M658.502 47.9707C658.502 49.774 657.015 51.237 655.187 51.237C653.357 51.237 651.872 49.774 651.872 47.9707C651.872 46.1675 653.357 44.7027 655.187 44.7027C657.015 44.7027 658.502 46.1675 658.502 47.9707Z" fill="black"/>
<path d="M630.871 38.2514L638.607 42.6076" stroke="black" stroke-width="2" stroke-miterlimit="10" stroke-linecap="round" stroke-linejoin="round"/>
<path d="M659.608 38.2514L651.872 42.6076" stroke="black" stroke-width="2" stroke-miterlimit="10" stroke-linecap="round" stroke-linejoin="round"/>
<path d="M322.66 76.3636C336.699 76.3636 348.081 65.1502 348.081 51.3182C348.081 37.4862 336.699 26.2727 322.66 26.2727C308.621 26.2727 297.239 37.4862 297.239 51.3182C297.239 65.1502 308.621 76.3636 322.66 76.3636Z" fill="#FCEA2B"/>
<path d="M312.159 41.9944C310.761 38.3429 305.041 38.1097 305.399 43.4297C305.446 44.1362 305.709 44.815 306.107 45.4057L311.985 52.3977L317.757 45.575C318.396 44.8167 318.775 43.8564 318.756 42.8684C318.661 38.1287 313.174 38.4742 311.983 41.9944" fill="#D22F27"/>
<path d="M333.493 41.9944C332.106 38.3429 326.433 38.1097 326.789 43.4297C326.836 44.1362 327.097 44.815 327.492 45.4057L333.321 52.3977L339.043 45.575C339.678 44.8167 340.055 43.8564 340.036 42.8684C339.941 38.1287 334.499 38.4742 333.319 41.9944" fill="#D22F27"/>
<path d="M336.571 58.5848C336.571 64.7149 331.952 69.5875 322.695 69.5875C313.44 69.5875 308.761 64.7011 308.761 58.5848C308.761 58.5848 323.158 61.8856 336.571 58.5848Z" fill="white"/>
<path d="M322.66 76.3636C336.699 76.3636 348.081 65.1502 348.081 51.3182C348.081 37.4862 336.699 26.2727 322.66 26.2727C308.621 26.2727 297.239 37.4862 297.239 51.3182C297.239 65.1502 308.621 76.3636 322.66 76.3636Z" stroke="black" stroke-width="2" stroke-miterlimit="10" stroke-linecap="round" stroke-linejoin="round"/>
<path d="M336.571 58.5848C336.571 64.7149 331.952 69.5875 322.695 69.5875C313.44 69.5875 308.761 64.7011 308.761 58.5848C308.761 58.5848 323.158 61.8856 336.571 58.5848Z" stroke="black" stroke-width="2" stroke-miterlimit="10" stroke-linecap="round" stroke-linejoin="round"/>
<path d="M312.159 41.9944C310.761 38.3429 305.041 38.1097 305.399 43.4297C305.446 44.1362 305.709 44.815 306.107 45.4057L311.985 52.3977L317.757 45.575C318.396 44.8167 318.775 43.8564 318.756 42.8684C318.661 38.1287 313.174 38.4742 311.983 41.9944" stroke="black" stroke-width="2" stroke-miterlimit="10" stroke-linecap="round" stroke-linejoin="round"/>
<path d="M333.493 41.9944C332.106 38.3429 326.433 38.1097 326.789 43.4297C326.836 44.1362 327.097 44.815 327.492 45.4057L333.321 52.3977L339.043 45.575C339.678 44.8167 340.055 43.8564 340.036 42.8684C339.941 38.1287 334.499 38.4742 333.319 41.9944" stroke="black" stroke-width="2" stroke-miterlimit="10" stroke-linecap="round" stroke-linejoin="round"/>
<path d="M569.854 26.2727C555.838 26.2727 544.433 37.5086 544.433 51.3182C544.433 65.1277 555.838 76.3636 569.854 76.3636C583.87 76.3636 595.275 65.1277 595.275 51.3182C595.275 37.5086 583.87 26.2727 569.854 26.2727Z" fill="#FCEA2B"/>
<path d="M569.854 76.3636C583.893 76.3636 595.275 65.1502 595.275 51.3182C595.275 37.4862 583.893 26.2727 569.854 26.2727C555.815 26.2727 544.433 37.4862 544.433 51.3182C544.433 65.1502 555.815 76.3636 569.854 76.3636Z" stroke="black" stroke-width="2" stroke-miterlimit="10"/>
<path d="M559.907 62.2069H579.802" stroke="black" stroke-width="2" stroke-miterlimit="10" stroke-linecap="round" stroke-linejoin="round"/>
<path d="M555.485 48.1348C555.943 48.5096 557.968 50.0866 560.911 49.9173C563.299 49.7809 564.901 48.5753 565.433 48.1348" stroke="black" stroke-width="2" stroke-miterlimit="10" stroke-linecap="round" stroke-linejoin="round"/>
<path d="M575.38 48.1348C575.838 48.5096 577.862 50.0866 580.806 49.9173C583.194 49.7809 584.796 48.5753 585.327 48.1348" stroke="black" stroke-width="2" stroke-miterlimit="10" stroke-linecap="round" stroke-linejoin="round"/>
<path d="M552.102 41.7905C552.64 42.0375 555.007 43.0549 557.81 42.1533C560.084 41.4209 561.321 39.8526 561.721 39.2946" stroke="black" stroke-width="2" stroke-miterlimit="10" stroke-linecap="round" stroke-linejoin="round"/>
<path d="M588.248 41.7905C587.71 42.0375 585.343 43.0549 582.54 42.1533C580.266 41.4209 579.028 39.8526 578.629 39.2946" stroke="black" stroke-width="2" stroke-miterlimit="10" stroke-linecap="round" stroke-linejoin="round"/>
<path d="M408.564 76.3636C422.604 76.3636 433.985 65.1502 433.985 51.3182C433.985 37.4862 422.604 26.2727 408.564 26.2727C394.525 26.2727 383.144 37.4862 383.144 51.3182C383.144 65.1502 394.525 76.3636 408.564 76.3636Z" fill="#FCEA2B"/>
<path d="M408.564 71.9349C411.766 71.9349 414.362 68.7481 414.362 64.8151C414.362 60.8838 411.766 57.6953 408.564 57.6953C405.363 57.6953 402.767 60.8838 402.767 64.8151C402.767 68.7481 405.363 71.9349 408.564 71.9349Z" fill="white"/>
<path d="M408.564 76.3636C422.604 76.3636 433.985 65.1502 433.985 51.3182C433.985 37.4862 422.604 26.2727 408.564 26.2727C394.525 26.2727 383.144 37.4862 383.144 51.3182C383.144 65.1502 394.525 76.3636 408.564 76.3636Z" stroke="black" stroke-width="2" stroke-miterlimit="10" stroke-linecap="round" stroke-linejoin="round"/>
<path d="M391.648 41.7353C392.444 40.2273 393.778 39.0632 395.396 38.469C396.95 37.7073 398.734 37.5449 400.403 38.0113" stroke="black" stroke-width="2" stroke-miterlimit="10" stroke-linecap="round" stroke-linejoin="round"/>
<path d="M425.481 41.7353C423.733 38.716 420.172 37.1943 416.739 38.0009" stroke="black" stroke-width="2" stroke-miterlimit="10" stroke-linecap="round" stroke-linejoin="round"/>
<path d="M408.564 71.9349C411.766 71.9349 414.362 68.7481 414.362 64.8151C414.362 60.8838 411.766 57.6953 408.564 57.6953C405.363 57.6953 402.767 60.8838 402.767 64.8151C402.767 68.7481 405.363 71.9349 408.564 71.9349Z" stroke="black" stroke-width="2" stroke-miterlimit="10" stroke-linecap="round" stroke-linejoin="round"/>
<path d="M401.932 50.23C401.932 52.0332 400.447 53.4963 398.617 53.4963C396.789 53.4963 395.302 52.0332 395.302 50.23C395.302 48.4267 396.789 46.962 398.617 46.962C400.447 46.962 401.932 48.4267 401.932 50.23Z" fill="black"/>
<path d="M421.827 50.23C421.827 52.0332 420.34 53.4963 418.512 53.4963C416.681 53.4963 415.197 52.0332 415.197 50.23C415.197 48.4267 416.681 46.962 418.512 46.962C420.34 46.962 421.827 48.4267 421.827 50.23Z" fill="black"/>
<path d="M492.716 76.3636C506.755 76.3636 518.136 65.1502 518.136 51.3182C518.136 37.4862 506.755 26.2727 492.716 26.2727C478.676 26.2727 467.295 37.4862 467.295 51.3182C467.295 65.1502 478.676 76.3636 492.716 76.3636Z" fill="#FCEA2B"/>
<path d="M502.156 62.4435C501.774 62.0791 501.469 61.6438 501.26 61.1619C501.05 60.68 500.94 60.1618 500.934 59.6385C500.89 56.1321 504.211 52.7345 504.353 52.5912C504.423 52.5204 504.505 52.4651 504.598 52.4254C504.69 52.3874 504.789 52.3666 504.889 52.3649C504.989 52.3632 505.087 52.3822 505.18 52.4184C505.273 52.4547 505.359 52.51 505.431 52.5774C505.575 52.7173 508.983 56.0319 509.029 59.5383C509.037 60.3276 508.811 61.1015 508.375 61.7613C507.938 62.4228 507.312 62.941 506.576 63.2519C505.841 63.5628 505.028 63.6526 504.243 63.5076C503.455 63.3642 502.73 62.9945 502.156 62.4435Z" fill="#92D3F5"/>
<path d="M492.716 76.3636C506.755 76.3636 518.136 65.1502 518.136 51.3182C518.136 37.4862 506.755 26.2727 492.716 26.2727C478.676 26.2727 467.295 37.4862 467.295 51.3182C467.295 65.1502 478.676 76.3636 492.716 76.3636Z" stroke="black" stroke-width="2" stroke-linecap="round" stroke-linejoin="round"/>
<path d="M501.725 61.9547C498.573 63.3365 495.135 63.9756 491.686 63.8167C488.24 63.6578 484.877 62.7078 481.867 61.041" stroke="black" stroke-width="2" stroke-linecap="round" stroke-linejoin="round"/>
<path d="M486.083 45.8738C486.083 46.5198 485.889 47.152 485.526 47.6892C485.161 48.2264 484.642 48.6444 484.037 48.8914C483.431 49.1384 482.765 49.204 482.121 49.0779C481.478 48.9518 480.887 48.6409 480.424 48.1832C479.96 47.7272 479.644 47.1451 479.516 46.5112C479.388 45.8773 479.455 45.2209 479.705 44.6233C479.956 44.0256 480.38 43.5161 480.926 43.1568C481.471 42.7975 482.112 42.6075 482.768 42.6075C483.648 42.6075 484.491 42.9513 485.112 43.5645C485.734 44.1759 486.083 45.0067 486.083 45.8738Z" fill="black"/>
<path d="M505.978 45.8738C505.978 46.5198 505.784 47.152 505.419 47.6892C505.056 48.2264 504.537 48.6444 503.932 48.8914C503.326 49.1384 502.659 49.204 502.016 49.0779C501.373 48.9518 500.782 48.6409 500.319 48.1832C499.854 47.7272 499.539 47.1451 499.411 46.5112C499.283 45.8773 499.348 45.2209 499.6 44.6233C499.851 44.0256 500.275 43.5161 500.82 43.1568C501.366 42.7975 502.007 42.6075 502.663 42.6075C503.541 42.6075 504.384 42.9513 505.007 43.5645C505.629 44.1759 505.978 45.0067 505.978 45.8738Z" fill="black"/>
<path d="M502.156 62.4435C501.774 62.0791 501.469 61.6438 501.26 61.1619C501.05 60.68 500.94 60.1618 500.934 59.6385C500.89 56.1321 504.211 52.7345 504.353 52.5912C504.423 52.5204 504.505 52.4651 504.598 52.4254C504.69 52.3874 504.789 52.3666 504.889 52.3649C504.989 52.3632 505.087 52.3822 505.18 52.4184C505.273 52.4547 505.359 52.51 505.431 52.5774C505.575 52.7173 508.983 56.0319 509.029 59.5383C509.037 60.3276 508.811 61.1015 508.375 61.7613C507.938 62.4228 507.312 62.941 506.576 63.2519C505.841 63.5628 505.028 63.6526 504.243 63.5076C503.455 63.3642 502.73 62.9945 502.156 62.4435Z" stroke="black" stroke-width="2" stroke-miterlimit="10"/>
</svg>
