<svg width="411" height="221" viewBox="0 0 411 221" fill="none" xmlns="http://www.w3.org/2000/svg">
<rect width="411" height="221" fill="#1E1E1E"/>
<path fill-rule="evenodd" clip-rule="evenodd" d="M182.171 210.419L200.919 187.979L182.414 165.939L163.06 189.104L185.106 215.362L181.136 218.672L159.694 193.133L142.904 213.23L144.696 215.321L140.761 218.672L117.52 191.568L98.4005 214.454L99.1446 215.321L95.2091 218.672L73.3669 193.197L54.9219 215.275L56.7282 217.42L52.7632 220.735L29.728 193.386L10.1545 216.814L6.17633 213.514L26.3466 189.371L7.24574 166.693L4.94963 169.393L1 166.059L25.4455 137.304L5.96442 114.582L4.9117 115.794L1 112.415L25.4984 84.2471L7.94727 63.7781L4.93016 67.2857L1 63.9289L4.54386 59.8089L1 55.6759L4.93542 52.3252L7.9535 55.845L26.4117 34.3861L6.17632 10.2846L10.1465 6.97474L29.8271 30.4156L50.6927 6.1581L53.6489 8.6831L55.6981 6.97474L73.875 28.6245L95.2091 4.09486L97.1318 5.75533L98.1439 4.9115L117.946 28.4965L138.69 4.09486L141.664 6.6052L143.696 4.9115L162.12 26.8561L181.136 4.09486L183.516 6.06895L186.142 3.87988L205.517 26.9571L224.617 4.09486L228.035 6.92991L231.693 3.87988L249.685 25.31L269.134 2.03162L271.521 4.01224L274.158 1.83941L293.401 25.0288L312.615 2.03162L316.033 4.86718L319.697 1.82435L338.079 23.8048L357.131 1L361.109 4.30022L360.801 4.66927L380.074 25.5824L400.612 1L404.591 4.30022L383.608 29.4157L399.847 47.0365L403.718 42.2648L407.743 45.5075L403.387 50.8776L406.496 54.2502L402.683 57.7391L400.097 54.9333L382.377 76.7759L401.106 99.1707L403.718 95.9091L407.764 99.1268L404.488 103.216L407.694 107.05L403.718 110.352L401.192 107.331L381.795 131.547L399.947 153.422L403.718 148.522L407.826 151.66L403.333 157.501L407.707 162.773L403.718 166.059L400.101 161.701L382.933 184.016L406.653 212.268L402.683 215.577L379.705 188.21L360.204 213.557L359.864 213.298L357.131 215.577L335.309 189.584L317.696 211.573L316.224 210.402L318.655 213.299L314.685 216.609L291.42 188.898L272.351 212.403L273.104 213.299L269.134 216.609L269.035 216.491L267.982 217.788L263.957 214.545L265.65 212.46L248.123 191.585L229.631 213.719L228.47 212.757L230.658 215.362L226.688 218.672L204.295 192L186.15 213.719L182.171 210.419ZM140.838 9.54744L121.316 32.5115L139.4 54.0505L158.754 30.8853L140.838 9.54744ZM114.55 32.4907L96.284 10.7347L77.2395 32.6319L95.7188 54.6419L114.55 32.4907ZM99.0898 58.6568L117.921 36.5056L136.035 58.0797L117.366 80.4248L99.0898 58.6568ZM92.3233 58.636L73.8055 36.5802L54.0621 59.2809L72.801 81.6L92.3233 58.636ZM76.1719 85.615L95.6942 62.6509L114 84.454L94.6464 107.619L76.1719 85.615ZM69.4054 85.5942L50.6281 63.2292L32.3274 84.2711L51.5108 106.644L69.4054 85.5942ZM54.9173 110.617L72.7763 89.6091L91.2801 111.649L73.7715 132.605L54.9173 110.617ZM48.1211 110.631L28.8989 88.213L9.39289 110.641L28.8352 133.317L48.1211 110.631ZM32.2416 137.29L51.5276 114.604L70.4115 136.627L51.2934 159.511L32.2416 137.29ZM28.8519 141.278L10.6404 162.699L29.7118 185.342L47.9333 163.533L28.8519 141.278ZM50.6976 55.2736L70.441 32.5728L52.8308 11.5983L33.1947 34.4266L50.6976 55.2736ZM28.9269 80.3052L47.2636 59.2219L29.7793 38.3971L11.3569 59.8142L28.9269 80.3052ZM73.823 140.606L54.7047 163.49L73.3156 185.196L92.4346 162.311L73.823 140.606ZM95.7946 158.29L77.1829 136.584L94.6561 115.67L113.075 137.606L95.7946 158.29ZM95.846 166.29L76.7269 189.175L94.9892 210.475L114.109 187.589L95.846 166.29ZM117.469 183.567L99.206 162.268L116.451 141.627L134.523 163.154L117.469 183.567ZM120.881 187.546L137.899 167.174L156.318 189.112L139.491 209.252L120.881 187.546ZM33.0932 189.357L51.3446 167.512L69.9556 189.218L51.5405 211.26L33.0932 189.357ZM378.496 135.666L396.716 157.622L379.529 179.961L360.843 157.705L378.496 135.666ZM357.548 161.819L376.302 184.156L357.747 208.272L338.603 185.471L357.548 161.819ZM396.557 51.0922L380.266 33.4156L363.2 53.8434L378.999 72.7359L396.557 51.0922ZM376.733 29.5823L357.459 8.66911L341.448 27.8337L359.83 49.8144L376.733 29.5823ZM314.067 207.835L331.919 185.548L312.704 162.661L294.736 184.81L314.067 207.835ZM335.213 181.434L354.159 157.783L335.088 135.068L316.021 158.573L335.213 181.434ZM357.454 153.668L375.126 131.605L356.301 108.92L338.405 130.98L357.454 153.668ZM378.425 127.486L397.809 103.286L379.059 80.8658L359.622 104.826L378.425 127.486ZM359.832 57.874L375.681 76.8257L356.255 100.771L340.179 81.3977L359.832 57.874ZM336.809 85.4312L352.935 104.864L335.02 126.948L318.531 107.31L336.809 85.4312ZM315.164 111.338L331.703 131.036L312.635 154.541L295.811 134.503L315.164 111.338ZM292.446 138.533L309.318 158.63L291.351 180.777L274.209 160.361L292.446 138.533ZM270.843 164.39L288.034 184.866L268.966 208.371L251.489 187.555L270.843 164.39ZM356.462 53.845L338.081 31.8643L318.512 55.2876L336.822 77.3532L356.462 53.845ZM334.711 27.8353L316.242 5.75094L296.757 29.0734L315.155 51.2431L334.711 27.8353ZM253.061 29.331L271.721 6.9967L290.031 29.0622L271.479 51.2682L253.061 29.331ZM274.855 55.2892L293.388 33.1068L311.785 55.2765L293.361 77.3299L274.855 55.2892ZM296.737 81.351L315.142 59.321L333.452 81.3867L315.155 103.288L296.737 81.351ZM226.079 209.908L244.747 187.563L226.329 165.626L207.661 187.971L226.079 209.908ZM248.113 183.534L267.467 160.369L249.048 138.431L229.695 161.596L248.113 183.534ZM270.833 156.339L289.07 134.511L270.651 112.575L252.415 134.403L270.833 156.339ZM292.435 130.483L311.788 107.318L293.371 85.3802L274.017 108.545L292.435 130.483ZM222.953 161.605L204.285 183.951L185.779 161.909L204.448 139.564L222.953 161.605ZM245.672 134.41L226.319 157.576L207.814 135.535L227.167 112.37L245.672 134.41ZM267.275 108.554L249.039 130.382L230.534 108.341L248.77 86.5127L267.275 108.554ZM289.995 81.3591L270.641 104.524L252.137 82.4836L271.49 59.3183L289.995 81.3591ZM268.114 55.2974L249.695 33.3602L230.342 56.5253L248.761 78.4625L268.114 55.2974ZM246.319 29.3391L228.246 7.81295L208.893 30.9782L226.966 52.5044L246.319 29.3391ZM165.496 30.8772L183.732 9.04905L202.151 30.9863L183.915 52.8144L165.496 30.8772ZM187.291 56.8353L205.527 35.0073L223.599 56.5335L205.363 78.3615L187.291 56.8353ZM208.739 82.3826L226.975 60.5545L245.394 82.4917L227.158 104.32L208.739 82.3826ZM159.684 185.082L179.038 161.917L160.619 139.98L141.266 163.146L159.684 185.082ZM182.403 157.889L201.072 135.543L182.654 113.607L163.985 135.951L182.403 157.889ZM204.438 131.514L223.791 108.349L205.374 86.4117L186.019 109.577L204.438 131.514ZM157.243 135.96L137.89 159.125L119.816 137.598L139.169 114.433L157.243 135.96ZM179.278 109.585L160.61 131.93L142.536 110.404L161.204 88.0589L179.278 109.585ZM201.998 82.3907L182.643 105.556L164.571 84.0297L183.924 60.8645L201.998 82.3907ZM180.548 56.8436L162.13 34.9063L142.776 58.0715L161.195 80.0087L180.548 56.8436ZM120.742 84.4458L139.411 62.1006L157.828 84.0378L139.16 106.383L120.742 84.4458ZM116.44 133.578L135.794 110.413L117.376 88.4749L98.0223 111.64L116.44 133.578Z" fill="#A88E5B" fill-opacity="0.72"/>
<path d="M405.824 5.1581H5.17632V215.609H405.824V5.1581Z" stroke="#916104" stroke-width="10"/>
<path d="M93.6914 5.67392H12.9408V216.124H93.6914V5.67392Z" fill="black" stroke="#EAEAEA" stroke-width="3" stroke-linejoin="bevel"/>
<path d="M19.2477 36.1067C19.0683 36.1067 18.9095 36.0655 18.7715 35.9829C18.6335 35.8867 18.5645 35.7491 18.5645 35.5703V21.6847C18.5645 21.4371 18.6335 21.2651 18.7715 21.1689C18.9095 21.0726 19.0683 21.0244 19.2477 21.0244C19.4134 21.0244 19.5583 21.0726 19.6825 21.1689C19.8205 21.2514 19.9448 21.3683 20.0552 21.5196C20.1657 21.6571 20.2623 21.8154 20.3451 21.9942L23.9064 28.8235L27.447 21.9942C27.5575 21.8154 27.661 21.6571 27.7576 21.5196C27.8681 21.3683 27.9923 21.2514 28.1303 21.1689C28.2683 21.0726 28.4132 21.0244 28.5651 21.0244C28.7584 21.0244 28.9171 21.0726 29.0413 21.1689C29.1793 21.2651 29.2484 21.4371 29.2484 21.6847V35.5703C29.2484 35.7491 29.1793 35.8867 29.0413 35.9829C28.9033 36.0655 28.7445 36.1067 28.5651 36.1067C28.3995 36.1067 28.2408 36.0655 28.0889 35.9829C27.9509 35.8867 27.8818 35.7491 27.8818 35.5703V23.9749L24.4448 30.4534C24.3619 30.6185 24.2722 30.7354 24.1756 30.8042C24.079 30.873 23.9823 30.9074 23.8857 30.9074C23.8029 30.9074 23.7131 30.873 23.6165 30.8042C23.52 30.7354 23.4233 30.6185 23.3267 30.4534L19.931 23.9336V35.5703C19.931 35.7491 19.8551 35.8867 19.7032 35.9829C19.5652 36.0655 19.4134 36.1067 19.2477 36.1067ZM35.5855 36.2512C34.8816 36.2512 34.2328 36.0724 33.6393 35.7147C33.0456 35.3433 32.5626 34.8619 32.1899 34.2704C31.831 33.6652 31.6515 33.0188 31.6515 32.331V30.1027C31.6515 29.4012 31.824 28.7616 32.1692 28.1839C32.528 27.5925 33.0042 27.1179 33.5978 26.7602C34.2051 26.4026 34.8677 26.2238 35.5855 26.2238C36.2895 26.2238 36.9382 26.4026 37.5318 26.7602C38.1391 27.1041 38.6223 27.5649 38.9812 28.1426C39.34 28.7203 39.5196 29.3736 39.5196 30.1027V32.331C39.5196 33.005 39.34 33.6446 38.9812 34.2498C38.6223 34.8551 38.1391 35.3433 37.5318 35.7147C36.9382 36.0724 36.2895 36.2512 35.5855 36.2512ZM35.5855 35.0132C36.0686 35.0132 36.5034 34.8894 36.89 34.6418C37.2764 34.3805 37.587 34.0435 37.8217 33.6308C38.0563 33.2182 38.1737 32.7849 38.1737 32.331V30.1027C38.1737 29.6488 38.0563 29.2224 37.8217 28.8235C37.6008 28.4246 37.2902 28.1014 36.89 27.8538C36.5034 27.5925 36.0686 27.4617 35.5855 27.4617C35.1024 27.4617 34.6676 27.5925 34.2811 27.8538C33.8945 28.1014 33.584 28.4246 33.3494 28.8235C33.1147 29.2224 32.9974 29.6488 32.9974 30.1027V32.331C32.9974 32.7849 33.1147 33.2182 33.3494 33.6308C33.584 34.0435 33.8945 34.3805 34.2811 34.6418C34.6813 34.8894 35.1162 35.0132 35.5855 35.0132ZM45.022 36.2512C44.387 36.2512 43.7865 36.0724 43.2206 35.7147C42.6546 35.3433 42.1991 34.8551 41.8541 34.2498C41.5228 33.6446 41.3571 33.005 41.3571 32.331V30.1027C41.3571 29.3875 41.5228 28.741 41.8541 28.1632C42.1991 27.5718 42.6546 27.1041 43.2206 26.7602C43.7865 26.4026 44.4077 26.2238 45.0841 26.2238C45.7604 26.2238 46.3264 26.3889 46.7819 26.719C47.2512 27.0354 47.5963 27.3929 47.8172 27.7919V20.88C47.8172 20.7149 47.8861 20.5912 48.0243 20.5086C48.1623 20.4124 48.321 20.3642 48.5005 20.3642C48.7075 20.3642 48.8662 20.4124 48.9767 20.5086C49.1009 20.5912 49.163 20.7149 49.163 20.88V35.5703C49.163 35.7078 49.1009 35.8316 48.9767 35.9417C48.8662 36.0517 48.7075 36.1067 48.5005 36.1067C48.3348 36.1067 48.183 36.0517 48.045 35.9417C47.9207 35.8316 47.8586 35.7078 47.8586 35.5703V34.6625C47.6516 35.0888 47.2857 35.4602 46.7612 35.7766C46.2504 36.093 45.6707 36.2512 45.022 36.2512ZM45.2704 35.0132C45.7674 35.0132 46.2022 34.8894 46.5749 34.6418C46.9613 34.3805 47.265 34.0917 47.4859 33.7753C47.7067 33.4451 47.8172 33.1769 47.8172 32.9706V30.1027C47.8172 29.5387 47.693 29.0642 47.4445 28.6791C47.196 28.294 46.8785 27.9982 46.4921 27.7919C46.1055 27.5718 45.7053 27.4617 45.2912 27.4617C44.8218 27.4617 44.3939 27.5925 44.0074 27.8538C43.6209 28.1014 43.3103 28.4246 43.0757 28.8235C42.841 29.2224 42.7237 29.6488 42.7237 30.1027V32.331C42.7237 32.7849 42.841 33.2182 43.0757 33.6308C43.3103 34.0435 43.6209 34.3805 44.0074 34.6418C44.3939 34.8894 44.8149 35.0132 45.2704 35.0132ZM55.6309 36.2512C54.8992 36.2512 54.2297 36.0724 53.6224 35.7147C53.0288 35.357 52.5526 34.8825 52.1938 34.2911C51.8486 33.6858 51.6761 33.0462 51.6761 32.3723V26.884C51.6761 26.7465 51.7451 26.6227 51.8832 26.5127C52.0212 26.4026 52.1799 26.3476 52.3594 26.3476C52.5388 26.3476 52.6907 26.4026 52.8149 26.5127C52.9529 26.6227 53.022 26.7465 53.022 26.884V32.3723C53.022 32.8262 53.1393 33.2525 53.374 33.6515C53.6086 34.0504 53.9191 34.3805 54.3057 34.6418C54.6922 34.8894 55.127 35.0132 55.6101 35.0132C56.1071 35.0132 56.5487 34.8894 56.9353 34.6418C57.3218 34.3942 57.6254 34.071 57.8463 33.6721C58.0809 33.2595 58.1983 32.8262 58.1983 32.3723V26.8634C58.1983 26.7121 58.2673 26.5883 58.4054 26.492C58.5434 26.3958 58.7021 26.3476 58.8816 26.3476C59.0886 26.3476 59.2473 26.3958 59.3578 26.492C59.482 26.5883 59.5442 26.7121 59.5442 26.8634V32.3723C59.5442 33.0738 59.3646 33.7203 59.0058 34.3117C58.6607 34.8894 58.1844 35.357 57.5772 35.7147C56.9835 36.0724 56.3348 36.2512 55.6309 36.2512ZM62.8796 36.1067C62.7002 36.1067 62.5414 36.0517 62.4033 35.9417C62.2791 35.8316 62.217 35.7078 62.217 35.5703V20.88C62.217 20.7149 62.2791 20.5912 62.4033 20.5086C62.5414 20.4124 62.7002 20.3642 62.8796 20.3642C63.0729 20.3642 63.2316 20.4124 63.3558 20.5086C63.4939 20.5912 63.5628 20.7149 63.5628 20.88V35.5703C63.5628 35.7078 63.4939 35.8316 63.3558 35.9417C63.2316 36.0517 63.0729 36.1067 62.8796 36.1067ZM69.8989 36.2512C69.1949 36.2512 68.5461 36.0724 67.9526 35.7147C67.3591 35.3433 66.8759 34.8619 66.5032 34.2704C66.1443 33.6652 65.9649 33.0188 65.9649 32.331V30.1027C65.9649 29.4012 66.1374 28.7616 66.4825 28.1839C66.8414 27.5925 67.3176 27.1179 67.9112 26.7602C68.5186 26.4026 69.1811 26.2238 69.8989 26.2238C70.6029 26.2238 71.2517 26.4026 71.8452 26.7602C72.4526 27.1041 72.9356 27.5649 73.2945 28.1426C73.6535 28.7203 73.8329 29.3736 73.8329 30.1027V32.331C73.8329 33.005 73.6535 33.6446 73.2945 34.2498C72.9356 34.8551 72.4526 35.3433 71.8452 35.7147C71.2517 36.0724 70.6029 36.2512 69.8989 36.2512ZM69.8989 35.0132C70.382 35.0132 70.8168 34.8894 71.2033 34.6418C71.5898 34.3805 71.9004 34.0435 72.135 33.6308C72.3697 33.2182 72.487 32.7849 72.487 32.331V30.1027C72.487 29.6488 72.3697 29.2224 72.135 28.8235C71.9142 28.4246 71.6036 28.1014 71.2033 27.8538C70.8168 27.5925 70.382 27.4617 69.8989 27.4617C69.4157 27.4617 68.9809 27.5925 68.5944 27.8538C68.208 28.1014 67.8974 28.4246 67.6627 28.8235C67.428 29.2224 67.3107 29.6488 67.3107 30.1027V32.331C67.3107 32.7849 67.428 33.2182 67.6627 33.6308C67.8974 34.0435 68.208 34.3805 68.5944 34.6418C68.9948 34.8894 69.4296 35.0132 69.8989 35.0132ZM84.4328 36.2305C83.6323 36.2305 82.9007 36.0861 82.2381 35.7972C81.5893 35.5084 81.0717 35.0408 80.6852 34.3942C80.2987 33.7477 80.1054 32.8881 80.1054 31.8152V25.4398C80.1054 24.3669 80.2987 23.5072 80.6852 22.8607C81.0717 22.2142 81.5893 21.7466 82.2381 21.4577C82.9007 21.1689 83.646 21.0244 84.4743 21.0244C85.1645 21.0244 85.7718 21.1207 86.2963 21.3133C86.8347 21.5059 87.2832 21.7741 87.6422 22.118C88.0011 22.4618 88.2703 22.8401 88.4497 23.2527C88.643 23.6654 88.7395 24.0987 88.7395 24.5526C88.7395 24.7726 88.6774 24.9377 88.5532 25.0478C88.4427 25.144 88.291 25.1922 88.0977 25.1922C87.9044 25.1922 87.7319 25.1509 87.5801 25.0684C87.4421 24.9721 87.373 24.8208 87.373 24.6145C87.373 24.133 87.2418 23.7204 86.9796 23.3765C86.7174 23.0327 86.3584 22.7645 85.9029 22.5719C85.4612 22.3793 84.9712 22.283 84.4328 22.283C83.508 22.283 82.7834 22.5375 82.2588 23.0464C81.7481 23.5553 81.4927 24.3532 81.4927 25.4398V28.5759C81.8377 28.0944 82.2795 27.7506 82.8178 27.5443C83.3699 27.3242 83.9704 27.2142 84.6192 27.2142C85.3784 27.2142 86.0686 27.338 86.6897 27.5855C87.3109 27.8331 87.8078 28.2595 88.1805 28.8648C88.5532 29.4562 88.7395 30.2747 88.7395 31.32V31.8152C88.7395 32.8881 88.5463 33.7477 88.1598 34.3942C87.7733 35.0408 87.2557 35.5084 86.6069 35.7972C85.972 36.0861 85.2473 36.2305 84.4328 36.2305ZM84.4328 35.0132C85.3577 35.0132 86.0755 34.7587 86.5862 34.2498C87.0969 33.7409 87.3523 32.95 87.3523 31.8771V31.3819C87.3523 30.2953 87.0969 29.525 86.5862 29.0711C86.0755 28.6172 85.3577 28.3902 84.4328 28.3902C83.5356 28.3902 82.8178 28.6034 82.2795 29.0298C81.7549 29.4562 81.4927 30.1783 81.4927 31.1962V31.8771C81.4927 32.95 81.7481 33.7409 82.2588 34.2498C82.7834 34.7587 83.508 35.0132 84.4328 35.0132ZM19.7027 68.087C19.5232 68.087 19.3645 68.0457 19.2265 67.9632C19.0884 67.8669 19.0195 67.7293 19.0195 67.5505V53.6649C19.0195 53.4173 19.0884 53.2454 19.2265 53.1491C19.3645 53.0529 19.5232 53.0047 19.7027 53.0047C19.8684 53.0047 20.0133 53.0529 20.1375 53.1491C20.2755 53.2316 20.3998 53.3485 20.5102 53.4999C20.6206 53.6374 20.7173 53.7956 20.8001 53.9744L24.3614 60.8037L27.902 53.9744C28.0124 53.7956 28.1159 53.6374 28.2126 53.4999C28.323 53.3485 28.4472 53.2316 28.5853 53.1491C28.7233 53.0529 28.8682 53.0047 29.0201 53.0047C29.2133 53.0047 29.3721 53.0529 29.4963 53.1491C29.6343 53.2454 29.7034 53.4173 29.7034 53.6649V67.5505C29.7034 67.7293 29.6343 67.8669 29.4963 67.9632C29.3582 68.0457 29.1995 68.087 29.0201 68.087C28.8545 68.087 28.6957 68.0457 28.5439 67.9632C28.4058 67.8669 28.3368 67.7293 28.3368 67.5505V55.9551L24.8998 62.4337C24.8169 62.5987 24.7272 62.7156 24.6306 62.7844C24.5339 62.8532 24.4373 62.8876 24.3407 62.8876C24.2579 62.8876 24.1681 62.8532 24.0715 62.7844C23.9748 62.7156 23.8783 62.5987 23.7817 62.4337L20.386 55.9138V67.5505C20.386 67.7293 20.31 67.8669 20.1582 67.9632C20.0201 68.0457 19.8684 68.087 19.7027 68.087ZM36.0404 68.2314C35.3365 68.2314 34.6877 68.0526 34.0941 67.695C33.5006 67.3236 33.0175 66.8421 32.6448 66.2507C32.2858 65.6454 32.1064 64.999 32.1064 64.3112V62.0829C32.1064 61.3814 32.279 60.7418 32.6241 60.1641C32.983 59.5727 33.4592 59.0981 34.0527 58.7405C34.6601 58.3828 35.3227 58.204 36.0404 58.204C36.7444 58.204 37.3932 58.3828 37.9867 58.7405C38.5941 59.0843 39.0772 59.5451 39.4361 60.1229C39.795 60.7006 39.9744 61.3539 39.9744 62.0829V64.3112C39.9744 64.9852 39.795 65.6248 39.4361 66.23C39.0772 66.8353 38.5941 67.3236 37.9867 67.695C37.3932 68.0526 36.7444 68.2314 36.0404 68.2314ZM36.0404 66.9935C36.5236 66.9935 36.9584 66.8697 37.3449 66.6221C37.7313 66.3608 38.0419 66.0237 38.2766 65.6111C38.5113 65.1984 38.6286 64.7651 38.6286 64.3112V62.0829C38.6286 61.629 38.5113 61.2026 38.2766 60.8037C38.0558 60.4048 37.7452 60.0816 37.3449 59.834C36.9584 59.5727 36.5236 59.442 36.0404 59.442C35.5573 59.442 35.1225 59.5727 34.736 59.834C34.3495 60.0816 34.039 60.4048 33.8043 60.8037C33.5696 61.2026 33.4523 61.629 33.4523 62.0829V64.3112C33.4523 64.7651 33.5696 65.1984 33.8043 65.6111C34.039 66.0237 34.3495 66.3608 34.736 66.6221C35.1363 66.8697 35.5712 66.9935 36.0404 66.9935ZM45.4769 68.2314C44.8419 68.2314 44.2415 68.0526 43.6755 67.695C43.1095 67.3236 42.654 66.8353 42.309 66.23C41.9777 65.6248 41.812 64.9852 41.812 64.3112V62.0829C41.812 61.3677 41.9777 60.7212 42.309 60.1435C42.654 59.5521 43.1095 59.0843 43.6755 58.7405C44.2415 58.3828 44.8627 58.204 45.539 58.204C46.2153 58.204 46.7813 58.3691 47.2368 58.6992C47.7061 59.0156 48.0513 59.3732 48.2721 59.7721V52.8602C48.2721 52.6952 48.3411 52.5714 48.4791 52.4889C48.6171 52.3926 48.776 52.3444 48.9554 52.3444C49.1624 52.3444 49.3211 52.3926 49.4316 52.4889C49.5558 52.5714 49.6179 52.6952 49.6179 52.8602V67.5505C49.6179 67.688 49.5558 67.8118 49.4316 67.9219C49.3211 68.032 49.1624 68.087 48.9554 68.087C48.7897 68.087 48.6379 68.032 48.4999 67.9219C48.3756 67.8118 48.3135 67.688 48.3135 67.5505V66.6427C48.1065 67.0691 47.7407 67.4405 47.2161 67.7569C46.7054 68.0732 46.1257 68.2314 45.4769 68.2314ZM45.7253 66.9935C46.2223 66.9935 46.6571 66.8697 47.0298 66.6221C47.4162 66.3608 47.72 66.0719 47.9408 65.7555C48.1616 65.4254 48.2721 65.1572 48.2721 64.9508V62.0829C48.2721 61.519 48.1479 61.0444 47.8994 60.6593C47.6509 60.2742 47.3334 59.9784 46.947 59.7721C46.5605 59.5521 46.1602 59.442 45.746 59.442C45.2768 59.442 44.8488 59.5727 44.4623 59.834C44.0759 60.0816 43.7653 60.4048 43.5306 60.8037C43.2959 61.2026 43.1786 61.629 43.1786 62.0829V64.3112C43.1786 64.7651 43.2959 65.1984 43.5306 65.6111C43.7653 66.0237 44.0759 66.3608 44.4623 66.6221C44.8488 66.8697 45.2698 66.9935 45.7253 66.9935ZM56.0858 68.2314C55.3541 68.2314 54.6847 68.0526 54.0773 67.695C53.4838 67.3373 53.0076 66.8627 52.6487 66.2713C52.3036 65.6661 52.131 65.0265 52.131 64.3525V58.8643C52.131 58.7268 52.2001 58.603 52.3381 58.4929C52.4761 58.3828 52.6349 58.3278 52.8143 58.3278C52.9937 58.3278 53.1456 58.3828 53.2698 58.4929C53.4078 58.603 53.4769 58.7268 53.4769 58.8643V64.3525C53.4769 64.8064 53.5942 65.2328 53.8289 65.6317C54.0636 66.0306 54.3742 66.3608 54.7606 66.6221C55.1471 66.8697 55.5819 66.9935 56.065 66.9935C56.562 66.9935 57.0037 66.8697 57.3902 66.6221C57.7766 66.3745 58.0804 66.0513 58.3012 65.6523C58.5359 65.2397 58.6532 64.8064 58.6532 64.3525V58.8436C58.6532 58.6923 58.7223 58.5685 58.8603 58.4723C58.9983 58.376 59.1571 58.3278 59.3365 58.3278C59.5435 58.3278 59.7022 58.376 59.8127 58.4723C59.9369 58.5685 59.9991 58.6923 59.9991 58.8436V64.3525C59.9991 65.054 59.8196 65.7005 59.4607 66.292C59.1157 66.8697 58.6394 67.3373 58.032 67.695C57.4385 68.0526 56.7897 68.2314 56.0858 68.2314ZM63.3346 68.087C63.1552 68.087 62.9964 68.032 62.8584 67.9219C62.7341 67.8118 62.672 67.688 62.672 67.5505V52.8602C62.672 52.6952 62.7341 52.5714 62.8584 52.4889C62.9964 52.3926 63.1552 52.3444 63.3346 52.3444C63.5279 52.3444 63.6866 52.3926 63.8108 52.4889C63.9488 52.5714 64.0178 52.6952 64.0178 52.8602V67.5505C64.0178 67.688 63.9488 67.8118 63.8108 67.9219C63.6866 68.032 63.5279 68.087 63.3346 68.087ZM70.3538 68.2314C69.6498 68.2314 69.0011 68.0526 68.4075 67.695C67.814 67.3236 67.3308 66.8421 66.9581 66.2507C66.5993 65.6454 66.4198 64.999 66.4198 64.3112V62.0829C66.4198 61.3814 66.5923 60.7418 66.9374 60.1641C67.2963 59.5727 67.7725 59.0981 68.3661 58.7405C68.9735 58.3828 69.636 58.204 70.3538 58.204C71.0577 58.204 71.7066 58.3828 72.3001 58.7405C72.9075 59.0843 73.3906 59.5451 73.7494 60.1229C74.1084 60.7006 74.2878 61.3539 74.2878 62.0829V64.3112C74.2878 64.9852 74.1084 65.6248 73.7494 66.23C73.3906 66.8353 72.9075 67.3236 72.3001 67.695C71.7066 68.0526 71.0577 68.2314 70.3538 68.2314ZM70.3538 66.9935C70.8369 66.9935 71.2717 66.8697 71.6582 66.6221C72.0448 66.3608 72.3554 66.0237 72.5899 65.6111C72.8246 65.1984 72.9419 64.7651 72.9419 64.3112V62.0829C72.9419 61.629 72.8246 61.2026 72.5899 60.8037C72.3691 60.4048 72.0585 60.0816 71.6582 59.834C71.2717 59.5727 70.8369 59.442 70.3538 59.442C69.8707 59.442 69.4359 59.5727 69.0493 59.834C68.6629 60.0816 68.3523 60.4048 68.1176 60.8037C67.883 61.2026 67.7656 61.629 67.7656 62.0829V64.3112C67.7656 64.7651 67.883 65.1984 68.1176 65.6111C68.3523 66.0237 68.6629 66.3608 69.0493 66.6221C69.4497 66.8697 69.8845 66.9935 70.3538 66.9935ZM84.2253 68.2108C83.328 68.2108 82.555 68.0526 81.9063 67.7362C81.2575 67.4061 80.7606 66.9797 80.4155 66.457C80.0842 65.9206 79.9186 65.3359 79.9186 64.7033C79.9186 64.4419 79.9807 64.2631 80.1049 64.1668C80.2292 64.0706 80.3948 64.0224 80.6019 64.0224C80.8503 64.0224 81.0228 64.0774 81.1195 64.1874C81.2298 64.2975 81.2851 64.435 81.2851 64.6001C81.2851 65.0953 81.4162 65.5216 81.6785 65.8793C81.9408 66.2231 82.2927 66.4914 82.7345 66.684C83.1761 66.8627 83.6662 66.9522 84.2046 66.9522C85.1294 66.9522 85.8541 66.6977 86.3786 66.1888C86.9031 65.6799 87.1654 64.8959 87.1654 63.8367V63.4447C87.1654 62.4131 86.9031 61.6497 86.3786 61.1545C85.8541 60.6593 85.1431 60.4117 84.246 60.4117H81.3472C81.0711 60.4117 80.8848 60.3635 80.7882 60.2673C80.6915 60.1572 80.6433 60.0266 80.6433 59.8753C80.6433 59.7927 80.6433 59.7239 80.6433 59.6689C80.657 59.6001 80.6708 59.5314 80.6847 59.4626L81.0988 53.5411C81.1126 53.3761 81.154 53.2454 81.223 53.1491C81.292 53.0529 81.3886 53.0047 81.5129 53.0047H87.3311C87.4828 53.0047 87.5933 53.0735 87.6624 53.211C87.7452 53.3348 87.7866 53.4792 87.7866 53.6443C87.7866 53.7956 87.7452 53.94 87.6624 54.0776C87.5933 54.2014 87.4828 54.2633 87.3311 54.2633H82.3204L81.9684 59.215H84.246C85.0465 59.215 85.7712 59.3525 86.42 59.6277C87.0687 59.9028 87.5795 60.3498 87.9522 60.9688C88.3387 61.5878 88.532 62.4131 88.532 63.4447V63.8367C88.532 64.8959 88.3387 65.7486 87.9522 66.3951C87.5795 67.0278 87.0619 67.4886 86.3993 67.7775C85.7505 68.0663 85.0258 68.2108 84.2253 68.2108ZM20.0161 100.067C19.8367 100.067 19.6779 100.026 19.5399 99.9434C19.4019 99.8472 19.3328 99.7095 19.3328 99.5308V85.6451C19.3328 85.3976 19.4019 85.2256 19.5399 85.1293C19.6779 85.0331 19.8367 84.9849 20.0161 84.9849C20.1817 84.9849 20.3267 85.0331 20.4509 85.1293C20.5889 85.2119 20.7131 85.3288 20.8236 85.4801C20.9341 85.6176 21.0307 85.7759 21.1135 85.9546L24.6748 92.784L28.2154 85.9546C28.3259 85.7759 28.4294 85.6176 28.526 85.4801C28.6364 85.3288 28.7607 85.2119 28.8987 85.1293C29.0367 85.0331 29.1816 84.9849 29.3335 84.9849C29.5268 84.9849 29.6855 85.0331 29.8097 85.1293C29.9477 85.2256 30.0168 85.3976 30.0168 85.6451V99.5308C30.0168 99.7095 29.9477 99.8472 29.8097 99.9434C29.6717 100.026 29.5129 100.067 29.3335 100.067C29.1678 100.067 29.0091 100.026 28.8573 99.9434C28.7193 99.8472 28.6502 99.7095 28.6502 99.5308V87.9353L25.2131 94.4139C25.1303 94.579 25.0405 94.6959 24.944 94.7647C24.8474 94.8335 24.7507 94.8678 24.6541 94.8678C24.5713 94.8678 24.4815 94.8335 24.3849 94.7647C24.2883 94.6959 24.1916 94.579 24.095 94.4139L20.6994 87.8941V99.5308C20.6994 99.7095 20.6235 99.8472 20.4716 99.9434C20.3336 100.026 20.1817 100.067 20.0161 100.067ZM36.3538 100.212C35.6498 100.212 35.0011 100.033 34.4075 99.6752C33.814 99.3038 33.3308 98.8224 32.9581 98.2309C32.5993 97.6257 32.4198 96.9793 32.4198 96.2915V94.0632C32.4198 93.3617 32.5924 92.7221 32.9374 92.1444C33.2964 91.5529 33.7726 91.0784 34.3661 90.7207C34.9735 90.3631 35.6361 90.1843 36.3538 90.1843C37.0578 90.1843 37.7066 90.3631 38.3001 90.7207C38.9075 91.0646 39.3907 91.5254 39.7495 92.1031C40.1084 92.6808 40.2878 93.3341 40.2878 94.0632V96.2915C40.2878 96.9654 40.1084 97.605 39.7495 98.2103C39.3907 98.8155 38.9075 99.3038 38.3001 99.6752C37.7066 100.033 37.0578 100.212 36.3538 100.212ZM36.3538 98.9737C36.837 98.9737 37.2718 98.8499 37.6582 98.6023C38.0448 98.341 38.3554 98.004 38.59 97.5913C38.8247 97.1787 38.942 96.7454 38.942 96.2915V94.0632C38.942 93.6093 38.8247 93.1829 38.59 92.784C38.3692 92.385 38.0586 92.0618 37.6582 91.8142C37.2718 91.5529 36.837 91.4222 36.3538 91.4222C35.8708 91.4222 35.436 91.5529 35.0494 91.8142C34.6629 92.0618 34.3523 92.385 34.1176 92.784C33.8831 93.1829 33.7657 93.6093 33.7657 94.0632V96.2915C33.7657 96.7454 33.8831 97.1787 34.1176 97.5913C34.3523 98.004 34.6629 98.341 35.0494 98.6023C35.4497 98.8499 35.8845 98.9737 36.3538 98.9737ZM45.7903 100.212C45.1553 100.212 44.5549 100.033 43.9889 99.6752C43.423 99.3038 42.9675 98.8155 42.6223 98.2103C42.2911 97.605 42.1254 96.9654 42.1254 96.2915V94.0632C42.1254 93.348 42.2911 92.7014 42.6223 92.1237C42.9675 91.5323 43.423 91.0646 43.9889 90.7207C44.5549 90.3631 45.176 90.1843 45.8524 90.1843C46.5288 90.1843 47.0947 90.3493 47.5502 90.6795C48.0196 90.9959 48.3646 91.3534 48.5855 91.7523V84.8405C48.5855 84.6754 48.6545 84.5516 48.7925 84.4691C48.9306 84.3729 49.0893 84.3247 49.2687 84.3247C49.4758 84.3247 49.6346 84.3729 49.745 84.4691C49.8692 84.5516 49.9313 84.6754 49.9313 84.8405V99.5308C49.9313 99.6683 49.8692 99.7921 49.745 99.9021C49.6346 100.012 49.4758 100.067 49.2687 100.067C49.1031 100.067 48.9513 100.012 48.8132 99.9021C48.689 99.7921 48.6269 99.6683 48.6269 99.5308V98.6229C48.4198 99.0493 48.0541 99.4207 47.5295 99.7371C47.0188 100.053 46.4391 100.212 45.7903 100.212ZM46.0387 98.9737C46.5356 98.9737 46.9705 98.8499 47.3431 98.6023C47.7297 98.341 48.0334 98.0521 48.2542 97.7357C48.4751 97.4056 48.5855 97.1374 48.5855 96.9311V94.0632C48.5855 93.4992 48.4612 93.0246 48.2128 92.6395C47.9643 92.2544 47.6469 91.9587 47.2603 91.7523C46.8739 91.5323 46.4735 91.4222 46.0594 91.4222C45.5901 91.4222 45.1623 91.5529 44.7757 91.8142C44.3892 92.0618 44.0786 92.385 43.844 92.784C43.6094 93.1829 43.492 93.6093 43.492 94.0632V96.2915C43.492 96.7454 43.6094 97.1787 43.844 97.5913C44.0786 98.004 44.3892 98.341 44.7757 98.6023C45.1623 98.8499 45.5832 98.9737 46.0387 98.9737ZM56.3991 100.212C55.6676 100.212 54.9981 100.033 54.3907 99.6752C53.7972 99.3175 53.321 98.843 52.962 98.2516C52.617 97.6463 52.4444 97.0067 52.4444 96.3327V90.8445C52.4444 90.707 52.5135 90.5832 52.6515 90.4731C52.7896 90.3631 52.9483 90.3081 53.1277 90.3081C53.3072 90.3081 53.459 90.3631 53.5832 90.4731C53.7213 90.5832 53.7903 90.707 53.7903 90.8445V96.3327C53.7903 96.7867 53.9077 97.213 54.1422 97.612C54.3769 98.0109 54.6875 98.341 55.074 98.6023C55.4606 98.8499 55.8954 98.9737 56.3784 98.9737C56.8753 98.9737 57.3171 98.8499 57.7036 98.6023C58.0901 98.3547 58.3938 98.0315 58.6146 97.6326C58.8493 97.2199 58.9666 96.7867 58.9666 96.3327V90.8239C58.9666 90.6725 59.0356 90.5488 59.1736 90.4525C59.3117 90.3563 59.4704 90.3081 59.6499 90.3081C59.8569 90.3081 60.0157 90.3563 60.1261 90.4525C60.2503 90.5488 60.3124 90.6725 60.3124 90.8239V96.3327C60.3124 97.0342 60.133 97.6808 59.7741 98.2722C59.429 98.8499 58.9528 99.3175 58.3454 99.6752C57.7519 100.033 57.1031 100.212 56.3991 100.212ZM63.6479 100.067C63.4685 100.067 63.3098 100.012 63.1717 99.9021C63.0475 99.7921 62.9854 99.6683 62.9854 99.5308V84.8405C62.9854 84.6754 63.0475 84.5516 63.1717 84.4691C63.3098 84.3729 63.4685 84.3247 63.6479 84.3247C63.8412 84.3247 63.9999 84.3729 64.1242 84.4691C64.2623 84.5516 64.3312 84.6754 64.3312 84.8405V99.5308C64.3312 99.6683 64.2623 99.7921 64.1242 99.9021C63.9999 100.012 63.8412 100.067 63.6479 100.067ZM70.6672 100.212C69.9633 100.212 69.3145 100.033 68.7209 99.6752C68.1273 99.3038 67.6443 98.8224 67.2716 98.2309C66.9127 97.6257 66.7332 96.9793 66.7332 96.2915V94.0632C66.7332 93.3617 66.9057 92.7221 67.2509 92.1444C67.6097 91.5529 68.0859 91.0784 68.6795 90.7207C69.2868 90.3631 69.9494 90.1843 70.6672 90.1843C71.3712 90.1843 72.0199 90.3631 72.6135 90.7207C73.2208 91.0646 73.704 91.5254 74.0629 92.1031C74.4217 92.6808 74.6012 93.3341 74.6012 94.0632V96.2915C74.6012 96.9654 74.4217 97.605 74.0629 98.2103C73.704 98.8155 73.2208 99.3038 72.6135 99.6752C72.0199 100.033 71.3712 100.212 70.6672 100.212ZM70.6672 98.9737C71.1503 98.9737 71.5851 98.8499 71.9717 98.6023C72.3581 98.341 72.6687 98.004 72.9034 97.5913C73.138 97.1787 73.2554 96.7454 73.2554 96.2915V94.0632C73.2554 93.6093 73.138 93.1829 72.9034 92.784C72.6825 92.385 72.3719 92.0618 71.9717 91.8142C71.5851 91.5529 71.1503 91.4222 70.6672 91.4222C70.1841 91.4222 69.7493 91.5529 69.3628 91.8142C68.9762 92.0618 68.6657 92.385 68.4311 92.784C68.1964 93.1829 68.0791 93.6093 68.0791 94.0632V96.2915C68.0791 96.7454 68.1964 97.1787 68.4311 97.5913C68.6657 98.004 68.9762 98.341 69.3628 98.6023C69.763 98.8499 70.1979 98.9737 70.6672 98.9737ZM86.2986 100.067C86.133 100.067 85.9743 100.026 85.8224 99.9434C85.6844 99.8472 85.6153 99.7095 85.6153 99.5308V96.5184H80.3562C80.1905 96.5184 80.0594 96.4703 79.9628 96.374C79.8662 96.2639 79.8178 96.1264 79.8178 95.9614C79.8178 95.8925 79.8248 95.8306 79.8386 95.7757C79.8523 95.7207 79.873 95.6656 79.9007 95.6106L85.0977 85.4182C85.1667 85.2531 85.2564 85.1431 85.3669 85.0881C85.4911 85.0193 85.6153 84.9849 85.7396 84.9849C85.8361 84.9849 85.9328 85.0125 86.0294 85.0674C86.1399 85.1087 86.2296 85.1706 86.2986 85.2531C86.3677 85.3357 86.4021 85.4319 86.4021 85.542C86.4021 85.6108 86.3814 85.7001 86.34 85.8102L81.5778 95.2186H85.6153V91.2365C85.6153 91.0578 85.6844 90.934 85.8224 90.8652C85.9743 90.7826 86.133 90.7414 86.2986 90.7414C86.478 90.7414 86.6368 90.7826 86.7748 90.8652C86.9128 90.934 86.9819 91.0578 86.9819 91.2365V95.2186H88.1207C88.3001 95.2186 88.4312 95.2874 88.5141 95.4249C88.6107 95.5487 88.659 95.6931 88.659 95.8582C88.659 96.0233 88.6038 96.1746 88.4934 96.3121C88.3968 96.4496 88.2725 96.5184 88.1207 96.5184H86.9819V99.5308C86.9819 99.7095 86.9128 99.8472 86.7748 99.9434C86.6368 100.026 86.478 100.067 86.2986 100.067ZM19.5611 132.047C19.3817 132.047 19.223 132.006 19.0849 131.924C18.9469 131.828 18.8778 131.689 18.8778 131.511V117.625C18.8778 117.378 18.9469 117.206 19.0849 117.11C19.223 117.014 19.3817 116.965 19.5611 116.965C19.7267 116.965 19.8717 117.014 19.9959 117.11C20.134 117.192 20.2582 117.309 20.3686 117.46C20.4791 117.598 20.5757 117.756 20.6585 117.935L24.2198 124.764L27.7604 117.935C27.8709 117.756 27.9744 117.598 28.071 117.46C28.1814 117.309 28.3057 117.192 28.4437 117.11C28.5818 117.014 28.7267 116.965 28.8785 116.965C29.0718 116.965 29.2305 117.014 29.3547 117.11C29.4928 117.206 29.5618 117.378 29.5618 117.625V131.511C29.5618 131.689 29.4928 131.828 29.3547 131.924C29.2167 132.006 29.058 132.047 28.8785 132.047C28.7128 132.047 28.5541 132.006 28.4023 131.924C28.2643 131.828 28.1952 131.689 28.1952 131.511V119.916L24.7581 126.394C24.6753 126.559 24.5857 126.676 24.489 126.745C24.3924 126.814 24.2958 126.848 24.1991 126.848C24.1163 126.848 24.0266 126.814 23.9299 126.745C23.8333 126.676 23.7367 126.559 23.64 126.394L20.2444 119.874V131.511C20.2444 131.689 20.1685 131.828 20.0166 131.924C19.8786 132.006 19.7267 132.047 19.5611 132.047ZM35.8989 132.192C35.1949 132.192 34.5461 132.013 33.9526 131.655C33.3591 131.284 32.8759 130.802 32.5033 130.211C32.1443 129.606 31.9649 128.96 31.9649 128.272V126.043C31.9649 125.342 32.1375 124.702 32.4825 124.125C32.8415 123.533 33.3177 123.059 33.9112 122.701C34.5186 122.343 35.1812 122.165 35.8989 122.165C36.6029 122.165 37.2517 122.343 37.8452 122.701C38.4526 123.044 38.9357 123.506 39.2946 124.083C39.6535 124.661 39.8329 125.314 39.8329 126.043V128.272C39.8329 128.945 39.6535 129.585 39.2946 130.191C38.9357 130.796 38.4526 131.284 37.8452 131.655C37.2517 132.013 36.6029 132.192 35.8989 132.192ZM35.8989 130.954C36.3821 130.954 36.8169 130.83 37.2034 130.583C37.5898 130.322 37.9004 129.984 38.1351 129.572C38.3698 129.159 38.4871 128.726 38.4871 128.272V126.043C38.4871 125.59 38.3698 125.163 38.1351 124.764C37.9143 124.365 37.6037 124.042 37.2034 123.794C36.8169 123.533 36.3821 123.402 35.8989 123.402C35.4158 123.402 34.981 123.533 34.5945 123.794C34.208 124.042 33.8974 124.365 33.6628 124.764C33.4281 125.163 33.3108 125.59 33.3108 126.043V128.272C33.3108 128.726 33.4281 129.159 33.6628 129.572C33.8974 129.984 34.208 130.322 34.5945 130.583C34.9948 130.83 35.4296 130.954 35.8989 130.954ZM45.3354 132.192C44.7004 132.192 44.1 132.013 43.534 131.655C42.968 131.284 42.5125 130.796 42.1674 130.191C41.8362 129.585 41.6705 128.945 41.6705 128.272V126.043C41.6705 125.329 41.8362 124.682 42.1674 124.104C42.5125 123.513 42.968 123.044 43.534 122.701C44.1 122.343 44.7211 122.165 45.3975 122.165C46.0738 122.165 46.6398 122.33 47.0953 122.66C47.5646 122.976 47.9097 123.333 48.1306 123.733V116.821C48.1306 116.656 48.1996 116.532 48.3376 116.449C48.4756 116.353 48.6344 116.305 48.8138 116.305C49.0209 116.305 49.1796 116.353 49.2901 116.449C49.4143 116.532 49.4764 116.656 49.4764 116.821V131.511C49.4764 131.648 49.4143 131.772 49.2901 131.882C49.1796 131.993 49.0209 132.047 48.8138 132.047C48.6482 132.047 48.4963 131.993 48.3583 131.882C48.2341 131.772 48.172 131.648 48.172 131.511V130.603C47.9649 131.029 47.5992 131.401 47.0746 131.717C46.5639 132.034 45.9842 132.192 45.3354 132.192ZM45.5838 130.954C46.0807 130.954 46.5156 130.83 46.8883 130.583C47.2747 130.322 47.5785 130.033 47.7993 129.716C48.0201 129.386 48.1306 129.118 48.1306 128.911V126.043C48.1306 125.479 48.0063 125.005 47.7579 124.62C47.5094 124.235 47.1919 123.939 46.8054 123.733C46.419 123.513 46.0186 123.402 45.6045 123.402C45.1352 123.402 44.7073 123.533 44.3208 123.794C43.9343 124.042 43.6238 124.365 43.3891 124.764C43.1544 125.163 43.0371 125.59 43.0371 126.043V128.272C43.0371 128.726 43.1544 129.159 43.3891 129.572C43.6238 129.984 43.9343 130.322 44.3208 130.583C44.7073 130.83 45.1283 130.954 45.5838 130.954ZM55.9442 132.192C55.2126 132.192 54.5432 132.013 53.9358 131.655C53.3423 131.297 52.8661 130.823 52.5072 130.232C52.1621 129.626 51.9895 128.987 51.9895 128.313V122.825C51.9895 122.688 52.0586 122.564 52.1966 122.453C52.3346 122.343 52.4934 122.288 52.6728 122.288C52.8522 122.288 53.0041 122.343 53.1283 122.453C53.2663 122.564 53.3354 122.688 53.3354 122.825V128.313C53.3354 128.767 53.4527 129.193 53.6874 129.592C53.922 129.991 54.2326 130.322 54.6191 130.583C55.0056 130.83 55.4404 130.954 55.9235 130.954C56.4205 130.954 56.8622 130.83 57.2487 130.583C57.6351 130.335 57.9389 130.012 58.1597 129.613C58.3944 129.2 58.5117 128.767 58.5117 128.313V122.804C58.5117 122.652 58.5807 122.529 58.7187 122.433C58.8567 122.337 59.0155 122.288 59.195 122.288C59.402 122.288 59.5607 122.337 59.6712 122.433C59.7954 122.529 59.8575 122.652 59.8575 122.804V128.313C59.8575 129.014 59.6781 129.661 59.3192 130.252C58.9741 130.83 58.4979 131.297 57.8905 131.655C57.297 132.013 56.6482 132.192 55.9442 132.192ZM63.193 132.047C63.0135 132.047 62.8548 131.993 62.7168 131.882C62.5926 131.772 62.5305 131.648 62.5305 131.511V116.821C62.5305 116.656 62.5926 116.532 62.7168 116.449C62.8548 116.353 63.0135 116.305 63.193 116.305C63.3862 116.305 63.545 116.353 63.6693 116.449C63.8073 116.532 63.8763 116.656 63.8763 116.821V131.511C63.8763 131.648 63.8073 131.772 63.6693 131.882C63.545 131.993 63.3862 132.047 63.193 132.047ZM70.2122 132.192C69.5083 132.192 68.8596 132.013 68.2659 131.655C67.6724 131.284 67.1893 130.802 66.8166 130.211C66.4578 129.606 66.2782 128.96 66.2782 128.272V126.043C66.2782 125.342 66.4508 124.702 66.7959 124.125C67.1548 123.533 67.631 123.059 68.2245 122.701C68.8319 122.343 69.4945 122.165 70.2122 122.165C70.9162 122.165 71.565 122.343 72.1585 122.701C72.7659 123.044 73.2491 123.506 73.6079 124.083C73.9668 124.661 74.1463 125.314 74.1463 126.043V128.272C74.1463 128.945 73.9668 129.585 73.6079 130.191C73.2491 130.796 72.7659 131.284 72.1585 131.655C71.565 132.013 70.9162 132.192 70.2122 132.192ZM70.2122 130.954C70.6954 130.954 71.1302 130.83 71.5167 130.583C71.9032 130.322 72.2138 129.984 72.4484 129.572C72.6831 129.159 72.8004 128.726 72.8004 128.272V126.043C72.8004 125.59 72.6831 125.163 72.4484 124.764C72.2276 124.365 71.917 124.042 71.5167 123.794C71.1302 123.533 70.6954 123.402 70.2122 123.402C69.7292 123.402 69.2944 123.533 68.9078 123.794C68.5214 124.042 68.2108 124.365 67.9761 124.764C67.7415 125.163 67.6241 125.59 67.6241 126.043V128.272C67.6241 128.726 67.7415 129.159 67.9761 129.572C68.2108 129.984 68.5214 130.322 68.9078 130.583C69.3082 130.83 69.743 130.954 70.2122 130.954ZM84.1044 132.171C83.3728 132.171 82.7378 132.068 82.1995 131.862C81.6611 131.642 81.2126 131.367 80.8536 131.036C80.4948 130.706 80.2325 130.342 80.0668 129.943C79.9012 129.544 79.8184 129.152 79.8184 128.767C79.8184 128.478 79.8667 128.285 79.9633 128.189C80.0738 128.093 80.2325 128.045 80.4395 128.045C80.7294 128.045 80.9227 128.099 81.0193 128.21C81.116 128.306 81.1642 128.444 81.1642 128.622C81.1642 128.842 81.2056 129.09 81.2884 129.365C81.3851 129.626 81.5438 129.874 81.7647 130.108C81.9856 130.342 82.2823 130.534 82.655 130.686C83.0277 130.837 83.4971 130.913 84.0629 130.913C85.043 130.913 85.7884 130.665 86.2991 130.17C86.8099 129.661 87.0652 128.877 87.0652 127.818V127.426C87.0652 126.477 86.796 125.789 86.2577 125.363C85.7194 124.922 85.0016 124.702 84.1044 124.702C83.9249 124.702 83.7938 124.64 83.711 124.517C83.6281 124.393 83.5867 124.256 83.5867 124.104C83.5867 123.952 83.6281 123.815 83.711 123.691C83.7938 123.568 83.9249 123.506 84.1044 123.506C84.6427 123.506 85.1051 123.43 85.4916 123.279C85.8919 123.114 86.1888 122.838 86.3819 122.453C86.589 122.069 86.6925 121.538 86.6925 120.865C86.6925 119.97 86.4924 119.31 86.0921 118.884C85.6918 118.443 85.0568 118.224 84.1872 118.224C83.6488 118.224 83.2003 118.293 82.8413 118.43C82.4963 118.567 82.2271 118.753 82.0338 118.987C81.8407 119.207 81.7095 119.448 81.6404 119.709C81.5715 119.957 81.5369 120.191 81.5369 120.411C81.5369 120.617 81.4817 120.782 81.3713 120.906C81.2747 121.016 81.109 121.071 80.8743 121.071C80.6812 121.071 80.5362 121.05 80.4395 121.009C80.3429 120.968 80.2739 120.885 80.2325 120.762C80.1911 120.638 80.1704 120.48 80.1704 120.287C80.1704 119.998 80.2256 119.668 80.336 119.297C80.4602 118.925 80.6673 118.561 80.9572 118.203C81.2609 117.845 81.675 117.55 82.1995 117.316C82.724 117.082 83.4004 116.965 84.2286 116.965C84.974 116.965 85.6297 117.082 86.1956 117.316C86.7616 117.55 87.2033 117.935 87.5207 118.471C87.852 118.994 88.0177 119.702 88.0177 120.596C88.0177 121.532 87.852 122.288 87.5207 122.866C87.2033 123.444 86.803 123.849 86.3198 124.083C86.9272 124.331 87.4311 124.723 87.8313 125.259C88.2316 125.796 88.4318 126.518 88.4318 127.426V127.818C88.4318 128.877 88.2386 129.723 87.852 130.356C87.4655 130.988 86.941 131.449 86.2784 131.738C85.6297 132.027 84.905 132.171 84.1044 132.171ZM19.7027 164.028C19.5232 164.028 19.3645 163.986 19.2265 163.904C19.0884 163.808 19.0195 163.67 19.0195 163.491V149.606C19.0195 149.358 19.0884 149.186 19.2265 149.09C19.3645 148.994 19.5232 148.945 19.7027 148.945C19.8684 148.945 20.0133 148.994 20.1375 149.09C20.2755 149.172 20.3998 149.289 20.5102 149.441C20.6206 149.578 20.7173 149.737 20.8001 149.915L24.3614 156.744L27.902 149.915C28.0124 149.737 28.1159 149.578 28.2126 149.441C28.323 149.289 28.4472 149.172 28.5853 149.09C28.7233 148.994 28.8682 148.945 29.0201 148.945C29.2133 148.945 29.3721 148.994 29.4963 149.09C29.6343 149.186 29.7034 149.358 29.7034 149.606V163.491C29.7034 163.67 29.6343 163.808 29.4963 163.904C29.3582 163.986 29.1995 164.028 29.0201 164.028C28.8545 164.028 28.6957 163.986 28.5439 163.904C28.4058 163.808 28.3368 163.67 28.3368 163.491V151.896L24.8998 158.374C24.8169 158.539 24.7272 158.656 24.6306 158.725C24.5339 158.794 24.4373 158.828 24.3407 158.828C24.2579 158.828 24.1681 158.794 24.0715 158.725C23.9748 158.656 23.8783 158.539 23.7817 158.374L20.386 151.855V163.491C20.386 163.67 20.31 163.808 20.1582 163.904C20.0201 163.986 19.8684 164.028 19.7027 164.028ZM36.0404 164.172C35.3365 164.172 34.6877 163.994 34.0941 163.636C33.5006 163.264 33.0175 162.783 32.6448 162.191C32.2858 161.586 32.1064 160.94 32.1064 160.252V158.024C32.1064 157.322 32.279 156.683 32.6241 156.105C32.983 155.514 33.4592 155.039 34.0527 154.681C34.6601 154.323 35.3227 154.145 36.0404 154.145C36.7444 154.145 37.3932 154.323 37.9867 154.681C38.5941 155.025 39.0772 155.486 39.4361 156.064C39.795 156.641 39.9744 157.294 39.9744 158.024V160.252C39.9744 160.926 39.795 161.565 39.4361 162.171C39.0772 162.776 38.5941 163.264 37.9867 163.636C37.3932 163.994 36.7444 164.172 36.0404 164.172ZM36.0404 162.934C36.5236 162.934 36.9584 162.81 37.3449 162.563C37.7313 162.302 38.0419 161.964 38.2766 161.552C38.5113 161.139 38.6286 160.706 38.6286 160.252V158.024C38.6286 157.57 38.5113 157.144 38.2766 156.744C38.0558 156.345 37.7452 156.022 37.3449 155.775C36.9584 155.514 36.5236 155.383 36.0404 155.383C35.5573 155.383 35.1225 155.514 34.736 155.775C34.3495 156.022 34.039 156.345 33.8043 156.744C33.5696 157.144 33.4523 157.57 33.4523 158.024V160.252C33.4523 160.706 33.5696 161.139 33.8043 161.552C34.039 161.964 34.3495 162.302 34.736 162.563C35.1363 162.81 35.5712 162.934 36.0404 162.934ZM45.4769 164.172C44.8419 164.172 44.2415 163.994 43.6755 163.636C43.1095 163.264 42.654 162.776 42.309 162.171C41.9777 161.565 41.812 160.926 41.812 160.252V158.024C41.812 157.309 41.9777 156.662 42.309 156.084C42.654 155.493 43.1095 155.025 43.6755 154.681C44.2415 154.323 44.8627 154.145 45.539 154.145C46.2153 154.145 46.7813 154.31 47.2368 154.64C47.7061 154.957 48.0513 155.314 48.2721 155.713V148.801C48.2721 148.636 48.3411 148.512 48.4791 148.43C48.6171 148.334 48.776 148.285 48.9554 148.285C49.1624 148.285 49.3211 148.334 49.4316 148.43C49.5558 148.512 49.6179 148.636 49.6179 148.801V163.491C49.6179 163.628 49.5558 163.752 49.4316 163.863C49.3211 163.973 49.1624 164.028 48.9554 164.028C48.7897 164.028 48.6379 163.973 48.4999 163.863C48.3756 163.752 48.3135 163.628 48.3135 163.491V162.583C48.1065 163.009 47.7407 163.381 47.2161 163.698C46.7054 164.014 46.1257 164.172 45.4769 164.172ZM45.7253 162.934C46.2223 162.934 46.6571 162.81 47.0298 162.563C47.4162 162.302 47.72 162.013 47.9408 161.696C48.1616 161.366 48.2721 161.098 48.2721 160.892V158.024C48.2721 157.459 48.1479 156.985 47.8994 156.6C47.6509 156.215 47.3334 155.919 46.947 155.713C46.5605 155.493 46.1602 155.383 45.746 155.383C45.2768 155.383 44.8488 155.514 44.4623 155.775C44.0759 156.022 43.7653 156.345 43.5306 156.744C43.2959 157.144 43.1786 157.57 43.1786 158.024V160.252C43.1786 160.706 43.2959 161.139 43.5306 161.552C43.7653 161.964 44.0759 162.302 44.4623 162.563C44.8488 162.81 45.2698 162.934 45.7253 162.934ZM56.0858 164.172C55.3541 164.172 54.6847 163.994 54.0773 163.636C53.4838 163.278 53.0076 162.803 52.6487 162.212C52.3036 161.606 52.131 160.967 52.131 160.293V154.805C52.131 154.668 52.2001 154.544 52.3381 154.434C52.4761 154.323 52.6349 154.269 52.8143 154.269C52.9937 154.269 53.1456 154.323 53.2698 154.434C53.4078 154.544 53.4769 154.668 53.4769 154.805V160.293C53.4769 160.747 53.5942 161.173 53.8289 161.572C54.0636 161.972 54.3742 162.302 54.7606 162.563C55.1471 162.81 55.5819 162.934 56.065 162.934C56.562 162.934 57.0037 162.81 57.3902 162.563C57.7766 162.315 58.0804 161.992 58.3012 161.593C58.5359 161.18 58.6532 160.747 58.6532 160.293V154.784C58.6532 154.633 58.7223 154.509 58.8603 154.413C58.9983 154.317 59.1571 154.269 59.3365 154.269C59.5435 154.269 59.7022 154.317 59.8127 154.413C59.9369 154.509 59.9991 154.633 59.9991 154.784V160.293C59.9991 160.995 59.8196 161.642 59.4607 162.233C59.1157 162.81 58.6394 163.278 58.032 163.636C57.4385 163.994 56.7897 164.172 56.0858 164.172ZM63.3346 164.028C63.1552 164.028 62.9964 163.973 62.8584 163.863C62.7341 163.752 62.672 163.628 62.672 163.491V148.801C62.672 148.636 62.7341 148.512 62.8584 148.43C62.9964 148.334 63.1552 148.285 63.3346 148.285C63.5279 148.285 63.6866 148.334 63.8108 148.43C63.9488 148.512 64.0178 148.636 64.0178 148.801V163.491C64.0178 163.628 63.9488 163.752 63.8108 163.863C63.6866 163.973 63.5279 164.028 63.3346 164.028ZM70.3538 164.172C69.6498 164.172 69.0011 163.994 68.4075 163.636C67.814 163.264 67.3308 162.783 66.9581 162.191C66.5993 161.586 66.4198 160.94 66.4198 160.252V158.024C66.4198 157.322 66.5923 156.683 66.9374 156.105C67.2963 155.514 67.7725 155.039 68.3661 154.681C68.9735 154.323 69.636 154.145 70.3538 154.145C71.0577 154.145 71.7066 154.323 72.3001 154.681C72.9075 155.025 73.3906 155.486 73.7494 156.064C74.1084 156.641 74.2878 157.294 74.2878 158.024V160.252C74.2878 160.926 74.1084 161.565 73.7494 162.171C73.3906 162.776 72.9075 163.264 72.3001 163.636C71.7066 163.994 71.0577 164.172 70.3538 164.172ZM70.3538 162.934C70.8369 162.934 71.2717 162.81 71.6582 162.563C72.0448 162.302 72.3554 161.964 72.5899 161.552C72.8246 161.139 72.9419 160.706 72.9419 160.252V158.024C72.9419 157.57 72.8246 157.144 72.5899 156.744C72.3691 156.345 72.0585 156.022 71.6582 155.775C71.2717 155.514 70.8369 155.383 70.3538 155.383C69.8707 155.383 69.4359 155.514 69.0493 155.775C68.6629 156.022 68.3523 156.345 68.1176 156.744C67.883 157.144 67.7656 157.57 67.7656 158.024V160.252C67.7656 160.706 67.883 161.139 68.1176 161.552C68.3523 161.964 68.6629 162.302 69.0493 162.563C69.4497 162.81 69.8845 162.934 70.3538 162.934ZM80.7054 164.028C80.5673 164.028 80.4223 163.979 80.2706 163.883C80.1325 163.787 80.0635 163.656 80.0635 163.491V161.49C80.0635 160.926 80.2292 160.404 80.5604 159.922C80.9055 159.44 81.3403 158.986 81.8649 158.56C82.3893 158.134 82.9484 157.714 83.542 157.302C84.1493 156.889 84.7153 156.463 85.2398 156.022C85.7782 155.568 86.213 155.094 86.5443 154.599C86.8893 154.103 87.0619 153.554 87.0619 152.948C87.0619 152.508 86.9584 152.082 86.7513 151.669C86.5443 151.256 86.2337 150.913 85.8196 150.637C85.4192 150.362 84.9016 150.225 84.2667 150.225C83.5627 150.225 82.9691 150.431 82.486 150.844C82.0029 151.243 81.7614 151.847 81.7614 152.659C81.7614 152.796 81.6992 152.927 81.575 153.051C81.4508 153.162 81.2713 153.216 81.0367 153.216C80.8295 153.216 80.6708 153.154 80.5604 153.031C80.4637 152.907 80.4155 152.687 80.4155 152.37C80.4155 151.71 80.588 151.125 80.9331 150.617C81.2782 150.094 81.7406 149.688 82.3204 149.399C82.9139 149.097 83.5765 148.945 84.3081 148.945C85.1087 148.945 85.8127 149.124 86.42 149.482C87.0412 149.825 87.5312 150.3 87.8901 150.905C88.2489 151.497 88.4284 152.164 88.4284 152.907C88.4284 153.636 88.2559 154.296 87.9108 154.888C87.5795 155.479 87.1516 156.015 86.6271 156.497C86.1025 156.979 85.5435 157.425 84.95 157.838C84.3563 158.251 83.7973 158.65 83.2728 159.035C82.7483 159.419 82.3135 159.811 81.9684 160.211C81.6371 160.61 81.4715 161.036 81.4715 161.49V162.769H88.0765C88.2145 162.769 88.3318 162.831 88.4284 162.955C88.525 163.065 88.5734 163.21 88.5734 163.388C88.5734 163.553 88.525 163.705 88.4284 163.842C88.3318 163.966 88.2145 164.028 88.0765 164.028H80.7054ZM22.1897 196.008C22.0103 196.008 21.8515 195.967 21.7135 195.884C21.5755 195.788 21.5065 195.65 21.5065 195.471V181.586C21.5065 181.338 21.5755 181.166 21.7135 181.07C21.8515 180.974 22.0103 180.926 22.1897 180.926C22.3554 180.926 22.5003 180.974 22.6246 181.07C22.7626 181.153 22.8868 181.269 22.9972 181.421C23.1077 181.558 23.2043 181.717 23.2871 181.895L26.8484 188.725L30.389 181.895C30.4995 181.717 30.603 181.558 30.6996 181.421C30.8101 181.269 30.9343 181.153 31.0723 181.07C31.2103 180.974 31.3553 180.926 31.5071 180.926C31.7004 180.926 31.8591 180.974 31.9833 181.07C32.1213 181.166 32.1904 181.338 32.1904 181.586V195.471C32.1904 195.65 32.1213 195.788 31.9833 195.884C31.8453 195.967 31.6865 196.008 31.5071 196.008C31.3415 196.008 31.1828 195.967 31.0309 195.884C30.8929 195.788 30.8238 195.65 30.8238 195.471V183.876L27.3868 190.355C27.3039 190.52 27.2142 190.636 27.1176 190.705C27.021 190.775 26.9243 190.809 26.8277 190.809C26.7449 190.809 26.6551 190.775 26.5586 190.705C26.462 190.636 26.3653 190.52 26.2687 190.355L22.873 183.835V195.471C22.873 195.65 22.7971 195.788 22.6453 195.884C22.5073 195.967 22.3554 196.008 22.1897 196.008ZM38.5276 196.152C37.8236 196.152 37.1748 195.974 36.5813 195.616C35.9876 195.245 35.5046 194.763 35.1319 194.172C34.773 193.566 34.5936 192.92 34.5936 192.232V190.004C34.5936 189.302 34.766 188.663 35.1112 188.085C35.47 187.494 35.9462 187.019 36.5399 186.661C37.1471 186.303 37.8097 186.125 38.5276 186.125C39.2315 186.125 39.8802 186.303 40.4739 186.661C41.0811 187.005 41.5643 187.466 41.9232 188.044C42.2821 188.622 42.4616 189.275 42.4616 190.004V192.232C42.4616 192.906 42.2821 193.545 41.9232 194.151C41.5643 194.757 41.0811 195.245 40.4739 195.616C39.8802 195.974 39.2315 196.152 38.5276 196.152ZM38.5276 194.914C39.0106 194.914 39.4454 194.791 39.832 194.543C40.2185 194.282 40.529 193.945 40.7637 193.532C40.9983 193.119 41.1157 192.686 41.1157 192.232V190.004C41.1157 189.55 40.9983 189.124 40.7637 188.725C40.5428 188.325 40.2322 188.003 39.832 187.755C39.4454 187.494 39.0106 187.363 38.5276 187.363C38.0444 187.363 37.6096 187.494 37.2231 187.755C36.8366 188.003 36.526 188.325 36.2914 188.725C36.0567 189.124 35.9394 189.55 35.9394 190.004V192.232C35.9394 192.686 36.0567 193.119 36.2914 193.532C36.526 193.945 36.8366 194.282 37.2231 194.543C37.6234 194.791 38.0582 194.914 38.5276 194.914ZM47.964 196.152C47.329 196.152 46.7285 195.974 46.1626 195.616C45.5967 195.245 45.1411 194.757 44.7961 194.151C44.4648 193.545 44.2992 192.906 44.2992 192.232V190.004C44.2992 189.289 44.4648 188.642 44.7961 188.064C45.1411 187.473 45.5967 187.005 46.1626 186.661C46.7285 186.303 47.3497 186.125 48.0261 186.125C48.7025 186.125 49.2684 186.29 49.7239 186.62C50.1932 186.937 50.5383 187.294 50.7592 187.693V180.781C50.7592 180.616 50.8282 180.492 50.9663 180.41C51.1043 180.314 51.263 180.265 51.4425 180.265C51.6495 180.265 51.8082 180.314 51.9187 180.41C52.0429 180.492 52.1051 180.616 52.1051 180.781V195.471C52.1051 195.609 52.0429 195.732 51.9187 195.843C51.8082 195.953 51.6495 196.008 51.4425 196.008C51.2768 196.008 51.125 195.953 50.987 195.843C50.8627 195.732 50.8006 195.609 50.8006 195.471V194.564C50.5936 194.99 50.2277 195.361 49.7032 195.678C49.1924 195.994 48.6127 196.152 47.964 196.152ZM48.2125 194.914C48.7094 194.914 49.1442 194.791 49.5169 194.543C49.9034 194.282 50.207 193.993 50.4279 193.676C50.6488 193.346 50.7592 193.078 50.7592 192.872V190.004C50.7592 189.44 50.635 188.965 50.3865 188.58C50.1381 188.195 49.8205 187.899 49.4341 187.693C49.0475 187.473 48.6473 187.363 48.2332 187.363C47.7638 187.363 47.3359 187.494 46.9494 187.755C46.5629 188.003 46.2523 188.325 46.0177 188.725C45.783 189.124 45.6657 189.55 45.6657 190.004V192.232C45.6657 192.686 45.783 193.119 46.0177 193.532C46.2523 193.945 46.5629 194.282 46.9494 194.543C47.3359 194.791 47.7569 194.914 48.2125 194.914ZM58.5729 196.152C57.8412 196.152 57.1717 195.974 56.5645 195.616C55.9708 195.258 55.4946 194.783 55.1358 194.192C54.7906 193.587 54.6182 192.947 54.6182 192.273V186.785C54.6182 186.648 54.6871 186.524 54.8252 186.414C54.9632 186.303 55.1219 186.249 55.3014 186.249C55.4808 186.249 55.6327 186.303 55.7569 186.414C55.895 186.524 55.964 186.648 55.964 186.785V192.273C55.964 192.727 56.0813 193.153 56.316 193.553C56.5506 193.952 56.8612 194.282 57.2477 194.543C57.6342 194.791 58.069 194.914 58.5522 194.914C59.0491 194.914 59.4907 194.791 59.8773 194.543C60.2638 194.295 60.5674 193.973 60.7883 193.573C61.0229 193.161 61.1403 192.727 61.1403 192.273V186.765C61.1403 186.613 61.2093 186.489 61.3474 186.393C61.4854 186.297 61.6441 186.249 61.8236 186.249C62.0307 186.249 62.1894 186.297 62.2998 186.393C62.4241 186.489 62.4862 186.613 62.4862 186.765V192.273C62.4862 192.975 62.3067 193.622 61.9478 194.213C61.6027 194.791 61.1265 195.258 60.5192 195.616C59.9255 195.974 59.2768 196.152 58.5729 196.152ZM65.8216 196.008C65.6422 196.008 65.4835 195.953 65.3454 195.843C65.2211 195.732 65.159 195.609 65.159 195.471V180.781C65.159 180.616 65.2211 180.492 65.3454 180.41C65.4835 180.314 65.6422 180.265 65.8216 180.265C66.0149 180.265 66.1736 180.314 66.2978 180.41C66.4359 180.492 66.5049 180.616 66.5049 180.781V195.471C66.5049 195.609 66.4359 195.732 66.2978 195.843C66.1736 195.953 66.0149 196.008 65.8216 196.008ZM72.8409 196.152C72.1369 196.152 71.4881 195.974 70.8946 195.616C70.3011 195.245 69.8179 194.763 69.4452 194.172C69.0863 193.566 68.9069 192.92 68.9069 192.232V190.004C68.9069 189.302 69.0795 188.663 69.4245 188.085C69.7834 187.494 70.2597 187.019 70.8532 186.661C71.4606 186.303 72.1231 186.125 72.8409 186.125C73.5449 186.125 74.1937 186.303 74.7872 186.661C75.3946 187.005 75.8776 187.466 76.2366 188.044C76.5955 188.622 76.7749 189.275 76.7749 190.004V192.232C76.7749 192.906 76.5955 193.545 76.2366 194.151C75.8776 194.757 75.3946 195.245 74.7872 195.616C74.1937 195.974 73.5449 196.152 72.8409 196.152ZM72.8409 194.914C73.324 194.914 73.7589 194.791 74.1453 194.543C74.5318 194.282 74.8424 193.945 75.0771 193.532C75.3118 193.119 75.4291 192.686 75.4291 192.232V190.004C75.4291 189.55 75.3118 189.124 75.0771 188.725C74.8562 188.325 74.5457 188.003 74.1453 187.755C73.7589 187.494 73.324 187.363 72.8409 187.363C72.3577 187.363 71.9229 187.494 71.5365 187.755C71.15 188.003 70.8394 188.325 70.6047 188.725C70.37 189.124 70.2527 189.55 70.2527 190.004V192.232C70.2527 192.686 70.37 193.119 70.6047 193.532C70.8394 193.945 71.15 194.282 71.5365 194.543C71.9368 194.791 72.3716 194.914 72.8409 194.914ZM84.5796 196.008C84.4002 196.008 84.2414 195.967 84.1034 195.884C83.9654 195.788 83.8964 195.65 83.8964 195.471V183.257L83.0682 184.578C83.013 184.66 82.9509 184.722 82.8818 184.763C82.8128 184.805 82.7438 184.825 82.6748 184.825C82.5229 184.825 82.3918 184.763 82.2814 184.639C82.1848 184.516 82.1364 184.378 82.1364 184.227C82.1364 184.131 82.1709 184.02 82.2399 183.897C82.309 183.759 82.3711 183.663 82.4263 183.608L84.1448 181.214C84.2139 181.132 84.2828 181.063 84.3519 181.008C84.4209 180.939 84.5245 180.905 84.6625 180.905C84.8143 180.905 84.9523 180.953 85.0766 181.049C85.2008 181.132 85.2629 181.263 85.2629 181.441V195.471C85.2629 195.65 85.187 195.788 85.0352 195.884C84.8972 195.967 84.7453 196.008 84.5796 196.008Z" fill="#F5F5F5"/>
</svg>
