<svg width="709" height="383" viewBox="0 0 709 383" fill="none" xmlns="http://www.w3.org/2000/svg">
<rect width="709" height="383" fill="#1E1E1E"/>
<g clip-path="url(#clip0_0_1)">
<rect width="709" height="383" fill="white"/>
<g clip-path="url(#clip1_0_1)">
<path d="M702 8H6V445H702V8Z" fill="white"/>
<path fill-rule="evenodd" clip-rule="evenodd" d="M316.386 354.911L348.091 317.738L316.796 281.227L284.067 319.601L321.35 363.1L314.635 368.582L278.373 326.276L249.979 359.568L253.01 363.032L246.355 368.582L207.052 323.684L174.718 361.594L175.976 363.032L169.321 368.582L132.383 326.382L101.189 362.955L104.244 366.508L97.5389 372L58.5831 326.695L25.4816 365.504L18.7539 360.038L52.8647 320.044L20.5624 282.477L16.6794 286.95L10 281.427L51.3408 233.793L18.3955 196.154L16.6152 198.16L10 192.563L51.4303 145.902L21.7488 111.994L16.6465 117.805L10 112.244L15.9932 105.419L10 98.5728L16.6554 93.0222L21.7594 98.8529L52.9748 63.3054L18.7539 23.3803L25.468 17.8974L58.7508 56.7282L94.0374 16.5446L99.0367 20.7274L102.502 17.8974L133.242 53.7611L169.321 13.1268L172.572 15.8774L174.284 14.4796L207.771 53.549L242.854 13.1268L247.884 17.2852L251.319 14.4796L282.477 50.8317L314.635 13.1268L318.661 16.3969L323.101 12.7706L355.866 50.999L388.168 13.1268L393.948 17.8231L400.135 12.7706L430.562 48.2705L463.452 9.70892L467.489 12.9899L471.948 9.39051L504.492 47.8047L536.984 9.70892L542.766 14.4061L548.961 9.36556L580.048 45.7771L612.268 8L618.996 13.4669L618.474 14.0783L651.069 48.7217L685.801 8L692.529 13.4669L657.044 55.0717L684.507 84.2613L691.053 76.3568L697.86 81.7285L690.493 90.6242L695.75 96.211L689.302 101.991L684.929 97.3427L654.962 133.526L686.636 170.624L691.053 165.221L697.895 170.551L692.356 177.325L697.778 183.675L691.053 189.146L686.781 184.142L653.978 224.257L684.677 260.493L691.053 252.376L698 257.574L690.402 267.25L697.799 275.983L691.053 281.427L684.936 274.207L655.903 311.173L696.016 357.973L689.302 363.455L650.444 318.121L617.464 360.109L616.89 359.68L612.268 363.455L575.363 320.397L545.577 356.823L543.088 354.883L547.2 359.682L540.486 365.164L501.141 319.261L468.893 358.197L470.166 359.682L463.452 365.164L463.285 364.97L461.505 367.118L454.698 361.746L457.56 358.291L427.92 323.711L396.647 360.378L394.685 358.783L398.384 363.1L391.67 368.582L353.8 324.4L323.115 360.378L316.386 354.911ZM246.486 22.1592L213.472 60.2L244.055 95.8802L276.784 57.5062L246.486 22.1592ZM202.029 60.1656L171.139 24.1259L138.932 60.3994L170.183 96.8599L202.029 60.1656ZM175.884 103.511L207.729 66.8164L238.363 102.555L206.791 139.57L175.884 103.511ZM164.441 103.476L133.124 66.94L99.7355 104.545L131.426 141.517L164.441 103.476ZM137.126 148.168L170.141 110.127L201.099 146.245L168.369 184.619L137.126 148.168ZM125.683 148.134L93.9281 111.085L62.9791 145.942L95.4208 183.004L125.683 148.134ZM101.182 189.585L131.384 154.784L162.676 191.294L133.067 226.009L101.182 189.585ZM89.6884 189.609L57.181 152.472L24.1936 189.624L57.0732 227.188L89.6884 189.609ZM62.834 233.771L95.4494 196.19L127.385 232.672L95.0532 270.579L62.834 233.771ZM57.1016 240.376L26.3033 275.861L58.5558 313.37L89.3709 277.242L57.1016 240.376ZM94.0456 97.9063L127.435 60.3017L97.6533 25.5564L64.4457 63.3724L94.0456 97.9063ZM57.2283 139.372L88.2383 104.447L58.6699 69.9497L27.515 105.428L57.2283 139.372ZM133.154 239.263L100.822 277.17L132.296 313.128L164.629 275.219L133.154 239.263ZM170.311 268.557L138.836 232.6L168.386 197.955L199.534 234.294L170.311 268.557ZM170.398 281.81L138.065 319.719L168.949 355.003L201.283 317.092L170.398 281.81ZM206.966 310.429L176.08 275.147L205.243 240.955L235.807 276.615L206.966 310.429ZM212.735 317.021L241.516 283.275L272.664 319.615L244.209 352.978L212.735 317.021ZM64.2741 320.021L95.1398 283.833L126.614 319.791L95.4711 356.304L64.2741 320.021ZM648.399 231.079L679.212 267.45L650.146 304.457L618.546 267.588L648.399 231.079ZM612.974 274.404L644.689 311.405L613.31 351.355L580.934 313.584L612.974 274.404ZM678.943 90.9797L651.393 61.6977L622.531 95.5372L649.25 126.833L678.943 90.9797ZM645.417 55.3477L612.823 20.7042L585.745 52.4511L616.832 88.863L645.417 55.3477ZM539.441 350.63L569.631 313.71L537.135 275.798L506.748 312.489L539.441 350.63ZM575.202 306.895L607.241 267.717L574.99 230.09L542.745 269.026L575.202 306.895ZM612.814 260.901L642.7 224.353L610.864 186.774L580.6 223.317L612.814 260.901ZM648.28 217.529L681.06 177.441L649.351 140.301L616.48 179.993L648.28 217.529ZM616.836 102.214L643.638 133.608L610.787 173.274L583.599 141.182L616.836 102.214ZM577.9 147.864L605.172 180.054L574.875 216.639L546.99 184.106L577.9 147.864ZM541.297 190.779L569.265 223.409L537.019 262.347L508.568 229.153L541.297 190.779ZM502.876 235.828L531.41 269.12L501.025 305.808L472.036 271.987L502.876 235.828ZM466.342 278.662L495.416 312.581L463.168 351.519L433.613 317.036L466.342 278.662ZM611.137 95.5398L580.052 59.128L546.957 97.9295L577.923 134.482L611.137 95.5398ZM574.353 52.4538L543.119 15.8701L510.168 54.5047L541.281 91.2297L574.353 52.4538ZM436.271 54.9314L467.827 17.9338L498.793 54.4862L467.419 91.2712L436.271 54.9314ZM473.128 97.9323L504.469 61.1862L535.582 97.9112L504.423 134.444L473.128 97.9323ZM510.133 141.105L541.258 104.611L572.224 141.164L541.281 177.445L510.133 141.105ZM390.64 354.065L422.21 317.05L391.064 280.71L359.492 317.725L390.64 354.065ZM427.904 310.375L460.633 272.001L429.485 235.661L396.756 274.034L427.904 310.375ZM466.326 265.326L497.166 229.167L466.018 192.828L435.178 228.987L466.326 265.326ZM502.858 222.493L535.587 184.12L504.441 147.779L471.71 186.153L502.858 222.493ZM385.355 274.048L353.783 311.065L322.488 274.552L354.06 237.537L385.355 274.048ZM423.776 228.999L391.047 267.375L359.751 230.862L392.48 192.488L423.776 228.999ZM460.309 186.167L429.469 222.326L398.174 185.815L429.014 149.655L460.309 186.167ZM498.732 141.118L466.001 179.492L434.707 142.981L467.436 104.607L498.732 141.118ZM461.727 97.9458L430.579 61.6059L397.85 99.9799L428.998 136.32L461.727 97.9458ZM424.87 54.9449L394.305 19.2859L361.576 57.66L392.141 93.319L424.87 54.9449ZM288.186 57.4927L319.026 21.3336L350.175 57.6735L319.335 93.8326L288.186 57.4927ZM325.044 100.493L355.884 64.3344L386.447 99.9934L355.607 136.152L325.044 100.493ZM361.317 142.813L392.156 106.654L423.305 142.994L392.465 179.153L361.317 142.813ZM278.358 312.94L311.087 274.566L279.939 238.226L247.21 276.601L278.358 312.94ZM316.778 267.893L348.35 230.876L317.202 194.537L285.63 231.552L316.778 267.893ZM354.042 224.202L386.771 185.829L355.625 149.488L322.894 187.862L354.042 224.202ZM274.229 231.566L241.5 269.94L210.935 234.28L243.664 195.906L274.229 231.566ZM311.493 187.876L279.923 224.891L249.358 189.233L280.928 152.216L311.493 187.876ZM349.915 142.827L317.185 181.201L286.621 145.542L319.35 107.168L349.915 142.827ZM313.641 100.507L282.493 64.1671L249.764 102.541L280.912 138.881L313.641 100.507ZM212.5 146.231L244.072 109.216L275.218 145.555L243.648 182.571L212.5 146.231ZM205.226 227.62L237.955 189.246L206.809 152.906L174.078 191.28L205.226 227.62Z" fill="#A88E5B" fill-opacity="0.72"/>
<path d="M693 16H15V368H693V16Z" stroke="#916104" stroke-width="12"/>
<path d="M164.66 15.5H27.9144V367.864H164.66V15.5Z" fill="black" stroke="#EAEAEA" stroke-width="3" stroke-linejoin="bevel"/>
<path d="M38.5947 68.4546C38.2909 68.4546 38.0219 68.3855 37.7882 68.2473C37.5546 68.0861 37.4376 67.8557 37.4376 67.5564V44.3073C37.4376 43.8927 37.5546 43.6048 37.7882 43.4436C38.0219 43.2825 38.2909 43.2018 38.5947 43.2018C38.8752 43.2018 39.1206 43.2825 39.331 43.4436C39.5647 43.5818 39.7751 43.7775 39.9622 44.0309C40.1492 44.2612 40.3128 44.5261 40.453 44.8255L46.4839 56.26L52.4796 44.8255C52.6667 44.5261 52.842 44.2612 53.0056 44.0309C53.1926 43.7775 53.403 43.5818 53.6367 43.4436C53.8704 43.2825 54.1158 43.2018 54.373 43.2018C54.7003 43.2018 54.9691 43.2825 55.1795 43.4436C55.4132 43.6048 55.5301 43.8927 55.5301 44.3073V67.5564C55.5301 67.8557 55.4132 68.0861 55.1795 68.2473C54.9458 68.3855 54.6769 68.4546 54.373 68.4546C54.0925 68.4546 53.8238 68.3855 53.5666 68.2473C53.3329 68.0861 53.216 67.8557 53.216 67.5564V48.1418L47.3955 58.9891C47.2553 59.2655 47.1033 59.4612 46.9397 59.5764C46.7761 59.6916 46.6124 59.7491 46.4488 59.7491C46.3086 59.7491 46.1566 59.6916 45.993 59.5764C45.8294 59.4612 45.6657 59.2655 45.5021 58.9891L39.7518 48.0727V67.5564C39.7518 67.8557 39.6233 68.0861 39.3661 68.2473C39.1324 68.3855 38.8752 68.4546 38.5947 68.4546ZM66.2617 68.6964C65.0695 68.6964 63.9708 68.397 62.9657 67.7982C61.9605 67.1764 61.1425 66.3703 60.5113 65.38C59.9035 64.3666 59.5997 63.2843 59.5997 62.1327V58.4018C59.5997 57.2273 59.8918 56.1564 60.4763 55.1891C61.0839 54.1989 61.8904 53.4043 62.8956 52.8055C63.924 52.2066 65.046 51.9073 66.2617 51.9073C67.4538 51.9073 68.5523 52.2066 69.5576 52.8055C70.586 53.3812 71.4042 54.1527 72.012 55.12C72.6196 56.0873 72.9236 57.1812 72.9236 58.4018V62.1327C72.9236 63.2612 72.6196 64.3321 72.012 65.3455C71.4042 66.3589 70.586 67.1764 69.5576 67.7982C68.5523 68.397 67.4538 68.6964 66.2617 68.6964ZM66.2617 66.6236C67.0797 66.6236 67.816 66.4164 68.4706 66.0018C69.1251 65.5643 69.651 65 70.0485 64.3091C70.4457 63.6182 70.6445 62.8927 70.6445 62.1327V58.4018C70.6445 57.6418 70.4457 56.9279 70.0485 56.26C69.6743 55.5921 69.1484 55.0509 68.4706 54.6364C67.816 54.1989 67.0797 53.98 66.2617 53.98C65.4435 53.98 64.7071 54.1989 64.0527 54.6364C63.3981 55.0509 62.8721 55.5921 62.4749 56.26C62.0774 56.9279 61.8788 57.6418 61.8788 58.4018V62.1327C61.8788 62.8927 62.0774 63.6182 62.4749 64.3091C62.8721 65 63.3981 65.5643 64.0527 66.0018C64.7305 66.4164 65.4668 66.6236 66.2617 66.6236ZM82.2416 68.6964C81.1662 68.6964 80.1494 68.397 79.1911 67.7982C78.2327 67.1764 77.4613 66.3589 76.877 65.3455C76.316 64.3321 76.0355 63.2612 76.0355 62.1327V58.4018C76.0355 57.2043 76.316 56.1218 76.877 55.1546C77.4613 54.1643 78.2327 53.3812 79.1911 52.8055C80.1494 52.2066 81.2013 51.9073 82.3468 51.9073C83.4921 51.9073 84.4506 52.1836 85.222 52.7364C86.0167 53.2661 86.601 53.8648 86.9751 54.5327V42.96C86.9751 42.6836 87.0919 42.4764 87.3257 42.3382C87.5594 42.177 87.8282 42.0964 88.1322 42.0964C88.4828 42.0964 88.7516 42.177 88.9386 42.3382C89.149 42.4764 89.2542 42.6836 89.2542 42.96V67.5564C89.2542 67.7866 89.149 67.9939 88.9386 68.1782C88.7516 68.3625 88.4828 68.4546 88.1322 68.4546C87.8517 68.4546 87.5945 68.3625 87.3608 68.1782C87.1504 67.9939 87.0452 67.7866 87.0452 67.5564V66.0364C86.6946 66.7503 86.075 67.3721 85.1869 67.9018C84.3219 68.4316 83.3401 68.6964 82.2416 68.6964ZM82.6624 66.6236C83.5039 66.6236 84.2402 66.4164 84.8713 66.0018C85.5258 65.5643 86.04 65.0807 86.4141 64.5509C86.7881 63.9982 86.9751 63.5491 86.9751 63.2036V58.4018C86.9751 57.4575 86.7647 56.663 86.344 56.0182C85.9232 55.3734 85.3855 54.8782 84.7311 54.5327C84.0765 54.1643 83.3987 53.98 82.6974 53.98C81.9026 53.98 81.178 54.1989 80.5235 54.6364C79.8689 55.0509 79.343 55.5921 78.9457 56.26C78.5483 56.9279 78.3496 57.6418 78.3496 58.4018V62.1327C78.3496 62.8927 78.5483 63.6182 78.9457 64.3091C79.343 65 79.8689 65.5643 80.5235 66.0018C81.178 66.4164 81.891 66.6236 82.6624 66.6236ZM100.207 68.6964C98.9681 68.6964 97.8343 68.397 96.8059 67.7982C95.8006 67.1993 94.9942 66.4048 94.3866 65.4146C93.8021 64.4012 93.51 63.3303 93.51 62.2018V53.0127C93.51 52.7825 93.6267 52.5752 93.8606 52.3909C94.0943 52.2066 94.3631 52.1146 94.6671 52.1146C94.9709 52.1146 95.2281 52.2066 95.4384 52.3909C95.6721 52.5752 95.7891 52.7825 95.7891 53.0127V62.2018C95.7891 62.9618 95.9877 63.6757 96.3851 64.3436C96.7824 65.0116 97.3083 65.5643 97.963 66.0018C98.6174 66.4164 99.3537 66.6236 100.172 66.6236C101.013 66.6236 101.761 66.4164 102.416 66.0018C103.07 65.5873 103.585 65.0461 103.959 64.3782C104.356 63.6873 104.555 62.9618 104.555 62.2018V52.9782C104.555 52.7248 104.672 52.5175 104.905 52.3564C105.139 52.1952 105.408 52.1146 105.712 52.1146C106.063 52.1146 106.331 52.1952 106.518 52.3564C106.729 52.5175 106.834 52.7248 106.834 52.9782V62.2018C106.834 63.3764 106.53 64.4589 105.922 65.4491C105.338 66.4164 104.531 67.1993 103.503 67.7982C102.498 68.397 101.399 68.6964 100.207 68.6964ZM112.482 68.4546C112.178 68.4546 111.91 68.3625 111.676 68.1782C111.465 67.9939 111.36 67.7866 111.36 67.5564V42.96C111.36 42.6836 111.465 42.4764 111.676 42.3382C111.91 42.177 112.178 42.0964 112.482 42.0964C112.81 42.0964 113.078 42.177 113.289 42.3382C113.523 42.4764 113.639 42.6836 113.639 42.96V67.5564C113.639 67.7866 113.523 67.9939 113.289 68.1782C113.078 68.3625 112.81 68.4546 112.482 68.4546ZM124.369 68.6964C123.177 68.6964 122.078 68.397 121.073 67.7982C120.068 67.1764 119.25 66.3703 118.619 65.38C118.011 64.3666 117.707 63.2843 117.707 62.1327V58.4018C117.707 57.2273 117.999 56.1564 118.584 55.1891C119.191 54.1989 119.998 53.4043 121.003 52.8055C122.031 52.2066 123.153 51.9073 124.369 51.9073C125.561 51.9073 126.66 52.2066 127.665 52.8055C128.693 53.3812 129.511 54.1527 130.119 55.12C130.727 56.0873 131.031 57.1812 131.031 58.4018V62.1327C131.031 63.2612 130.727 64.3321 130.119 65.3455C129.511 66.3589 128.693 67.1764 127.665 67.7982C126.66 68.397 125.561 68.6964 124.369 68.6964ZM124.369 66.6236C125.187 66.6236 125.923 66.4164 126.578 66.0018C127.232 65.5643 127.758 65 128.156 64.3091C128.553 63.6182 128.752 62.8927 128.752 62.1327V58.4018C128.752 57.6418 128.553 56.9279 128.156 56.26C127.782 55.5921 127.256 55.0509 126.578 54.6364C125.923 54.1989 125.187 53.98 124.369 53.98C123.551 53.98 122.814 54.1989 122.16 54.6364C121.505 55.0509 120.98 55.5921 120.582 56.26C120.185 56.9279 119.986 57.6418 119.986 58.4018V62.1327C119.986 62.8927 120.185 63.6182 120.582 64.3091C120.98 65 121.505 65.5643 122.16 66.0018C122.838 66.4164 123.574 66.6236 124.369 66.6236ZM148.981 68.6618C147.625 68.6618 146.387 68.42 145.264 67.9364C144.166 67.4527 143.289 66.6698 142.635 65.5873C141.98 64.5048 141.653 63.0655 141.653 61.2691V50.5946C141.653 48.7982 141.98 47.3589 142.635 46.2764C143.289 45.1939 144.166 44.4109 145.264 43.9273C146.387 43.4436 147.649 43.2018 149.051 43.2018C150.22 43.2018 151.249 43.363 152.137 43.6855C153.048 44.0079 153.808 44.457 154.416 45.0327C155.024 45.6084 155.48 46.2418 155.783 46.9327C156.111 47.6236 156.274 48.3491 156.274 49.1091C156.274 49.4775 156.169 49.7539 155.959 49.9382C155.772 50.0993 155.515 50.18 155.187 50.18C154.86 50.18 154.568 50.1109 154.311 49.9727C154.077 49.8116 153.96 49.5582 153.96 49.2127C153.96 48.4066 153.738 47.7157 153.294 47.14C152.85 46.5643 152.242 46.1152 151.471 45.7927C150.723 45.4703 149.893 45.3091 148.981 45.3091C147.415 45.3091 146.188 45.7352 145.3 46.5873C144.435 47.4393 144.002 48.7752 144.002 50.5946V55.8455C144.587 55.0393 145.335 54.4636 146.246 54.1182C147.181 53.7498 148.198 53.5655 149.297 53.5655C150.582 53.5655 151.751 53.7727 152.803 54.1873C153.855 54.6018 154.696 55.3157 155.328 56.3291C155.959 57.3193 156.274 58.6898 156.274 60.44V61.2691C156.274 63.0655 155.947 64.5048 155.293 65.5873C154.638 66.6698 153.761 67.4527 152.663 67.9364C151.588 68.42 150.36 68.6618 148.981 68.6618ZM148.981 66.6236C150.547 66.6236 151.763 66.1975 152.628 65.3455C153.493 64.4934 153.925 63.1691 153.925 61.3727V60.5436C153.925 58.7243 153.493 57.4346 152.628 56.6746C151.763 55.9146 150.547 55.5346 148.981 55.5346C147.462 55.5346 146.246 55.8916 145.335 56.6055C144.446 57.3193 144.002 58.5284 144.002 60.2327V61.3727C144.002 63.1691 144.435 64.4934 145.3 65.3455C146.188 66.1975 147.415 66.6236 148.981 66.6236ZM39.3652 122C39.0612 122 38.7925 121.931 38.5588 121.793C38.3249 121.632 38.2081 121.401 38.2081 121.102V97.8527C38.2081 97.4382 38.3249 97.1503 38.5588 96.9891C38.7925 96.8279 39.0612 96.7473 39.3652 96.7473C39.6457 96.7473 39.8912 96.8279 40.1015 96.9891C40.3352 97.1273 40.5456 97.323 40.7327 97.5764C40.9195 97.8066 41.0833 98.0716 41.2235 98.3709L47.2544 109.805L53.2501 98.3709C53.437 98.0716 53.6123 97.8066 53.7761 97.5764C53.963 97.323 54.1734 97.1273 54.4072 96.9891C54.6409 96.8279 54.8864 96.7473 55.1435 96.7473C55.4707 96.7473 55.7396 96.8279 55.95 96.9891C56.1837 97.1503 56.3006 97.4382 56.3006 97.8527V121.102C56.3006 121.401 56.1837 121.632 55.95 121.793C55.7161 121.931 55.4474 122 55.1435 122C54.863 122 54.5941 121.931 54.3371 121.793C54.1032 121.632 53.9865 121.401 53.9865 121.102V101.687L48.166 112.535C48.0258 112.811 47.8738 113.007 47.7102 113.122C47.5465 113.237 47.3829 113.295 47.2193 113.295C47.0791 113.295 46.9271 113.237 46.7635 113.122C46.5998 113.007 46.4362 112.811 46.2726 112.535L40.5223 101.618V121.102C40.5223 121.401 40.3936 121.632 40.1366 121.793C39.9027 121.931 39.6457 122 39.3652 122ZM67.032 122.242C65.8399 122.242 64.7412 121.943 63.7361 121.344C62.731 120.722 61.9128 119.916 61.2817 118.925C60.6739 117.912 60.37 116.83 60.37 115.678V111.947C60.37 110.773 60.6623 109.702 61.2466 108.735C61.8544 107.744 62.6609 106.95 63.666 106.351C64.6945 105.752 65.8165 105.453 67.032 105.453C68.2241 105.453 69.3228 105.752 70.3279 106.351C71.3565 106.927 72.1745 107.698 72.7823 108.665C73.3901 109.633 73.694 110.727 73.694 111.947V115.678C73.694 116.807 73.3901 117.878 72.7823 118.891C72.1745 119.904 71.3565 120.722 70.3279 121.344C69.3228 121.943 68.2241 122.242 67.032 122.242ZM67.032 120.169C67.8502 120.169 68.5865 119.962 69.241 119.547C69.8954 119.11 70.4214 118.545 70.8188 117.855C71.2162 117.164 71.4149 116.438 71.4149 115.678V111.947C71.4149 111.187 71.2162 110.473 70.8188 109.805C70.4449 109.138 69.9189 108.596 69.241 108.182C68.5865 107.744 67.8502 107.525 67.032 107.525C66.2138 107.525 65.4775 107.744 64.823 108.182C64.1686 108.596 63.6426 109.138 63.2452 109.805C62.8478 110.473 62.6491 111.187 62.6491 111.947V115.678C62.6491 116.438 62.8478 117.164 63.2452 117.855C63.6426 118.545 64.1686 119.11 64.823 119.547C65.501 119.962 66.2373 120.169 67.032 120.169ZM83.0119 122.242C81.9367 122.242 80.9199 121.943 79.9615 121.344C79.003 120.722 78.2316 119.904 77.6473 118.891C77.0863 117.878 76.8058 116.807 76.8058 115.678V111.947C76.8058 110.75 77.0863 109.667 77.6473 108.7C78.2316 107.71 79.003 106.927 79.9615 106.351C80.9199 105.752 81.9718 105.453 83.1171 105.453C84.2625 105.453 85.2209 105.729 85.9923 106.282C86.787 106.812 87.3715 107.41 87.7454 108.078V96.5055C87.7454 96.2291 87.8624 96.0218 88.0961 95.8837C88.3298 95.7225 88.5987 95.6418 88.9025 95.6418C89.2532 95.6418 89.5219 95.7225 89.709 95.8837C89.9193 96.0218 90.0245 96.2291 90.0245 96.5055V121.102C90.0245 121.332 89.9193 121.539 89.709 121.724C89.5219 121.908 89.2532 122 88.9025 122C88.622 122 88.3648 121.908 88.1311 121.724C87.9208 121.539 87.8156 121.332 87.8156 121.102V119.582C87.4649 120.296 86.8456 120.918 85.9572 121.447C85.0924 121.977 84.1106 122.242 83.0119 122.242ZM83.4327 120.169C84.2742 120.169 85.0105 119.962 85.6417 119.547C86.2961 119.11 86.8105 118.626 87.1844 118.096C87.5584 117.544 87.7454 117.095 87.7454 116.749V111.947C87.7454 111.003 87.5351 110.208 87.1143 109.564C86.6936 108.919 86.1559 108.424 85.5014 108.078C84.847 107.71 84.169 107.525 83.4678 107.525C82.6731 107.525 81.9483 107.744 81.2939 108.182C80.6394 108.596 80.1135 109.138 79.716 109.805C79.3186 110.473 79.12 111.187 79.12 111.947V115.678C79.12 116.438 79.3186 117.164 79.716 117.855C80.1135 118.545 80.6394 119.11 81.2939 119.547C81.9483 119.962 82.6613 120.169 83.4327 120.169ZM100.977 122.242C99.7384 122.242 98.6048 121.943 97.5762 121.344C96.5711 120.745 95.7647 119.95 95.1569 118.96C94.5726 117.947 94.2803 116.876 94.2803 115.747V106.558C94.2803 106.328 94.3972 106.121 94.6309 105.936C94.8646 105.752 95.1336 105.66 95.4374 105.66C95.7412 105.66 95.9984 105.752 96.2088 105.936C96.4425 106.121 96.5594 106.328 96.5594 106.558V115.747C96.5594 116.507 96.758 117.221 97.1555 117.889C97.5529 118.557 98.0789 119.11 98.7333 119.547C99.3878 119.962 100.124 120.169 100.942 120.169C101.784 120.169 102.532 119.962 103.186 119.547C103.841 119.133 104.355 118.592 104.729 117.924C105.127 117.233 105.325 116.507 105.325 115.747V106.524C105.325 106.27 105.442 106.063 105.676 105.902C105.909 105.741 106.178 105.66 106.482 105.66C106.833 105.66 107.102 105.741 107.289 105.902C107.499 106.063 107.604 106.27 107.604 106.524V115.747C107.604 116.922 107.3 118.004 106.693 118.995C106.108 119.962 105.302 120.745 104.273 121.344C103.268 121.943 102.169 122.242 100.977 122.242ZM113.253 122C112.949 122 112.68 121.908 112.446 121.724C112.236 121.539 112.131 121.332 112.131 121.102V96.5055C112.131 96.2291 112.236 96.0218 112.446 95.8837C112.68 95.7225 112.949 95.6418 113.253 95.6418C113.58 95.6418 113.849 95.7225 114.059 95.8837C114.293 96.0218 114.41 96.2291 114.41 96.5055V121.102C114.41 121.332 114.293 121.539 114.059 121.724C113.849 121.908 113.58 122 113.253 122ZM125.139 122.242C123.947 122.242 122.849 121.943 121.843 121.344C120.838 120.722 120.02 119.916 119.389 118.925C118.781 117.912 118.477 116.83 118.477 115.678V111.947C118.477 110.773 118.77 109.702 119.354 108.735C119.962 107.744 120.768 106.95 121.773 106.351C122.802 105.752 123.924 105.453 125.139 105.453C126.331 105.453 127.43 105.752 128.435 106.351C129.464 106.927 130.282 107.698 130.89 108.665C131.497 109.633 131.801 110.727 131.801 111.947V115.678C131.801 116.807 131.497 117.878 130.89 118.891C130.282 119.904 129.464 120.722 128.435 121.344C127.43 121.943 126.331 122.242 125.139 122.242ZM125.139 120.169C125.957 120.169 126.694 119.962 127.348 119.547C128.003 119.11 128.529 118.545 128.926 117.855C129.323 117.164 129.522 116.438 129.522 115.678V111.947C129.522 111.187 129.323 110.473 128.926 109.805C128.552 109.138 128.026 108.596 127.348 108.182C126.694 107.744 125.957 107.525 125.139 107.525C124.321 107.525 123.585 107.744 122.93 108.182C122.276 108.596 121.75 109.138 121.352 109.805C120.955 110.473 120.756 111.187 120.756 111.947V115.678C120.756 116.438 120.955 117.164 121.352 117.855C121.75 118.545 122.276 119.11 122.93 119.547C123.608 119.962 124.345 120.169 125.139 120.169ZM148.63 122.207C147.11 122.207 145.801 121.943 144.703 121.413C143.604 120.86 142.762 120.146 142.178 119.271C141.617 118.373 141.337 117.394 141.337 116.335C141.337 115.897 141.442 115.598 141.652 115.436C141.863 115.275 142.143 115.195 142.494 115.195C142.914 115.195 143.206 115.287 143.37 115.471C143.557 115.655 143.651 115.885 143.651 116.162C143.651 116.991 143.873 117.705 144.317 118.304C144.761 118.879 145.357 119.328 146.105 119.651C146.853 119.95 147.683 120.1 148.595 120.1C150.161 120.1 151.388 119.674 152.276 118.822C153.164 117.97 153.609 116.657 153.609 114.884V114.227C153.609 112.5 153.164 111.222 152.276 110.393C151.388 109.564 150.184 109.149 148.665 109.149H143.756C143.288 109.149 142.973 109.068 142.809 108.907C142.645 108.723 142.564 108.504 142.564 108.251C142.564 108.113 142.564 107.998 142.564 107.905C142.587 107.79 142.61 107.675 142.634 107.56L143.335 97.6455C143.358 97.3691 143.429 97.1503 143.546 96.9891C143.662 96.8279 143.826 96.7473 144.036 96.7473H153.889C154.146 96.7473 154.333 96.8625 154.45 97.0927C154.59 97.3 154.661 97.5418 154.661 97.8182C154.661 98.0716 154.59 98.3134 154.45 98.5436C154.333 98.7509 154.146 98.8546 153.889 98.8546H145.404L144.808 107.145H148.665C150.02 107.145 151.248 107.376 152.346 107.836C153.445 108.297 154.31 109.045 154.941 110.082C155.595 111.118 155.923 112.5 155.923 114.227V114.884C155.923 116.657 155.595 118.085 154.941 119.167C154.31 120.227 153.433 120.998 152.311 121.482C151.213 121.965 149.985 122.207 148.63 122.207ZM39.8959 175.545C39.5921 175.545 39.3231 175.476 39.0894 175.338C38.8557 175.177 38.7388 174.947 38.7388 174.647V151.398C38.7388 150.984 38.8557 150.696 39.0894 150.535C39.3231 150.373 39.5921 150.293 39.8959 150.293C40.1764 150.293 40.4218 150.373 40.6322 150.535C40.8659 150.673 41.0763 150.868 41.2633 151.122C41.4504 151.352 41.614 151.617 41.7542 151.916L47.7851 163.351L53.7808 151.916C53.9679 151.617 54.1432 151.352 54.3068 151.122C54.4938 150.868 54.7042 150.673 54.9379 150.535C55.1716 150.373 55.417 150.293 55.6742 150.293C56.0015 150.293 56.2703 150.373 56.4807 150.535C56.7144 150.696 56.8313 150.984 56.8313 151.398V174.647C56.8313 174.947 56.7144 175.177 56.4807 175.338C56.247 175.476 55.978 175.545 55.6742 175.545C55.3937 175.545 55.125 175.476 54.8678 175.338C54.6341 175.177 54.5171 174.947 54.5171 174.647V155.233L48.6967 166.08C48.5564 166.356 48.4044 166.552 48.2409 166.667C48.0773 166.782 47.9136 166.84 47.75 166.84C47.6097 166.84 47.4577 166.782 47.2942 166.667C47.1306 166.552 46.9669 166.356 46.8033 166.08L41.053 155.164V174.647C41.053 174.947 40.9245 175.177 40.6673 175.338C40.4336 175.476 40.1764 175.545 39.8959 175.545ZM67.5627 175.787C66.3705 175.787 65.272 175.488 64.2668 174.889C63.2617 174.267 62.4435 173.461 61.8123 172.471C61.2047 171.458 60.9007 170.375 60.9007 169.224V165.493C60.9007 164.318 61.193 163.247 61.7773 162.28C62.3851 161.29 63.1915 160.495 64.1966 159.896C65.2252 159.298 66.3472 158.998 67.5627 158.998C68.7548 158.998 69.8535 159.298 70.8586 159.896C71.8872 160.472 72.7054 161.244 73.313 162.211C73.9208 163.178 74.2246 164.272 74.2246 165.493V169.224C74.2246 170.352 73.9208 171.423 73.313 172.436C72.7054 173.45 71.8872 174.267 70.8586 174.889C69.8535 175.488 68.7548 175.787 67.5627 175.787ZM67.5627 173.715C68.3809 173.715 69.1172 173.507 69.7716 173.093C70.4263 172.655 70.9522 172.091 71.3495 171.4C71.7469 170.709 71.9455 169.984 71.9455 169.224V165.493C71.9455 164.733 71.7469 164.019 71.3495 163.351C70.9755 162.683 70.4496 162.142 69.7716 161.727C69.1172 161.29 68.3809 161.071 67.5627 161.071C66.7447 161.071 66.0083 161.29 65.3537 161.727C64.6993 162.142 64.1733 162.683 63.7759 163.351C63.3786 164.019 63.1798 164.733 63.1798 165.493V169.224C63.1798 169.984 63.3786 170.709 63.7759 171.4C64.1733 172.091 64.6993 172.655 65.3537 173.093C66.0316 173.507 66.768 173.715 67.5627 173.715ZM83.5426 175.787C82.4674 175.787 81.4506 175.488 80.4921 174.889C79.5339 174.267 78.7625 173.45 78.178 172.436C77.617 171.423 77.3365 170.352 77.3365 169.224V165.493C77.3365 164.295 77.617 163.213 78.178 162.245C78.7625 161.255 79.5339 160.472 80.4921 159.896C81.4506 159.298 82.5025 158.998 83.6478 158.998C84.7933 158.998 85.7516 159.275 86.523 159.827C87.3179 160.357 87.9022 160.956 88.2761 161.624V150.051C88.2761 149.775 88.3931 149.567 88.6268 149.429C88.8606 149.268 89.1294 149.187 89.4332 149.187C89.7838 149.187 90.0528 149.268 90.2396 149.429C90.45 149.567 90.5552 149.775 90.5552 150.051V174.647C90.5552 174.878 90.45 175.085 90.2396 175.269C90.0528 175.453 89.7838 175.545 89.4332 175.545C89.1527 175.545 88.8957 175.453 88.6618 175.269C88.4514 175.085 88.3463 174.878 88.3463 174.647V173.127C87.9956 173.841 87.3762 174.463 86.4879 174.993C85.6231 175.522 84.6413 175.787 83.5426 175.787ZM83.9634 173.715C84.8049 173.715 85.5412 173.507 86.1723 173.093C86.827 172.655 87.3412 172.172 87.7151 171.642C88.0892 171.089 88.2761 170.64 88.2761 170.295V165.493C88.2761 164.548 88.0657 163.754 87.645 163.109C87.2242 162.464 86.6867 161.969 86.0321 161.624C85.3776 161.255 84.6997 161.071 83.9984 161.071C83.2037 161.071 82.4792 161.29 81.8245 161.727C81.1701 162.142 80.6441 162.683 80.2467 163.351C79.8494 164.019 79.6506 164.733 79.6506 165.493V169.224C79.6506 169.984 79.8494 170.709 80.2467 171.4C80.6441 172.091 81.1701 172.655 81.8245 173.093C82.4792 173.507 83.192 173.715 83.9634 173.715ZM101.508 175.787C100.269 175.787 99.1355 175.488 98.1069 174.889C97.1018 174.29 96.2954 173.496 95.6876 172.505C95.1032 171.492 94.811 170.421 94.811 169.293V160.104C94.811 159.873 94.9279 159.666 95.1616 159.482C95.3955 159.298 95.6642 159.205 95.9681 159.205C96.2721 159.205 96.5291 159.298 96.7394 159.482C96.9733 159.666 97.0901 159.873 97.0901 160.104V169.293C97.0901 170.053 97.2889 170.767 97.6861 171.435C98.0836 172.103 98.6095 172.655 99.264 173.093C99.9186 173.507 100.655 173.715 101.473 173.715C102.314 173.715 103.063 173.507 103.717 173.093C104.372 172.678 104.886 172.137 105.26 171.469C105.657 170.778 105.856 170.053 105.856 169.293V160.069C105.856 159.816 105.973 159.608 106.206 159.447C106.44 159.286 106.709 159.205 107.013 159.205C107.364 159.205 107.632 159.286 107.819 159.447C108.03 159.608 108.135 159.816 108.135 160.069V169.293C108.135 170.467 107.831 171.55 107.223 172.54C106.639 173.507 105.833 174.29 104.804 174.889C103.799 175.488 102.7 175.787 101.508 175.787ZM113.783 175.545C113.48 175.545 113.211 175.453 112.977 175.269C112.767 175.085 112.661 174.878 112.661 174.647V150.051C112.661 149.775 112.767 149.567 112.977 149.429C113.211 149.268 113.48 149.187 113.783 149.187C114.111 149.187 114.379 149.268 114.59 149.429C114.824 149.567 114.94 149.775 114.94 150.051V174.647C114.94 174.878 114.824 175.085 114.59 175.269C114.379 175.453 114.111 175.545 113.783 175.545ZM125.67 175.787C124.478 175.787 123.379 175.488 122.374 174.889C121.369 174.267 120.551 173.461 119.92 172.471C119.312 171.458 119.008 170.375 119.008 169.224V165.493C119.008 164.318 119.3 163.247 119.885 162.28C120.492 161.29 121.299 160.495 122.304 159.896C123.332 159.298 124.454 158.998 125.67 158.998C126.862 158.998 127.961 159.298 128.966 159.896C129.994 160.472 130.813 161.244 131.42 162.211C132.028 163.178 132.332 164.272 132.332 165.493V169.224C132.332 170.352 132.028 171.423 131.42 172.436C130.813 173.45 129.994 174.267 128.966 174.889C127.961 175.488 126.862 175.787 125.67 175.787ZM125.67 173.715C126.488 173.715 127.224 173.507 127.879 173.093C128.534 172.655 129.059 172.091 129.457 171.4C129.854 170.709 130.053 169.984 130.053 169.224V165.493C130.053 164.733 129.854 164.019 129.457 163.351C129.083 162.683 128.557 162.142 127.879 161.727C127.224 161.29 126.488 161.071 125.67 161.071C124.852 161.071 124.116 161.29 123.461 161.727C122.806 162.142 122.281 162.683 121.883 163.351C121.486 164.019 121.287 164.733 121.287 165.493V169.224C121.287 169.984 121.486 170.709 121.883 171.4C122.281 172.091 122.806 172.655 123.461 173.093C124.139 173.507 124.875 173.715 125.67 173.715ZM152.141 175.545C151.86 175.545 151.591 175.476 151.334 175.338C151.101 175.177 150.984 174.947 150.984 174.647V169.604H142.078C141.797 169.604 141.575 169.523 141.411 169.362C141.248 169.178 141.166 168.947 141.166 168.671C141.166 168.556 141.178 168.452 141.201 168.36C141.224 168.268 141.259 168.176 141.306 168.084L150.107 151.018C150.224 150.742 150.376 150.558 150.563 150.465C150.773 150.35 150.984 150.293 151.194 150.293C151.358 150.293 151.521 150.339 151.685 150.431C151.872 150.5 152.024 150.604 152.141 150.742C152.258 150.88 152.316 151.041 152.316 151.225C152.316 151.341 152.281 151.49 152.211 151.675L144.146 167.427H150.984V160.76C150.984 160.461 151.101 160.253 151.334 160.138C151.591 160 151.86 159.931 152.141 159.931C152.445 159.931 152.713 160 152.947 160.138C153.181 160.253 153.298 160.461 153.298 160.76V167.427H155.226C155.53 167.427 155.752 167.542 155.892 167.773C156.056 167.98 156.138 168.222 156.138 168.498C156.138 168.775 156.044 169.028 155.857 169.258C155.694 169.488 155.483 169.604 155.226 169.604H153.298V174.647C153.298 174.947 153.181 175.177 152.947 175.338C152.713 175.476 152.445 175.545 152.141 175.545ZM39.1254 229.091C38.8216 229.091 38.5528 229.022 38.3189 228.884C38.0852 228.723 37.9683 228.492 37.9683 228.193V204.944C37.9683 204.529 38.0852 204.241 38.3189 204.08C38.5528 203.919 38.8216 203.838 39.1254 203.838C39.4059 203.838 39.6513 203.919 39.8617 204.08C40.0956 204.218 40.3059 204.413 40.4928 204.667C40.6799 204.897 40.8435 205.163 40.9837 205.462L47.0145 216.896L53.0103 205.462C53.1974 205.163 53.3727 204.897 53.5363 204.667C53.7233 204.413 53.9337 204.218 54.1674 204.08C54.4013 203.919 54.6467 203.838 54.9037 203.838C55.231 203.838 55.4998 203.919 55.7102 204.08C55.944 204.241 56.0608 204.529 56.0608 204.944V228.193C56.0608 228.492 55.944 228.723 55.7102 228.884C55.4765 229.022 55.2077 229.091 54.9037 229.091C54.6232 229.091 54.3545 229.022 54.0973 228.884C53.8636 228.723 53.7466 228.492 53.7466 228.193V208.778L47.9262 219.625C47.7859 219.902 47.6341 220.097 47.4704 220.213C47.3068 220.328 47.1432 220.385 46.9795 220.385C46.8392 220.385 46.6874 220.328 46.5237 220.213C46.3601 220.097 46.1965 219.902 46.0328 219.625L40.2825 208.709V228.193C40.2825 228.492 40.154 228.723 39.8968 228.884C39.6631 229.022 39.4059 229.091 39.1254 229.091ZM66.7923 229.333C65.6002 229.333 64.5015 229.034 63.4964 228.435C62.4913 227.813 61.6731 227.006 61.042 226.016C60.4342 225.002 60.1304 223.921 60.1304 222.769V219.038C60.1304 217.864 60.4226 216.793 61.007 215.825C61.6148 214.836 62.4212 214.041 63.4263 213.442C64.4549 212.842 65.5769 212.544 66.7923 212.544C67.9845 212.544 69.0832 212.842 70.0883 213.442C71.1168 214.017 71.9349 214.789 72.5427 215.756C73.1505 216.724 73.4543 217.817 73.4543 219.038V222.769C73.4543 223.897 73.1505 224.968 72.5427 225.982C71.9349 226.996 71.1168 227.813 70.0883 228.435C69.0832 229.034 67.9845 229.333 66.7923 229.333ZM66.7923 227.26C67.6105 227.26 68.3469 227.053 69.0013 226.638C69.6558 226.201 70.1817 225.636 70.5791 224.945C70.9766 224.255 71.1752 223.529 71.1752 222.769V219.038C71.1752 218.278 70.9766 217.565 70.5791 216.896C70.2052 216.228 69.6793 215.687 69.0013 215.273C68.3469 214.836 67.6105 214.616 66.7923 214.616C65.9741 214.616 65.2378 214.836 64.5834 215.273C63.9289 215.687 63.403 216.228 63.0055 216.896C62.6081 217.565 62.4095 218.278 62.4095 219.038V222.769C62.4095 223.529 62.6081 224.255 63.0055 224.945C63.403 225.636 63.9289 226.201 64.5834 226.638C65.2613 227.053 65.9976 227.26 66.7923 227.26ZM82.7723 229.333C81.6971 229.333 80.6803 229.034 79.7218 228.435C78.7634 227.813 77.992 226.996 77.4077 225.982C76.8466 224.968 76.5661 223.897 76.5661 222.769V219.038C76.5661 217.841 76.8466 216.758 77.4077 215.791C77.992 214.801 78.7634 214.017 79.7218 213.442C80.6803 212.842 81.7321 212.544 82.8775 212.544C84.0228 212.544 84.9813 212.82 85.7526 213.373C86.5473 213.903 87.1318 214.501 87.5058 215.169V203.596C87.5058 203.32 87.6227 203.113 87.8564 202.975C88.0901 202.814 88.359 202.733 88.6629 202.733C89.0135 202.733 89.2823 202.814 89.4693 202.975C89.6797 203.113 89.7849 203.32 89.7849 203.596V228.193C89.7849 228.422 89.6797 228.63 89.4693 228.815C89.2823 228.999 89.0135 229.091 88.6629 229.091C88.3824 229.091 88.1252 228.999 87.8915 228.815C87.6811 228.63 87.5759 228.422 87.5759 228.193V226.673C87.2253 227.386 86.6059 228.008 85.7176 228.538C84.8528 229.068 83.871 229.333 82.7723 229.333ZM83.193 227.26C84.0346 227.26 84.7709 227.053 85.402 226.638C86.0565 226.201 86.5708 225.718 86.9448 225.187C87.3187 224.635 87.5058 224.185 87.5058 223.84V219.038C87.5058 218.093 87.2954 217.299 86.8747 216.655C86.4539 216.01 85.9162 215.515 85.2618 215.169C84.6073 214.801 83.9294 214.616 83.2281 214.616C82.4334 214.616 81.7087 214.836 81.0542 215.273C80.3998 215.687 79.8738 216.228 79.4764 216.896C79.0789 217.565 78.8803 218.278 78.8803 219.038V222.769C78.8803 223.529 79.0789 224.255 79.4764 224.945C79.8738 225.636 80.3998 226.201 81.0542 226.638C81.7087 227.053 82.4217 227.26 83.193 227.26ZM100.738 229.333C99.4987 229.333 98.3651 229.034 97.3366 228.435C96.3315 227.835 95.525 227.041 94.9172 226.051C94.3329 225.037 94.0407 223.966 94.0407 222.838V213.649C94.0407 213.419 94.1576 213.212 94.3913 213.027C94.625 212.842 94.8939 212.751 95.1977 212.751C95.5016 212.751 95.7587 212.842 95.9691 213.027C96.2028 213.212 96.3197 213.419 96.3197 213.649V222.838C96.3197 223.598 96.5184 224.312 96.9158 224.98C97.3133 225.648 97.8392 226.201 98.4937 226.638C99.1481 227.053 99.8844 227.26 100.703 227.26C101.544 227.26 102.292 227.053 102.947 226.638C103.601 226.224 104.115 225.683 104.489 225.015C104.887 224.324 105.085 223.598 105.085 222.838V213.615C105.085 213.361 105.202 213.153 105.436 212.993C105.67 212.832 105.939 212.751 106.243 212.751C106.593 212.751 106.862 212.832 107.049 212.993C107.259 213.153 107.365 213.361 107.365 213.615V222.838C107.365 224.013 107.061 225.096 106.453 226.085C105.869 227.053 105.062 227.835 104.034 228.435C103.029 229.034 101.93 229.333 100.738 229.333ZM113.013 229.091C112.709 229.091 112.44 228.999 112.207 228.815C111.996 228.63 111.891 228.422 111.891 228.193V203.596C111.891 203.32 111.996 203.113 112.207 202.975C112.44 202.814 112.709 202.733 113.013 202.733C113.34 202.733 113.609 202.814 113.819 202.975C114.053 203.113 114.17 203.32 114.17 203.596V228.193C114.17 228.422 114.053 228.63 113.819 228.815C113.609 228.999 113.34 229.091 113.013 229.091ZM124.9 229.333C123.707 229.333 122.609 229.034 121.604 228.435C120.599 227.813 119.78 227.006 119.149 226.016C118.542 225.002 118.238 223.921 118.238 222.769V219.038C118.238 217.864 118.53 216.793 119.114 215.825C119.722 214.836 120.528 214.041 121.534 213.442C122.562 212.842 123.684 212.544 124.9 212.544C126.092 212.544 127.19 212.842 128.195 213.442C129.224 214.017 130.042 214.789 130.65 215.756C131.258 216.724 131.562 217.817 131.562 219.038V222.769C131.562 223.897 131.258 224.968 130.65 225.982C130.042 226.996 129.224 227.813 128.195 228.435C127.19 229.034 126.092 229.333 124.9 229.333ZM124.9 227.26C125.718 227.26 126.454 227.053 127.109 226.638C127.763 226.201 128.289 225.636 128.686 224.945C129.084 224.255 129.282 223.529 129.282 222.769V219.038C129.282 218.278 129.084 217.565 128.686 216.896C128.312 216.228 127.786 215.687 127.109 215.273C126.454 214.836 125.718 214.616 124.9 214.616C124.082 214.616 123.345 214.836 122.691 215.273C122.036 215.687 121.51 216.228 121.113 216.896C120.716 217.565 120.517 218.278 120.517 219.038V222.769C120.517 223.529 120.716 224.255 121.113 224.945C121.51 225.636 122.036 226.201 122.691 226.638C123.369 227.053 124.105 227.26 124.9 227.26ZM148.425 229.298C147.186 229.298 146.111 229.125 145.199 228.78C144.287 228.412 143.528 227.951 142.92 227.398C142.312 226.845 141.868 226.236 141.588 225.567C141.307 224.899 141.167 224.242 141.167 223.598C141.167 223.115 141.249 222.792 141.412 222.631C141.599 222.47 141.868 222.389 142.219 222.389C142.71 222.389 143.037 222.481 143.201 222.665C143.364 222.826 143.446 223.058 143.446 223.356C143.446 223.724 143.516 224.139 143.656 224.6C143.82 225.037 144.089 225.452 144.463 225.844C144.837 226.236 145.339 226.557 145.97 226.811C146.602 227.065 147.397 227.191 148.355 227.191C150.014 227.191 151.277 226.776 152.142 225.947C153.007 225.096 153.439 223.783 153.439 222.009V221.353C153.439 219.764 152.983 218.612 152.071 217.898C151.16 217.161 149.944 216.793 148.425 216.793C148.121 216.793 147.899 216.689 147.759 216.482C147.618 216.275 147.548 216.045 147.548 215.791C147.548 215.537 147.618 215.307 147.759 215.1C147.899 214.893 148.121 214.789 148.425 214.789C149.337 214.789 150.12 214.663 150.774 214.409C151.452 214.133 151.955 213.672 152.282 213.027C152.632 212.383 152.808 211.495 152.808 210.367C152.808 208.87 152.469 207.764 151.791 207.051C151.113 206.313 150.038 205.945 148.565 205.945C147.654 205.945 146.894 206.061 146.286 206.291C145.702 206.521 145.246 206.832 144.919 207.224C144.591 207.592 144.369 207.996 144.252 208.433C144.136 208.847 144.077 209.239 144.077 209.607C144.077 209.953 143.984 210.229 143.797 210.436C143.633 210.621 143.353 210.713 142.955 210.713C142.628 210.713 142.383 210.678 142.219 210.609C142.055 210.54 141.938 210.402 141.868 210.195C141.798 209.987 141.763 209.723 141.763 209.4C141.763 208.916 141.857 208.364 142.043 207.742C142.254 207.12 142.604 206.51 143.095 205.911C143.61 205.312 144.311 204.818 145.199 204.425C146.087 204.033 147.233 203.838 148.635 203.838C149.898 203.838 151.008 204.033 151.966 204.425C152.925 204.818 153.673 205.462 154.21 206.36C154.771 207.236 155.052 208.421 155.052 209.918C155.052 211.485 154.771 212.751 154.21 213.718C153.673 214.685 152.995 215.364 152.177 215.756C153.205 216.171 154.058 216.827 154.736 217.725C155.414 218.624 155.753 219.833 155.753 221.353V222.009C155.753 223.783 155.426 225.199 154.771 226.258C154.117 227.317 153.229 228.089 152.107 228.573C151.008 229.056 149.781 229.298 148.425 229.298ZM39.3652 282.636C39.0612 282.636 38.7925 282.567 38.5588 282.429C38.3249 282.268 38.2081 282.037 38.2081 281.738V258.489C38.2081 258.075 38.3249 257.786 38.5588 257.625C38.7925 257.465 39.0612 257.384 39.3652 257.384C39.6457 257.384 39.8912 257.465 40.1015 257.625C40.3352 257.764 40.5456 257.959 40.7327 258.213C40.9195 258.442 41.0833 258.708 41.2235 259.007L47.2544 270.442L53.2501 259.007C53.437 258.708 53.6123 258.442 53.7761 258.213C53.963 257.959 54.1734 257.764 54.4072 257.625C54.6409 257.465 54.8864 257.384 55.1435 257.384C55.4707 257.384 55.7396 257.465 55.95 257.625C56.1837 257.786 56.3006 258.075 56.3006 258.489V281.738C56.3006 282.037 56.1837 282.268 55.95 282.429C55.7161 282.567 55.4474 282.636 55.1435 282.636C54.863 282.636 54.5941 282.567 54.3371 282.429C54.1032 282.268 53.9865 282.037 53.9865 281.738V262.324L48.166 273.171C48.0258 273.447 47.8738 273.642 47.7102 273.758C47.5465 273.874 47.3829 273.931 47.2193 273.931C47.0791 273.931 46.9271 273.874 46.7635 273.758C46.5998 273.642 46.4362 273.447 46.2726 273.171L40.5223 262.255V281.738C40.5223 282.037 40.3936 282.268 40.1366 282.429C39.9027 282.567 39.6457 282.636 39.3652 282.636ZM67.032 282.878C65.8399 282.878 64.7412 282.579 63.7361 281.98C62.731 281.358 61.9128 280.552 61.2817 279.562C60.6739 278.548 60.37 277.467 60.37 276.315V272.584C60.37 271.409 60.6623 270.338 61.2466 269.371C61.8544 268.381 62.6609 267.587 63.666 266.987C64.6945 266.388 65.8165 266.089 67.032 266.089C68.2241 266.089 69.3228 266.388 70.3279 266.987C71.3565 267.562 72.1745 268.335 72.7823 269.302C73.3901 270.269 73.694 271.362 73.694 272.584V276.315C73.694 277.442 73.3901 278.513 72.7823 279.527C72.1745 280.541 71.3565 281.358 70.3279 281.98C69.3228 282.579 68.2241 282.878 67.032 282.878ZM67.032 280.805C67.8502 280.805 68.5865 280.598 69.241 280.184C69.8954 279.747 70.4214 279.182 70.8188 278.491C71.2162 277.8 71.4149 277.075 71.4149 276.315V272.584C71.4149 271.824 71.2162 271.11 70.8188 270.442C70.4449 269.773 69.9189 269.233 69.241 268.818C68.5865 268.381 67.8502 268.162 67.032 268.162C66.2138 268.162 65.4775 268.381 64.823 268.818C64.1686 269.233 63.6426 269.773 63.2452 270.442C62.8478 271.11 62.6491 271.824 62.6491 272.584V276.315C62.6491 277.075 62.8478 277.8 63.2452 278.491C63.6426 279.182 64.1686 279.747 64.823 280.184C65.501 280.598 66.2373 280.805 67.032 280.805ZM83.0119 282.878C81.9367 282.878 80.9199 282.579 79.9615 281.98C79.003 281.358 78.2316 280.541 77.6473 279.527C77.0863 278.513 76.8058 277.442 76.8058 276.315V272.584C76.8058 271.387 77.0863 270.304 77.6473 269.336C78.2316 268.347 79.003 267.562 79.9615 266.987C80.9199 266.388 81.9718 266.089 83.1171 266.089C84.2625 266.089 85.2209 266.365 85.9923 266.918C86.787 267.448 87.3715 268.046 87.7454 268.715V257.142C87.7454 256.865 87.8624 256.658 88.0961 256.52C88.3298 256.359 88.5987 256.278 88.9025 256.278C89.2532 256.278 89.5219 256.359 89.709 256.52C89.9193 256.658 90.0245 256.865 90.0245 257.142V281.738C90.0245 281.968 89.9193 282.175 89.709 282.36C89.5219 282.545 89.2532 282.636 88.9025 282.636C88.622 282.636 88.3648 282.545 88.1311 282.36C87.9208 282.175 87.8156 281.968 87.8156 281.738V280.218C87.4649 280.932 86.8456 281.553 85.9572 282.084C85.0924 282.614 84.1106 282.878 83.0119 282.878ZM83.4327 280.805C84.2742 280.805 85.0105 280.598 85.6417 280.184C86.2961 279.747 86.8105 279.263 87.1844 278.733C87.5584 278.18 87.7454 277.731 87.7454 277.385V272.584C87.7454 271.639 87.5351 270.844 87.1143 270.2C86.6936 269.556 86.1559 269.06 85.5014 268.715C84.847 268.347 84.169 268.162 83.4678 268.162C82.6731 268.162 81.9483 268.381 81.2939 268.818C80.6394 269.233 80.1135 269.773 79.716 270.442C79.3186 271.11 79.12 271.824 79.12 272.584V276.315C79.12 277.075 79.3186 277.8 79.716 278.491C80.1135 279.182 80.6394 279.747 81.2939 280.184C81.9483 280.598 82.6613 280.805 83.4327 280.805ZM100.977 282.878C99.7384 282.878 98.6048 282.579 97.5762 281.98C96.5711 281.381 95.7647 280.586 95.1569 279.596C94.5726 278.582 94.2803 277.512 94.2803 276.384V267.195C94.2803 266.965 94.3972 266.758 94.6309 266.573C94.8646 266.388 95.1336 266.296 95.4374 266.296C95.7412 266.296 95.9984 266.388 96.2088 266.573C96.4425 266.758 96.5594 266.965 96.5594 267.195V276.384C96.5594 277.144 96.758 277.857 97.1555 278.525C97.5529 279.194 98.0789 279.747 98.7333 280.184C99.3878 280.598 100.124 280.805 100.942 280.805C101.784 280.805 102.532 280.598 103.186 280.184C103.841 279.769 104.355 279.228 104.729 278.56C105.127 277.869 105.325 277.144 105.325 276.384V267.16C105.325 266.906 105.442 266.699 105.676 266.538C105.909 266.378 106.178 266.296 106.482 266.296C106.833 266.296 107.102 266.378 107.289 266.538C107.499 266.699 107.604 266.906 107.604 267.16V276.384C107.604 277.558 107.3 278.641 106.693 279.631C106.108 280.598 105.302 281.381 104.273 281.98C103.268 282.579 102.169 282.878 100.977 282.878ZM113.253 282.636C112.949 282.636 112.68 282.545 112.446 282.36C112.236 282.175 112.131 281.968 112.131 281.738V257.142C112.131 256.865 112.236 256.658 112.446 256.52C112.68 256.359 112.949 256.278 113.253 256.278C113.58 256.278 113.849 256.359 114.059 256.52C114.293 256.658 114.41 256.865 114.41 257.142V281.738C114.41 281.968 114.293 282.175 114.059 282.36C113.849 282.545 113.58 282.636 113.253 282.636ZM125.139 282.878C123.947 282.878 122.849 282.579 121.843 281.98C120.838 281.358 120.02 280.552 119.389 279.562C118.781 278.548 118.477 277.467 118.477 276.315V272.584C118.477 271.409 118.77 270.338 119.354 269.371C119.962 268.381 120.768 267.587 121.773 266.987C122.802 266.388 123.924 266.089 125.139 266.089C126.331 266.089 127.43 266.388 128.435 266.987C129.464 267.562 130.282 268.335 130.89 269.302C131.497 270.269 131.801 271.362 131.801 272.584V276.315C131.801 277.442 131.497 278.513 130.89 279.527C130.282 280.541 129.464 281.358 128.435 281.98C127.43 282.579 126.331 282.878 125.139 282.878ZM125.139 280.805C125.957 280.805 126.694 280.598 127.348 280.184C128.003 279.747 128.529 279.182 128.926 278.491C129.323 277.8 129.522 277.075 129.522 276.315V272.584C129.522 271.824 129.323 271.11 128.926 270.442C128.552 269.773 128.026 269.233 127.348 268.818C126.694 268.381 125.957 268.162 125.139 268.162C124.321 268.162 123.585 268.381 122.93 268.818C122.276 269.233 121.75 269.773 121.352 270.442C120.955 271.11 120.756 271.824 120.756 272.584V276.315C120.756 277.075 120.955 277.8 121.352 278.491C121.75 279.182 122.276 279.747 122.93 280.184C123.608 280.598 124.345 280.805 125.139 280.805ZM142.669 282.636C142.435 282.636 142.19 282.555 141.933 282.395C141.699 282.234 141.582 282.015 141.582 281.738V278.387C141.582 277.442 141.863 276.568 142.424 275.762C143.008 274.955 143.744 274.195 144.632 273.482C145.521 272.768 146.467 272.065 147.473 271.375C148.501 270.684 149.459 269.97 150.348 269.233C151.259 268.473 151.996 267.678 152.557 266.849C153.141 266.02 153.433 265.099 153.433 264.085C153.433 263.348 153.258 262.635 152.907 261.944C152.557 261.253 152.031 260.678 151.33 260.216C150.652 259.755 149.775 259.525 148.7 259.525C147.508 259.525 146.502 259.871 145.684 260.562C144.866 261.23 144.457 262.242 144.457 263.602C144.457 263.832 144.352 264.051 144.142 264.258C143.931 264.443 143.627 264.535 143.23 264.535C142.879 264.535 142.61 264.431 142.424 264.224C142.26 264.016 142.178 263.648 142.178 263.118C142.178 262.013 142.47 261.033 143.055 260.182C143.639 259.306 144.422 258.627 145.404 258.144C146.409 257.638 147.531 257.384 148.77 257.384C150.126 257.384 151.318 257.682 152.346 258.282C153.398 258.857 154.228 259.652 154.836 260.665C155.443 261.655 155.747 262.773 155.747 264.016C155.747 265.238 155.455 266.343 154.871 267.333C154.31 268.322 153.585 269.221 152.697 270.027C151.809 270.834 150.862 271.582 149.857 272.273C148.852 272.964 147.905 273.632 147.017 274.276C146.128 274.921 145.392 275.577 144.808 276.245C144.247 276.914 143.966 277.627 143.966 278.387V280.529H155.151C155.385 280.529 155.584 280.633 155.747 280.84C155.911 281.025 155.993 281.267 155.993 281.565C155.993 281.842 155.911 282.096 155.747 282.325C155.584 282.533 155.385 282.636 155.151 282.636H142.669ZM43.5768 336.182C43.273 336.182 43.004 336.113 42.7703 335.975C42.5367 335.814 42.4197 335.582 42.4197 335.284V312.035C42.4197 311.62 42.5367 311.332 42.7703 311.171C43.004 311.01 43.273 310.929 43.5768 310.929C43.8573 310.929 44.1027 311.01 44.3131 311.171C44.5468 311.309 44.7572 311.504 44.9443 311.758C45.1313 311.988 45.2949 312.254 45.4351 312.553L51.466 323.987L57.4617 312.553C57.6488 312.254 57.8241 311.988 57.9877 311.758C58.1747 311.504 58.3851 311.309 58.6188 311.171C58.8525 311.01 59.0979 310.929 59.3551 310.929C59.6824 310.929 59.9512 311.01 60.1616 311.171C60.3953 311.332 60.5122 311.62 60.5122 312.035V335.284C60.5122 335.582 60.3953 335.814 60.1616 335.975C59.9279 336.113 59.659 336.182 59.3551 336.182C59.0746 336.182 58.8059 336.113 58.5487 335.975C58.315 335.814 58.1981 335.582 58.1981 335.284V315.869L52.3776 326.716C52.2373 326.993 52.0854 327.188 51.9218 327.304C51.7582 327.419 51.5945 327.476 51.4309 327.476C51.2907 327.476 51.1387 327.419 50.9751 327.304C50.8115 327.188 50.6478 326.993 50.4842 326.716L44.7339 315.8V335.284C44.7339 335.582 44.6054 335.814 44.3482 335.975C44.1145 336.113 43.8573 336.182 43.5768 336.182ZM71.2438 336.424C70.0516 336.424 68.9529 336.125 67.9478 335.525C66.9426 334.904 66.1246 334.097 65.4934 333.107C64.8856 332.093 64.5818 331.012 64.5818 329.86V326.129C64.5818 324.955 64.8739 323.884 65.4584 322.916C66.066 321.927 66.8725 321.132 67.8777 320.533C68.9061 319.933 70.0281 319.635 71.2438 319.635C72.4359 319.635 73.5344 319.933 74.5397 320.533C75.5681 321.108 76.3863 321.88 76.9941 322.847C77.6017 323.815 77.9057 324.908 77.9057 326.129V329.86C77.9057 330.988 77.6017 332.059 76.9941 333.073C76.3863 334.087 75.5681 334.904 74.5397 335.525C73.5344 336.125 72.4359 336.424 71.2438 336.424ZM71.2438 334.351C72.0618 334.351 72.7981 334.144 73.4527 333.729C74.1072 333.292 74.6331 332.727 75.0306 332.036C75.4278 331.345 75.6266 330.62 75.6266 329.86V326.129C75.6266 325.369 75.4278 324.656 75.0306 323.987C74.6564 323.319 74.1305 322.778 73.4527 322.364C72.7981 321.927 72.0618 321.707 71.2438 321.707C70.4256 321.707 69.6892 321.927 69.0348 322.364C68.3802 322.778 67.8542 323.319 67.457 323.987C67.0595 324.656 66.8609 325.369 66.8609 326.129V329.86C66.8609 330.62 67.0595 331.345 67.457 332.036C67.8542 332.727 68.3802 333.292 69.0348 333.729C69.7126 334.144 70.4489 334.351 71.2438 334.351ZM87.2237 336.424C86.1483 336.424 85.1315 336.125 84.1732 335.525C83.2148 334.904 82.4434 334.087 81.8591 333.073C81.2981 332.059 81.0176 330.988 81.0176 329.86V326.129C81.0176 324.932 81.2981 323.849 81.8591 322.882C82.4434 321.892 83.2148 321.108 84.1732 320.533C85.1315 319.933 86.1834 319.635 87.3289 319.635C88.4742 319.635 89.4327 319.911 90.2041 320.464C90.9988 320.994 91.5831 321.592 91.9572 322.26V310.687C91.9572 310.411 92.074 310.204 92.3078 310.065C92.5415 309.905 92.8103 309.824 93.1143 309.824C93.4649 309.824 93.7337 309.905 93.9207 310.065C94.1311 310.204 94.2363 310.411 94.2363 310.687V335.284C94.2363 335.513 94.1311 335.721 93.9207 335.905C93.7337 336.09 93.4649 336.182 93.1143 336.182C92.8338 336.182 92.5766 336.09 92.3429 335.905C92.1325 335.721 92.0273 335.513 92.0273 335.284V333.764C91.6767 334.477 91.0571 335.099 90.169 335.629C89.304 336.159 88.3222 336.424 87.2237 336.424ZM87.6445 334.351C88.486 334.351 89.2223 334.144 89.8534 333.729C90.5079 333.292 91.0221 332.808 91.3962 332.278C91.7702 331.725 91.9572 331.276 91.9572 330.931V326.129C91.9572 325.184 91.7468 324.39 91.3261 323.745C90.9053 323.101 90.3676 322.605 89.7132 322.26C89.0586 321.892 88.3808 321.707 87.6795 321.707C86.8846 321.707 86.1601 321.927 85.5056 322.364C84.851 322.778 84.3251 323.319 83.9278 323.987C83.5303 324.656 83.3317 325.369 83.3317 326.129V329.86C83.3317 330.62 83.5303 331.345 83.9278 332.036C84.3251 332.727 84.851 333.292 85.5056 333.729C86.1601 334.144 86.8731 334.351 87.6445 334.351ZM105.189 336.424C103.95 336.424 102.816 336.125 101.788 335.525C100.783 334.926 99.9763 334.132 99.3686 333.142C98.7841 332.128 98.4921 331.057 98.4921 329.929V320.74C98.4921 320.51 98.6088 320.303 98.8427 320.118C99.0764 319.933 99.3452 319.842 99.6492 319.842C99.953 319.842 100.21 319.933 100.421 320.118C100.654 320.303 100.771 320.51 100.771 320.74V329.929C100.771 330.689 100.97 331.402 101.367 332.071C101.764 332.739 102.29 333.292 102.945 333.729C103.6 334.144 104.336 334.351 105.154 334.351C105.996 334.351 106.743 334.144 107.398 333.729C108.053 333.315 108.567 332.774 108.941 332.105C109.338 331.415 109.537 330.689 109.537 329.929V320.705C109.537 320.452 109.654 320.244 109.888 320.084C110.121 319.923 110.39 319.842 110.694 319.842C111.045 319.842 111.313 319.923 111.5 320.084C111.711 320.244 111.816 320.452 111.816 320.705V329.929C111.816 331.104 111.512 332.187 110.904 333.176C110.32 334.144 109.513 334.926 108.485 335.525C107.48 336.125 106.381 336.424 105.189 336.424ZM117.464 336.182C117.16 336.182 116.892 336.09 116.658 335.905C116.447 335.721 116.342 335.513 116.342 335.284V310.687C116.342 310.411 116.447 310.204 116.658 310.065C116.892 309.905 117.16 309.824 117.464 309.824C117.792 309.824 118.06 309.905 118.271 310.065C118.505 310.204 118.621 310.411 118.621 310.687V335.284C118.621 335.513 118.505 335.721 118.271 335.905C118.06 336.09 117.792 336.182 117.464 336.182ZM129.351 336.424C128.159 336.424 127.06 336.125 126.055 335.525C125.05 334.904 124.232 334.097 123.601 333.107C122.993 332.093 122.689 331.012 122.689 329.86V326.129C122.689 324.955 122.981 323.884 123.566 322.916C124.173 321.927 124.98 321.132 125.985 320.533C127.014 319.933 128.136 319.635 129.351 319.635C130.543 319.635 131.642 319.933 132.647 320.533C133.675 321.108 134.494 321.88 135.101 322.847C135.709 323.815 136.013 324.908 136.013 326.129V329.86C136.013 330.988 135.709 332.059 135.101 333.073C134.494 334.087 133.675 334.904 132.647 335.525C131.642 336.125 130.543 336.424 129.351 336.424ZM129.351 334.351C130.169 334.351 130.906 334.144 131.56 333.729C132.214 333.292 132.74 332.727 133.138 332.036C133.535 331.345 133.734 330.62 133.734 329.86V326.129C133.734 325.369 133.535 324.656 133.138 323.987C132.764 323.319 132.238 322.778 131.56 322.364C130.906 321.927 130.169 321.707 129.351 321.707C128.533 321.707 127.796 321.927 127.142 322.364C126.488 322.778 125.962 323.319 125.564 323.987C125.167 324.656 124.968 325.369 124.968 326.129V329.86C124.968 330.62 125.167 331.345 125.564 332.036C125.962 332.727 126.488 333.292 127.142 333.729C127.82 334.144 128.556 334.351 129.351 334.351ZM149.23 336.182C148.926 336.182 148.657 336.113 148.423 335.975C148.19 335.814 148.073 335.582 148.073 335.284V314.833L146.67 317.044C146.577 317.182 146.472 317.285 146.355 317.355C146.238 317.424 146.121 317.458 146.004 317.458C145.747 317.458 145.525 317.355 145.338 317.147C145.174 316.94 145.092 316.71 145.092 316.456C145.092 316.296 145.151 316.111 145.268 315.904C145.385 315.674 145.49 315.512 145.583 315.42L148.493 311.413C148.61 311.275 148.727 311.159 148.844 311.067C148.961 310.952 149.136 310.895 149.37 310.895C149.627 310.895 149.861 310.976 150.071 311.136C150.282 311.275 150.387 311.494 150.387 311.793V335.284C150.387 335.582 150.258 335.814 150.001 335.975C149.767 336.113 149.51 336.182 149.23 336.182Z" fill="#F5F5F5"/>
</g>
</g>
<defs>
<clipPath id="clip0_0_1">
<rect width="709" height="383" fill="white"/>
</clipPath>
<clipPath id="clip1_0_1">
<rect width="696" height="437" fill="white" transform="translate(6 8)"/>
</clipPath>
</defs>
</svg>
